<?xml version="1.0"?>
<!DOCTYPE lmms-project>
<lmms-project creatorversion="1.2.0-rc7" version="1.0" creator="LMMS" type="song">
  <head mastervol="20" timesig_denominator="4" masterpitch="0" bpm="150" timesig_numerator="4"/>
  <song>
    <trackcontainer visible="1" x="5" y="5" width="600" maximized="1" minimized="0" height="300" type="song">
      <track name="TripleOscillator" solo="0" muted="0" type="0">
        <instrumenttrack pitchrange="1" vol="100" usemasterpitch="1" pitch="0" basenote="57" pan="0" fxch="0">
          <instrument name="tripleoscillator">
            <tripleoscillator modalgo2="2" finel0="-7" modalgo3="2" finer0="0" finel1="0" finer1="9" finel2="0" finer2="0" userwavefile0="" userwavefile1="" userwavefile2="" wavetype0="2" wavetype1="2" wavetype2="1" stphdetun0="0" stphdetun1="0" phoffset0="0" stphdetun2="0" phoffset1="0" phoffset2="270" coarse0="0" vol0="33" coarse1="-12" vol1="33" vol2="33" coarse2="-12" pan0="0" pan1="0" pan2="0" modalgo1="2"/>
          </instrument>
          <eldata fres="0.65" fcut="2339" ftype="7" fwet="1">
            <connection>
              <fcut id="0"/>
            </connection>
            <elvol sustain="1" ctlenvamt="0" att="0" lamt="0" amt="1" lshp="0" lspd_denominator="4" x100="0" lspd_syncmode="0" lpdel="0" lspd_numerator="4" lspd="0.1" pdel="0" hold="0.5" userwavefile="" rel="0.1" dec="0.5" latt="0"/>
            <elcut sustain="0.461" ctlenvamt="0" att="0.483" lamt="0" amt="0" lshp="0" lspd_denominator="4" x100="0" lspd_syncmode="0" lpdel="0" lspd_numerator="4" lspd="0.1" pdel="0" hold="0.5" userwavefile="" rel="0" dec="0.5" latt="0"/>
            <elres sustain="0.5" ctlenvamt="0" att="0" lamt="0" amt="0" lshp="0" lspd_denominator="4" x100="0" lspd_syncmode="0" lpdel="0" lspd_numerator="4" lspd="0.1" pdel="0" hold="0.5" userwavefile="" rel="0.1" dec="0.5" latt="0"/>
          </eldata>
          <chordcreator chordrange="1" chord="0" chord-enabled="0"/>
          <arpeggiator arpgate="100" arp-enabled="0" arpcycle="0" arptime_denominator="4" arprange="1" arptime_numerator="4" arpdir="0" arpmiss="0" arpmode="0" arp="0" arptime_syncmode="0" arpskip="0" arptime="100"/>
          <midiport outputprogram="1" fixedinputvelocity="-1" outputcontroller="0" readable="0" writable="0" fixedoutputnote="-1" basevelocity="63" fixedoutputvelocity="-1" inputcontroller="0" outputchannel="1" inputchannel="0"/>
          <fxchain enabled="1" numofeffects="2">
            <effect wet="1" gate="0" on="1" name="ladspaeffect" autoquit_numerator="4" autoquit="1" autoquit_syncmode="0" autoquit_denominator="4">
              <ladspacontrols ports="2" link="1">
                <port01 data="1" link="1"/>
                <port11 data="1"/>
              </ladspacontrols>
              <key>
                <attribute name="file" value="caps"/>
                <attribute name="plugin" value="Clip"/>
              </key>
            </effect>
            <effect wet="0.18" gate="0" on="1" name="ladspaeffect" autoquit_numerator="4" autoquit="1" autoquit_syncmode="0" autoquit_denominator="4">
              <ladspacontrols ports="8" link="1">
                <port01 data="1" link="1"/>
                <port02 data="0.75" link="1"/>
                <port03 data="0.785398" link="1"/>
                <port04 data="0.74925" link="1"/>
                <port11 data="1"/>
                <port12 data="0.75"/>
                <port13 data="0.785398"/>
                <port14 data="0.74925"/>
              </ladspacontrols>
              <key>
                <attribute name="file" value="caps"/>
                <attribute name="plugin" value="PhaserI"/>
              </key>
            </effect>
          </fxchain>
        </instrumenttrack>
        <pattern name="TripleOscillator" pos="14592" muted="0" steps="16" type="1">
          <note vol="102" pos="0" pan="0" len="288" key="75"/>
          <note vol="102" pos="0" pan="0" len="288" key="67"/>
          <note vol="102" pos="0" pan="0" len="288" key="60"/>
          <note vol="102" pos="0" pan="0" len="288" key="48"/>
          <note vol="102" pos="0" pan="0" len="288" key="36"/>
          <note vol="102" pos="288" pan="0" len="96" key="77"/>
          <note vol="102" pos="288" pan="0" len="96" key="70"/>
          <note vol="102" pos="288" pan="0" len="96" key="62"/>
          <note vol="102" pos="288" pan="0" len="96" key="53"/>
          <note vol="102" pos="288" pan="0" len="96" key="46"/>
          <note vol="102" pos="288" pan="0" len="96" key="34"/>
          <note vol="102" pos="384" pan="0" len="192" key="79"/>
          <note vol="102" pos="384" pan="0" len="192" key="70"/>
          <note vol="102" pos="384" pan="0" len="192" key="62"/>
          <note vol="102" pos="384" pan="0" len="192" key="55"/>
          <note vol="102" pos="384" pan="0" len="192" key="43"/>
          <note vol="102" pos="384" pan="0" len="192" key="34"/>
          <note vol="102" pos="576" pan="0" len="480" key="84"/>
          <note vol="102" pos="576" pan="0" len="480" key="75"/>
          <note vol="102" pos="576" pan="0" len="480" key="68"/>
          <note vol="102" pos="576" pan="0" len="480" key="56"/>
          <note vol="102" pos="576" pan="0" len="480" key="44"/>
          <note vol="102" pos="576" pan="0" len="480" key="32"/>
          <note vol="102" pos="1056" pan="0" len="96" key="82"/>
          <note vol="102" pos="1056" pan="0" len="96" key="70"/>
          <note vol="102" pos="1056" pan="0" len="96" key="67"/>
          <note vol="102" pos="1056" pan="0" len="96" key="51"/>
          <note vol="102" pos="1056" pan="0" len="96" key="39"/>
          <note vol="102" pos="1056" pan="0" len="96" key="34"/>
          <note vol="102" pos="1152" pan="0" len="192" key="81"/>
          <note vol="102" pos="1152" pan="0" len="192" key="72"/>
          <note vol="102" pos="1152" pan="0" len="192" key="69"/>
          <note vol="102" pos="1152" pan="0" len="192" key="53"/>
          <note vol="102" pos="1152" pan="0" len="192" key="41"/>
          <note vol="102" pos="1152" pan="0" len="192" key="36"/>
          <note vol="102" pos="1344" pan="0" len="192" key="84"/>
          <note vol="102" pos="1344" pan="0" len="192" key="80"/>
          <note vol="102" pos="1344" pan="0" len="192" key="61"/>
          <note vol="102" pos="1344" pan="0" len="192" key="53"/>
          <note vol="102" pos="1344" pan="0" len="192" key="37"/>
        </pattern>
      </track>
      <track name="Sample track" solo="0" muted="0" type="2">
        <sampletrack vol="100" pan="0">
          <fxchain enabled="0" numofeffects="0"/>
        </sampletrack>
      </track>
      <track name="Beat/Bassline 0" solo="0" muted="0" type="1">
        <bbtrack>
          <trackcontainer visible="1" x="610" y="5" width="700" maximized="0" minimized="0" height="400" type="bbtrackcontainer">
            <track name="Kicker" solo="0" muted="0" type="0">
              <instrumenttrack pitchrange="1" vol="100" usemasterpitch="1" pitch="0" basenote="57" pan="0" fxch="0">
                <instrument name="kicker">
                  <kicker decay="440" env="0.163" dist="0.8" distend="0.8" click="0.4" version="1" decay_syncmode="0" startfreq="150" gain="1" endfreq="40" decay_numerator="4" decay_denominator="4" noise="0" startnote="1" slope="0.06" endnote="0"/>
                </instrument>
                <eldata fres="0.5" fcut="14000" ftype="0" fwet="0">
                  <elvol sustain="0.5" ctlenvamt="0" att="0" lamt="0" amt="0" lshp="0" lspd_denominator="4" x100="0" lspd_syncmode="0" lpdel="0" lspd_numerator="4" lspd="0.1" pdel="0" hold="0.5" userwavefile="" rel="0.1" dec="0.5" latt="0"/>
                  <elcut sustain="0.5" ctlenvamt="0" att="0" lamt="0" amt="0" lshp="0" lspd_denominator="4" x100="0" lspd_syncmode="0" lpdel="0" lspd_numerator="4" lspd="0.1" pdel="0" hold="0.5" userwavefile="" rel="0.1" dec="0.5" latt="0"/>
                  <elres sustain="0.5" ctlenvamt="0" att="0" lamt="0" amt="0" lshp="0" lspd_denominator="4" x100="0" lspd_syncmode="0" lpdel="0" lspd_numerator="4" lspd="0.1" pdel="0" hold="0.5" userwavefile="" rel="0.1" dec="0.5" latt="0"/>
                </eldata>
                <chordcreator chordrange="1" chord="0" chord-enabled="0"/>
                <arpeggiator arpgate="100" arp-enabled="0" arpcycle="0" arptime_denominator="4" arprange="1" arptime_numerator="4" arpdir="0" arpmiss="0" arpmode="0" arp="0" arptime_syncmode="0" arpskip="0" arptime="100"/>
                <midiport outputprogram="1" fixedinputvelocity="-1" outputcontroller="0" readable="0" writable="0" fixedoutputnote="-1" basevelocity="63" fixedoutputvelocity="-1" inputcontroller="0" outputchannel="1" inputchannel="0"/>
                <fxchain enabled="0" numofeffects="0"/>
              </instrumenttrack>
              <pattern name="Kicker" pos="0" muted="0" steps="32" type="0"/>
              <pattern name="Kicker" pos="192" muted="0" steps="16" type="0"/>
              <pattern name="Kicker" pos="384" muted="0" steps="16" type="0">
                <note vol="100" pos="0" pan="0" len="-192" key="57"/>
              </pattern>
              <pattern name="Kicker" pos="576" muted="0" steps="16" type="0"/>
              <pattern name="Kicker" pos="768" muted="0" steps="16" type="0"/>
              <pattern name="Kicker" pos="960" muted="0" steps="16" type="0"/>
              <pattern name="Kicker" pos="1152" muted="0" steps="16" type="0"/>
              <pattern name="Kicker" pos="1344" muted="0" steps="16" type="0"/>
            </track>
            <track name="kick_hardcore01.ogg" solo="0" muted="0" type="0">
              <instrumenttrack pitchrange="1" vol="100" usemasterpitch="1" pitch="0" basenote="57" pan="0" fxch="0">
                <instrument name="audiofileprocessor">
                  <audiofileprocessor looped="0" sframe="0" lframe="0" reversed="0" eframe="1" src="drums/kick_hardcore01.ogg" amp="100" interp="1" stutter="0"/>
                </instrument>
                <eldata fres="0.5" fcut="14000" ftype="0" fwet="0">
                  <elvol sustain="0.5" ctlenvamt="0" att="0" lamt="0" amt="0" lshp="0" lspd_denominator="4" x100="0" lspd_syncmode="0" lpdel="0" lspd_numerator="4" lspd="0.1" pdel="0" hold="0.5" userwavefile="" rel="0.1" dec="0.5" latt="0"/>
                  <elcut sustain="0.5" ctlenvamt="0" att="0" lamt="0" amt="0" lshp="0" lspd_denominator="4" x100="0" lspd_syncmode="0" lpdel="0" lspd_numerator="4" lspd="0.1" pdel="0" hold="0.5" userwavefile="" rel="0.1" dec="0.5" latt="0"/>
                  <elres sustain="0.5" ctlenvamt="0" att="0" lamt="0" amt="0" lshp="0" lspd_denominator="4" x100="0" lspd_syncmode="0" lpdel="0" lspd_numerator="4" lspd="0.1" pdel="0" hold="0.5" userwavefile="" rel="0.1" dec="0.5" latt="0"/>
                </eldata>
                <chordcreator chordrange="1" chord="0" chord-enabled="0"/>
                <arpeggiator arpgate="100" arp-enabled="0" arpcycle="0" arptime_denominator="4" arprange="1" arptime_numerator="4" arpdir="0" arpmiss="0" arpmode="0" arp="0" arptime_syncmode="0" arpskip="0" arptime="200"/>
                <midiport outputprogram="1" fixedinputvelocity="-1" outputcontroller="0" readable="0" writable="0" fixedoutputnote="-1" basevelocity="63" fixedoutputvelocity="-1" inputcontroller="0" outputchannel="1" inputchannel="0"/>
                <fxchain enabled="0" numofeffects="0"/>
              </instrumenttrack>
              <pattern name="kick_hardcore01.ogg" pos="0" muted="0" steps="32" type="0">
                <note vol="100" pos="48" pan="0" len="-192" key="57"/>
                <note vol="100" pos="144" pan="0" len="-192" key="57"/>
                <note vol="100" pos="240" pan="0" len="-192" key="57"/>
                <note vol="100" pos="336" pan="0" len="-192" key="57"/>
                <note vol="100" pos="360" pan="0" len="-192" key="57"/>
              </pattern>
              <pattern name="kick_hardcore01.ogg" pos="192" muted="0" steps="16" type="0"/>
              <pattern name="kick_hardcore01.ogg" pos="384" muted="0" steps="16" type="0"/>
              <pattern name="kick_hardcore01.ogg" pos="576" muted="0" steps="16" type="0"/>
              <pattern name="kick_hardcore01.ogg" pos="768" muted="0" steps="16" type="0">
                <note vol="100" pos="0" pan="0" len="-192" key="57"/>
                <note vol="100" pos="48" pan="0" len="-192" key="57"/>
                <note vol="100" pos="96" pan="0" len="-192" key="57"/>
                <note vol="100" pos="144" pan="0" len="-192" key="57"/>
              </pattern>
              <pattern name="kick_hardcore01.ogg" pos="960" muted="0" steps="16" type="0">
                <note vol="100" pos="0" pan="0" len="-192" key="57"/>
                <note vol="100" pos="12" pan="0" len="-192" key="57"/>
                <note vol="100" pos="36" pan="0" len="-192" key="57"/>
                <note vol="100" pos="48" pan="0" len="-192" key="57"/>
                <note vol="100" pos="72" pan="0" len="-192" key="57"/>
                <note vol="100" pos="96" pan="0" len="-192" key="57"/>
                <note vol="100" pos="144" pan="0" len="-192" key="57"/>
                <note vol="100" pos="156" pan="0" len="-192" key="57"/>
                <note vol="100" pos="168" pan="0" len="-192" key="57"/>
              </pattern>
              <pattern name="kick_hardcore01.ogg" pos="1152" muted="0" steps="16" type="0">
                <note vol="100" pos="0" pan="0" len="-192" key="57"/>
                <note vol="100" pos="24" pan="0" len="-192" key="57"/>
                <note vol="100" pos="48" pan="0" len="-192" key="57"/>
                <note vol="100" pos="72" pan="0" len="-192" key="57"/>
                <note vol="100" pos="144" pan="0" len="-192" key="57"/>
              </pattern>
              <pattern name="kick_hardcore01.ogg" pos="1344" muted="0" steps="16" type="0"/>
            </track>
            <track name="nasty_snare01.ogg" solo="0" muted="0" type="0">
              <instrumenttrack pitchrange="1" vol="100" usemasterpitch="1" pitch="0" basenote="57" pan="0" fxch="0">
                <instrument name="audiofileprocessor">
                  <audiofileprocessor looped="0" sframe="0" lframe="0" reversed="0" eframe="1" src="drums/nasty_snare01.ogg" amp="100" interp="1" stutter="0"/>
                </instrument>
                <eldata fres="0.5" fcut="14000" ftype="0" fwet="0">
                  <elvol sustain="0.5" ctlenvamt="0" att="0" lamt="0" amt="0" lshp="0" lspd_denominator="4" x100="0" lspd_syncmode="0" lpdel="0" lspd_numerator="4" lspd="0.1" pdel="0" hold="0.5" userwavefile="" rel="0.1" dec="0.5" latt="0"/>
                  <elcut sustain="0.5" ctlenvamt="0" att="0" lamt="0" amt="0" lshp="0" lspd_denominator="4" x100="0" lspd_syncmode="0" lpdel="0" lspd_numerator="4" lspd="0.1" pdel="0" hold="0.5" userwavefile="" rel="0.1" dec="0.5" latt="0"/>
                  <elres sustain="0.5" ctlenvamt="0" att="0" lamt="0" amt="0" lshp="0" lspd_denominator="4" x100="0" lspd_syncmode="0" lpdel="0" lspd_numerator="4" lspd="0.1" pdel="0" hold="0.5" userwavefile="" rel="0.1" dec="0.5" latt="0"/>
                </eldata>
                <chordcreator chordrange="1" chord="0" chord-enabled="0"/>
                <arpeggiator arpgate="100" arp-enabled="0" arpcycle="0" arptime_denominator="4" arprange="1" arptime_numerator="4" arpdir="0" arpmiss="0" arpmode="0" arp="0" arptime_syncmode="0" arpskip="0" arptime="200"/>
                <midiport outputprogram="1" fixedinputvelocity="-1" outputcontroller="0" readable="0" writable="0" fixedoutputnote="-1" basevelocity="63" fixedoutputvelocity="-1" inputcontroller="0" outputchannel="1" inputchannel="0"/>
                <fxchain enabled="0" numofeffects="0"/>
              </instrumenttrack>
              <pattern name="nasty_snare01.ogg" pos="0" muted="0" steps="32" type="0"/>
              <pattern name="nasty_snare01.ogg" pos="192" muted="0" steps="16" type="0">
                <note vol="100" pos="144" pan="0" len="-192" key="57"/>
              </pattern>
              <pattern name="nasty_snare01.ogg" pos="384" muted="0" steps="16" type="0">
                <note vol="100" pos="96" pan="0" len="-192" key="57"/>
              </pattern>
              <pattern name="nasty_snare01.ogg" pos="576" muted="0" steps="16" type="0"/>
              <pattern name="nasty_snare01.ogg" pos="768" muted="0" steps="16" type="0"/>
              <pattern name="nasty_snare01.ogg" pos="960" muted="0" steps="16" type="0"/>
              <pattern name="nasty_snare01.ogg" pos="1152" muted="0" steps="16" type="0">
                <note vol="100" pos="96" pan="0" len="-192" key="57"/>
              </pattern>
              <pattern name="nasty_snare01.ogg" pos="1344" muted="0" steps="16" type="0">
                <note vol="100" pos="24" pan="0" len="-192" key="57"/>
              </pattern>
            </track>
            <track name="snare03.ogg" solo="0" muted="0" type="0">
              <instrumenttrack pitchrange="1" vol="100" usemasterpitch="1" pitch="0" basenote="57" pan="0" fxch="0">
                <instrument name="audiofileprocessor">
                  <audiofileprocessor looped="0" sframe="0" lframe="0" reversed="0" eframe="1" src="drums/snare03.ogg" amp="100" interp="1" stutter="0"/>
                </instrument>
                <eldata fres="0.5" fcut="14000" ftype="0" fwet="0">
                  <elvol sustain="0.5" ctlenvamt="0" att="0" lamt="0" amt="0" lshp="0" lspd_denominator="4" x100="0" lspd_syncmode="0" lpdel="0" lspd_numerator="4" lspd="0.1" pdel="0" hold="0.5" userwavefile="" rel="0.1" dec="0.5" latt="0"/>
                  <elcut sustain="0.5" ctlenvamt="0" att="0" lamt="0" amt="0" lshp="0" lspd_denominator="4" x100="0" lspd_syncmode="0" lpdel="0" lspd_numerator="4" lspd="0.1" pdel="0" hold="0.5" userwavefile="" rel="0.1" dec="0.5" latt="0"/>
                  <elres sustain="0.5" ctlenvamt="0" att="0" lamt="0" amt="0" lshp="0" lspd_denominator="4" x100="0" lspd_syncmode="0" lpdel="0" lspd_numerator="4" lspd="0.1" pdel="0" hold="0.5" userwavefile="" rel="0.1" dec="0.5" latt="0"/>
                </eldata>
                <chordcreator chordrange="1" chord="0" chord-enabled="0"/>
                <arpeggiator arpgate="100" arp-enabled="0" arpcycle="0" arptime_denominator="4" arprange="1" arptime_numerator="4" arpdir="0" arpmiss="0" arpmode="0" arp="0" arptime_syncmode="0" arpskip="0" arptime="200"/>
                <midiport outputprogram="1" fixedinputvelocity="-1" outputcontroller="0" readable="0" writable="0" fixedoutputnote="-1" basevelocity="63" fixedoutputvelocity="-1" inputcontroller="0" outputchannel="1" inputchannel="0"/>
                <fxchain enabled="0" numofeffects="0"/>
              </instrumenttrack>
              <pattern name="snare03.ogg" pos="0" muted="0" steps="32" type="0"/>
              <pattern name="snare03.ogg" pos="192" muted="0" steps="16" type="0">
                <note vol="100" pos="48" pan="0" len="-192" key="57"/>
                <note vol="50" pos="84" pan="0" len="-192" key="57"/>
                <note vol="100" pos="96" pan="0" len="-192" key="57"/>
                <note vol="35" pos="108" pan="0" len="-192" key="57"/>
                <note vol="100" pos="120" pan="0" len="-192" key="57"/>
              </pattern>
              <pattern name="snare03.ogg" pos="384" muted="0" steps="16" type="0">
                <note vol="100" pos="24" pan="0" len="-192" key="57"/>
                <note vol="100" pos="72" pan="0" len="-192" key="57"/>
                <note vol="100" pos="120" pan="0" len="-192" key="57"/>
                <note vol="100" pos="168" pan="0" len="-192" key="57"/>
              </pattern>
              <pattern name="snare03.ogg" pos="576" muted="0" steps="16" type="0"/>
              <pattern name="snare03.ogg" pos="768" muted="0" steps="16" type="0">
                <note vol="100" pos="0" pan="0" len="-192" key="57"/>
                <note vol="100" pos="48" pan="0" len="-192" key="57"/>
                <note vol="100" pos="96" pan="0" len="-192" key="57"/>
                <note vol="100" pos="144" pan="0" len="-192" key="57"/>
                <note vol="80" pos="180" pan="0" len="-192" key="57"/>
              </pattern>
              <pattern name="snare03.ogg" pos="960" muted="0" steps="16" type="0">
                <note vol="100" pos="24" pan="0" len="-192" key="57"/>
                <note vol="100" pos="72" pan="0" len="-192" key="57"/>
                <note vol="100" pos="120" pan="0" len="-192" key="57"/>
                <note vol="100" pos="168" pan="0" len="-192" key="57"/>
              </pattern>
              <pattern name="snare03.ogg" pos="1152" muted="0" steps="16" type="0"/>
              <pattern name="snare03.ogg" pos="1344" muted="0" steps="16" type="0"/>
            </track>
            <track name="hihat_closed05.ogg" solo="0" muted="0" type="0">
              <instrumenttrack pitchrange="1" vol="100" usemasterpitch="1" pitch="0" basenote="57" pan="0" fxch="0">
                <instrument name="audiofileprocessor">
                  <audiofileprocessor looped="0" sframe="0" lframe="0" reversed="0" eframe="1" src="drums/hihat_closed05.ogg" amp="100" interp="1" stutter="0"/>
                </instrument>
                <eldata fres="0.5" fcut="14000" ftype="0" fwet="0">
                  <elvol sustain="0.5" ctlenvamt="0" att="0" lamt="0" amt="0" lshp="0" lspd_denominator="4" x100="0" lspd_syncmode="0" lpdel="0" lspd_numerator="4" lspd="0.1" pdel="0" hold="0.5" userwavefile="" rel="0.1" dec="0.5" latt="0"/>
                  <elcut sustain="0.5" ctlenvamt="0" att="0" lamt="0" amt="0" lshp="0" lspd_denominator="4" x100="0" lspd_syncmode="0" lpdel="0" lspd_numerator="4" lspd="0.1" pdel="0" hold="0.5" userwavefile="" rel="0.1" dec="0.5" latt="0"/>
                  <elres sustain="0.5" ctlenvamt="0" att="0" lamt="0" amt="0" lshp="0" lspd_denominator="4" x100="0" lspd_syncmode="0" lpdel="0" lspd_numerator="4" lspd="0.1" pdel="0" hold="0.5" userwavefile="" rel="0.1" dec="0.5" latt="0"/>
                </eldata>
                <chordcreator chordrange="1" chord="0" chord-enabled="0"/>
                <arpeggiator arpgate="100" arp-enabled="0" arpcycle="0" arptime_denominator="4" arprange="1" arptime_numerator="4" arpdir="0" arpmiss="0" arpmode="0" arp="0" arptime_syncmode="0" arpskip="0" arptime="200"/>
                <midiport outputprogram="1" fixedinputvelocity="-1" outputcontroller="0" readable="0" writable="0" fixedoutputnote="-1" basevelocity="63" fixedoutputvelocity="-1" inputcontroller="0" outputchannel="1" inputchannel="0"/>
                <fxchain enabled="0" numofeffects="0"/>
              </instrumenttrack>
              <pattern name="hihat_closed05.ogg" pos="0" muted="0" steps="32" type="0"/>
              <pattern name="hihat_closed05.ogg" pos="192" muted="0" steps="16" type="0"/>
              <pattern name="hihat_closed05.ogg" pos="384" muted="0" steps="16" type="0"/>
              <pattern name="hihat_closed05.ogg" pos="576" muted="0" steps="16" type="0">
                <note vol="100" pos="0" pan="0" len="-192" key="57"/>
                <note vol="25" pos="12" pan="0" len="-192" key="57"/>
                <note vol="100" pos="24" pan="0" len="-192" key="57"/>
                <note vol="20" pos="36" pan="0" len="-192" key="57"/>
                <note vol="100" pos="48" pan="0" len="-192" key="57"/>
                <note vol="40" pos="60" pan="0" len="-192" key="57"/>
                <note vol="100" pos="72" pan="0" len="-192" key="57"/>
                <note vol="30" pos="84" pan="0" len="-192" key="57"/>
                <note vol="100" pos="96" pan="0" len="-192" key="57"/>
                <note vol="40" pos="108" pan="0" len="-192" key="57"/>
                <note vol="100" pos="120" pan="0" len="-192" key="57"/>
                <note vol="35" pos="132" pan="0" len="-192" key="57"/>
                <note vol="100" pos="144" pan="0" len="-192" key="57"/>
                <note vol="45" pos="156" pan="0" len="-192" key="57"/>
                <note vol="100" pos="168" pan="0" len="-192" key="57"/>
                <note vol="50" pos="180" pan="0" len="-192" key="57"/>
              </pattern>
              <pattern name="hihat_closed05.ogg" pos="768" muted="0" steps="16" type="0">
                <note vol="10" pos="0" pan="0" len="-192" key="57"/>
                <note vol="30" pos="12" pan="0" len="-192" key="57"/>
                <note vol="100" pos="24" pan="0" len="-192" key="57"/>
                <note vol="35" pos="36" pan="0" len="-192" key="57"/>
                <note vol="30" pos="48" pan="0" len="-192" key="57"/>
                <note vol="45" pos="60" pan="0" len="-192" key="57"/>
                <note vol="100" pos="72" pan="0" len="-192" key="57"/>
                <note vol="60" pos="84" pan="0" len="-192" key="57"/>
                <note vol="20" pos="96" pan="0" len="-192" key="57"/>
                <note vol="60" pos="108" pan="0" len="-192" key="57"/>
                <note vol="100" pos="120" pan="0" len="-192" key="57"/>
                <note vol="20" pos="132" pan="0" len="-192" key="57"/>
                <note vol="20" pos="144" pan="0" len="-192" key="57"/>
                <note vol="65" pos="156" pan="0" len="-192" key="57"/>
                <note vol="100" pos="168" pan="0" len="-192" key="57"/>
                <note vol="60" pos="180" pan="0" len="-192" key="57"/>
              </pattern>
              <pattern name="hihat_closed05.ogg" pos="960" muted="0" steps="16" type="0">
                <note vol="100" pos="12" pan="0" len="-192" key="57"/>
                <note vol="100" pos="36" pan="0" len="-192" key="57"/>
                <note vol="100" pos="60" pan="0" len="-192" key="57"/>
                <note vol="100" pos="84" pan="0" len="-192" key="57"/>
                <note vol="100" pos="108" pan="0" len="-192" key="57"/>
                <note vol="100" pos="132" pan="0" len="-192" key="57"/>
                <note vol="100" pos="156" pan="0" len="-192" key="57"/>
                <note vol="100" pos="180" pan="0" len="-192" key="57"/>
              </pattern>
              <pattern name="hihat_closed05.ogg" pos="1152" muted="0" steps="16" type="0">
                <note vol="100" pos="12" pan="0" len="-192" key="57"/>
                <note vol="100" pos="36" pan="0" len="-192" key="57"/>
                <note vol="100" pos="60" pan="0" len="-192" key="57"/>
                <note vol="100" pos="84" pan="0" len="-192" key="57"/>
                <note vol="100" pos="120" pan="0" len="-192" key="57"/>
                <note vol="100" pos="168" pan="0" len="-192" key="57"/>
              </pattern>
              <pattern name="hihat_closed05.ogg" pos="1344" muted="0" steps="16" type="0"/>
            </track>
          </trackcontainer>
        </bbtrack>
        <bbtco name="" color="4286611584" pos="0" muted="0" usestyle="1" len="576"/>
        <bbtco name="" color="4286611584" pos="768" muted="0" usestyle="1" len="768"/>
      </track>
      <track name="Beat/Bassline 6" solo="0" muted="0" type="1">
        <bbtrack/>
        <bbtco name="" color="4286611584" pos="576" muted="0" usestyle="1" len="192"/>
      </track>
      <track name="Automation track" solo="0" muted="0" type="5">
        <automationtrack/>
      </track>
      <track name="BitInvader" solo="0" muted="0" type="0">
        <instrumenttrack pitchrange="1" vol="59.6" usemasterpitch="1" pitch="0" basenote="69" pan="0" fxch="0">
          <instrument name="bitinvader">
            <bitinvader sampleShape="AACAPwAAgD8AAIA/AACAPwAAgD8AAIA/AACAPwAAgD8AAIA/AACAPwAAgD8AAIA/AACAPwAAgD8AAIA/AACAPwAAgD8AAIA/AACAPwAAgD8AAIA/AACAPwAAgD8AAIA/AACAPwAAgD8AAIA/AACAPwAAgD8AAIA/AACAP0zakj5M2pI+nIeRPuw0kD6Mj40+kKWIPlochD5GJn8+eG5zPrgjbj5THWM+rWFdPmPqUT75gj4+woUjPshoGD6ENN09qtKTPeozYz0Ag768QOKOvQAAgL8AAIC/AACAvwAAgL8AAIC/AACAvwAAgL8AAIC/AACAvwAAgL8AAIC/AACAvwAAgL8AAIC/AACAvwAAgL8AAIC/AACAvwAAgL8AAIC/AACAvwAAgL8AAIC/AACAvwAAgL8AAIC/AACAvwAAgL8AAIC/AACAvwAAgL8AAIC/AACAvwAAgL8AAIC/AACAvwAAgL8AAIC/AACAvwAAgL8AAIC/AACAvwAAgL8AAIC/AACAvwAAgL8AAIC/AACAvwAAgL8AAIC/" version="0.1" normalize="0" sampleLength="102" interpolation="0"/>
          </instrument>
          <eldata fres="1.11" fcut="1" ftype="0" fwet="1">
            <elvol sustain="0.59" ctlenvamt="0" att="0" lamt="0" amt="1" lshp="0" lspd_denominator="4" x100="0" lspd_syncmode="0" lpdel="0" lspd_numerator="4" lspd="0.1" pdel="0" hold="0.185" userwavefile="" rel="0.405" dec="0.723" latt="0"/>
            <elcut sustain="0.808" ctlenvamt="0" att="0" lamt="0" amt="1" lshp="0" lspd_denominator="4" x100="0" lspd_syncmode="0" lpdel="0" lspd_numerator="4" lspd="0.1" pdel="0" hold="0" userwavefile="" rel="0.421" dec="0.5" latt="0"/>
            <elres sustain="0.5" ctlenvamt="0" att="0" lamt="0" amt="0" lshp="0" lspd_denominator="4" x100="0" lspd_syncmode="0" lpdel="0" lspd_numerator="4" lspd="0.1" pdel="0" hold="0.5" userwavefile="" rel="0.1" dec="0.5" latt="0"/>
          </eldata>
          <chordcreator chordrange="1" chord="0" chord-enabled="0"/>
          <arpeggiator arpgate="100" arp-enabled="0" arpcycle="0" arptime_denominator="4" arprange="1" arptime_numerator="4" arpdir="0" arpmiss="0" arpmode="0" arp="0" arptime_syncmode="0" arpskip="0" arptime="200"/>
          <midiport outputprogram="1" fixedinputvelocity="-1" outputcontroller="0" readable="0" writable="0" fixedoutputnote="-1" basevelocity="63" fixedoutputvelocity="-1" inputcontroller="0" outputchannel="1" inputchannel="0"/>
          <fxchain enabled="0" numofeffects="0"/>
        </instrumenttrack>
        <pattern name="BitInvader" pos="0" muted="0" steps="16" type="1">
          <note vol="100" pos="0" pan="0" len="18" key="41"/>
          <note vol="100" pos="24" pan="0" len="12" key="41"/>
          <note vol="100" pos="72" pan="0" len="1" key="41"/>
          <note vol="100" pos="96" pan="0" len="18" key="41"/>
          <note vol="100" pos="120" pan="0" len="12" key="41"/>
          <note vol="100" pos="168" pan="0" len="1" key="41"/>
          <note vol="100" pos="192" pan="0" len="18" key="41"/>
          <note vol="100" pos="216" pan="0" len="12" key="41"/>
          <note vol="100" pos="264" pan="0" len="1" key="41"/>
          <note vol="100" pos="288" pan="0" len="18" key="41"/>
          <note vol="100" pos="312" pan="0" len="12" key="41"/>
          <note vol="100" pos="336" pan="0" len="24" key="44"/>
          <note vol="100" pos="360" pan="0" len="24" key="45"/>
          <note vol="100" pos="384" pan="0" len="18" key="41"/>
          <note vol="100" pos="408" pan="0" len="12" key="41"/>
          <note vol="100" pos="456" pan="0" len="1" key="41"/>
          <note vol="100" pos="480" pan="0" len="18" key="41"/>
          <note vol="100" pos="504" pan="0" len="12" key="41"/>
          <note vol="100" pos="552" pan="0" len="1" key="41"/>
          <note vol="100" pos="576" pan="0" len="18" key="41"/>
          <note vol="100" pos="600" pan="0" len="12" key="41"/>
          <note vol="100" pos="624" pan="0" len="24" key="37"/>
          <note vol="100" pos="648" pan="0" len="1" key="41"/>
          <note vol="100" pos="672" pan="0" len="24" key="46"/>
          <note vol="100" pos="696" pan="0" len="6" key="65"/>
          <note vol="100" pos="696" pan="0" len="12" key="41"/>
          <note vol="100" pos="720" pan="0" len="1" key="70"/>
          <note vol="100" pos="720" pan="0" len="24" key="47"/>
          <note vol="100" pos="726" pan="0" len="1" key="72"/>
          <note vol="100" pos="732" pan="0" len="1" key="73"/>
          <note vol="100" pos="738" pan="0" len="1" key="75"/>
          <note vol="100" pos="744" pan="0" len="1" key="77"/>
          <note vol="100" pos="744" pan="0" len="12" key="36"/>
          <note vol="100" pos="750" pan="0" len="1" key="79"/>
          <note vol="100" pos="756" pan="0" len="1" key="80"/>
          <note vol="100" pos="762" pan="0" len="6" key="89"/>
          <note vol="100" pos="792" pan="0" len="18" key="29"/>
          <note vol="100" pos="840" pan="0" len="18" key="32"/>
          <note vol="100" pos="888" pan="0" len="18" key="36"/>
          <note vol="100" pos="936" pan="0" len="18" key="37"/>
          <note vol="100" pos="984" pan="0" len="18" key="39"/>
          <note vol="100" pos="1032" pan="0" len="18" key="41"/>
          <note vol="100" pos="1056" pan="0" len="24" key="44"/>
          <note vol="100" pos="1080" pan="0" len="24" key="48"/>
          <note vol="100" pos="1104" pan="0" len="24" key="49"/>
          <note vol="100" pos="1128" pan="0" len="24" key="52"/>
          <note vol="100" pos="1152" pan="0" len="18" key="41"/>
          <note vol="100" pos="1176" pan="0" len="18" key="29"/>
          <note vol="100" pos="1200" pan="0" len="18" key="41"/>
          <note vol="100" pos="1224" pan="0" len="18" key="29"/>
          <note vol="100" pos="1248" pan="0" len="18" key="29"/>
          <note vol="100" pos="1272" pan="0" len="18" key="29"/>
          <note vol="100" pos="1320" pan="0" len="18" key="29"/>
          <note vol="100" pos="1368" pan="0" len="18" key="34"/>
          <note vol="100" pos="1416" pan="0" len="18" key="34"/>
          <note vol="100" pos="1440" pan="0" len="48" key="37"/>
          <note vol="100" pos="1488" pan="0" len="48" key="40"/>
        </pattern>
        <pattern name="BitInvader" pos="11520" muted="0" steps="16" type="1">
          <note vol="42" pos="0" pan="0" len="18" key="67"/>
          <note vol="42" pos="6" pan="0" len="18" key="69"/>
          <note vol="42" pos="48" pan="0" len="18" key="67"/>
          <note vol="42" pos="54" pan="0" len="18" key="69"/>
          <note vol="42" pos="96" pan="0" len="18" key="69"/>
          <note vol="42" pos="102" pan="0" len="18" key="67"/>
          <note vol="42" pos="144" pan="0" len="66" key="65"/>
          <note vol="42" pos="150" pan="0" len="66" key="62"/>
          <note vol="42" pos="240" pan="0" len="18" key="72"/>
          <note vol="42" pos="246" pan="0" len="18" key="74"/>
          <note vol="42" pos="288" pan="0" len="18" key="69"/>
          <note vol="42" pos="294" pan="0" len="18" key="72"/>
          <note vol="42" pos="336" pan="0" len="66" key="65"/>
          <note vol="42" pos="342" pan="0" len="66" key="67"/>
          <note vol="42" pos="432" pan="0" len="18" key="67"/>
          <note vol="42" pos="438" pan="0" len="18" key="69"/>
          <note vol="42" pos="480" pan="0" len="18" key="65"/>
          <note vol="42" pos="486" pan="0" len="18" key="67"/>
          <note vol="42" pos="528" pan="0" len="66" key="60"/>
          <note vol="42" pos="534" pan="0" len="66" key="62"/>
          <note vol="42" pos="576" pan="0" len="66" key="72"/>
          <note vol="42" pos="582" pan="0" len="66" key="74"/>
          <note vol="42" pos="624" pan="0" len="18" key="70"/>
          <note vol="42" pos="630" pan="0" len="18" key="72"/>
          <note vol="42" pos="672" pan="0" len="66" key="65"/>
          <note vol="42" pos="672" pan="0" len="66" key="55"/>
          <note vol="42" pos="678" pan="0" len="66" key="67"/>
          <note vol="42" pos="678" pan="0" len="66" key="57"/>
          <note vol="42" pos="768" pan="0" len="18" key="67"/>
          <note vol="42" pos="774" pan="0" len="18" key="69"/>
          <note vol="42" pos="816" pan="0" len="18" key="67"/>
          <note vol="42" pos="822" pan="0" len="18" key="69"/>
          <note vol="42" pos="864" pan="0" len="18" key="65"/>
          <note vol="42" pos="870" pan="0" len="18" key="67"/>
          <note vol="42" pos="912" pan="0" len="66" key="60"/>
          <note vol="42" pos="918" pan="0" len="66" key="62"/>
          <note vol="42" pos="1008" pan="0" len="18" key="70"/>
          <note vol="42" pos="1014" pan="0" len="18" key="72"/>
          <note vol="42" pos="1056" pan="0" len="18" key="67"/>
          <note vol="42" pos="1062" pan="0" len="18" key="69"/>
          <note vol="42" pos="1104" pan="0" len="66" key="65"/>
          <note vol="42" pos="1110" pan="0" len="66" key="67"/>
          <note vol="42" pos="1200" pan="0" len="18" key="67"/>
          <note vol="42" pos="1206" pan="0" len="18" key="69"/>
          <note vol="42" pos="1248" pan="0" len="18" key="70"/>
          <note vol="42" pos="1248" pan="0" len="66" key="60"/>
          <note vol="42" pos="1248" pan="0" len="66" key="56"/>
          <note vol="42" pos="1254" pan="0" len="18" key="72"/>
          <note vol="42" pos="1254" pan="0" len="66" key="62"/>
          <note vol="42" pos="1254" pan="0" len="66" key="58"/>
          <note vol="42" pos="1296" pan="0" len="18" key="72"/>
          <note vol="42" pos="1302" pan="0" len="18" key="74"/>
          <note vol="42" pos="1344" pan="0" len="18" key="63"/>
          <note vol="42" pos="1350" pan="0" len="18" key="65"/>
          <note vol="42" pos="1392" pan="0" len="18" key="67"/>
          <note vol="42" pos="1398" pan="0" len="18" key="69"/>
          <note vol="42" pos="1440" pan="0" len="66" key="70"/>
          <note vol="42" pos="1446" pan="0" len="66" key="72"/>
          <note vol="42" pos="1488" pan="0" len="18" key="65"/>
          <note vol="42" pos="1494" pan="0" len="18" key="67"/>
        </pattern>
        <pattern name="BitInvader" pos="13824" muted="0" steps="16" type="1">
          <note vol="100" pos="0" pan="0" len="12" key="38"/>
          <note vol="100" pos="30" pan="0" len="12" key="74"/>
          <note vol="100" pos="48" pan="0" len="12" key="41"/>
          <note vol="100" pos="78" pan="0" len="12" key="69"/>
          <note vol="100" pos="96" pan="0" len="12" key="43"/>
          <note vol="100" pos="126" pan="0" len="12" key="77"/>
          <note vol="100" pos="144" pan="0" len="12" key="45"/>
          <note vol="100" pos="174" pan="0" len="12" key="76"/>
          <note vol="100" pos="192" pan="0" len="12" key="38"/>
          <note vol="100" pos="222" pan="0" len="12" key="72"/>
          <note vol="100" pos="240" pan="0" len="12" key="41"/>
          <note vol="100" pos="264" pan="0" len="12" key="62"/>
          <note vol="100" pos="270" pan="0" len="12" key="34"/>
          <note vol="100" pos="288" pan="0" len="12" key="62"/>
          <note vol="100" pos="288" pan="0" len="12" key="34"/>
          <note vol="100" pos="312" pan="0" len="12" key="34"/>
          <note vol="100" pos="336" pan="0" len="12" key="64"/>
          <note vol="100" pos="336" pan="0" len="12" key="36"/>
          <note vol="100" pos="360" pan="0" len="12" key="36"/>
          <note vol="100" pos="384" pan="0" len="12" key="38"/>
          <note vol="100" pos="414" pan="0" len="12" key="74"/>
          <note vol="100" pos="432" pan="0" len="12" key="41"/>
          <note vol="100" pos="462" pan="0" len="12" key="69"/>
          <note vol="100" pos="480" pan="0" len="12" key="43"/>
          <note vol="100" pos="510" pan="0" len="12" key="77"/>
          <note vol="100" pos="528" pan="0" len="12" key="41"/>
          <note vol="100" pos="558" pan="0" len="12" key="76"/>
          <note vol="100" pos="576" pan="0" len="12" key="38"/>
          <note vol="100" pos="606" pan="0" len="12" key="74"/>
          <note vol="100" pos="624" pan="0" len="12" key="36"/>
          <note vol="100" pos="648" pan="0" len="12" key="64"/>
          <note vol="100" pos="648" pan="0" len="12" key="43"/>
          <note vol="100" pos="672" pan="0" len="12" key="67"/>
          <note vol="100" pos="672" pan="0" len="12" key="36"/>
          <note vol="100" pos="702" pan="0" len="12" key="43"/>
          <note vol="100" pos="720" pan="0" len="12" key="67"/>
          <note vol="100" pos="720" pan="0" len="12" key="36"/>
          <note vol="100" pos="744" pan="0" len="12" key="39"/>
        </pattern>
        <pattern name="BitInvader" pos="16128" muted="0" steps="16" type="1">
          <note vol="100" pos="0" pan="0" len="24" key="36"/>
          <note vol="100" pos="24" pan="0" len="24" key="84"/>
          <note vol="100" pos="24" pan="0" len="24" key="36"/>
          <note vol="100" pos="48" pan="0" len="24" key="83"/>
          <note vol="100" pos="48" pan="0" len="24" key="36"/>
          <note vol="100" pos="72" pan="0" len="24" key="36"/>
          <note vol="100" pos="96" pan="0" len="24" key="79"/>
          <note vol="100" pos="96" pan="0" len="24" key="36"/>
          <note vol="100" pos="120" pan="0" len="24" key="36"/>
          <note vol="100" pos="144" pan="0" len="24" key="36"/>
          <note vol="100" pos="168" pan="0" len="24" key="74"/>
          <note vol="100" pos="168" pan="0" len="24" key="36"/>
          <note vol="100" pos="192" pan="0" len="24" key="75"/>
          <note vol="100" pos="192" pan="0" len="24" key="36"/>
          <note vol="100" pos="216" pan="0" len="24" key="36"/>
          <note vol="100" pos="240" pan="0" len="24" key="36"/>
          <note vol="100" pos="264" pan="0" len="24" key="36"/>
          <note vol="100" pos="288" pan="0" len="24" key="79"/>
          <note vol="100" pos="288" pan="0" len="24" key="36"/>
          <note vol="100" pos="312" pan="0" len="24" key="36"/>
          <note vol="100" pos="336" pan="0" len="24" key="36"/>
          <note vol="100" pos="360" pan="0" len="24" key="36"/>
          <note vol="100" pos="384" pan="0" len="24" key="43"/>
          <note vol="100" pos="408" pan="0" len="24" key="43"/>
          <note vol="100" pos="432" pan="0" len="24" key="84"/>
          <note vol="100" pos="432" pan="0" len="24" key="43"/>
          <note vol="100" pos="456" pan="0" len="24" key="83"/>
          <note vol="100" pos="456" pan="0" len="24" key="43"/>
          <note vol="100" pos="480" pan="0" len="24" key="43"/>
          <note vol="100" pos="504" pan="0" len="24" key="79"/>
          <note vol="100" pos="504" pan="0" len="24" key="43"/>
          <note vol="100" pos="528" pan="0" len="24" key="43"/>
          <note vol="100" pos="552" pan="0" len="24" key="74"/>
          <note vol="100" pos="552" pan="0" len="24" key="43"/>
          <note vol="100" pos="576" pan="0" len="24" key="75"/>
          <note vol="100" pos="576" pan="0" len="24" key="43"/>
          <note vol="100" pos="600" pan="0" len="24" key="43"/>
          <note vol="100" pos="624" pan="0" len="24" key="79"/>
          <note vol="100" pos="624" pan="0" len="24" key="43"/>
          <note vol="100" pos="648" pan="0" len="24" key="43"/>
          <note vol="100" pos="672" pan="0" len="24" key="83"/>
          <note vol="100" pos="672" pan="0" len="24" key="43"/>
          <note vol="100" pos="696" pan="0" len="24" key="43"/>
          <note vol="100" pos="720" pan="0" len="24" key="87"/>
          <note vol="100" pos="720" pan="0" len="24" key="43"/>
          <note vol="100" pos="744" pan="0" len="24" key="43"/>
          <note vol="100" pos="768" pan="0" len="24" key="44"/>
          <note vol="100" pos="792" pan="0" len="24" key="84"/>
          <note vol="100" pos="792" pan="0" len="24" key="44"/>
          <note vol="100" pos="816" pan="0" len="24" key="83"/>
          <note vol="100" pos="816" pan="0" len="24" key="44"/>
          <note vol="100" pos="840" pan="0" len="24" key="44"/>
          <note vol="100" pos="864" pan="0" len="24" key="79"/>
          <note vol="100" pos="864" pan="0" len="24" key="44"/>
          <note vol="100" pos="888" pan="0" len="24" key="44"/>
          <note vol="100" pos="912" pan="0" len="24" key="44"/>
          <note vol="100" pos="936" pan="0" len="24" key="74"/>
          <note vol="100" pos="936" pan="0" len="24" key="44"/>
          <note vol="100" pos="960" pan="0" len="24" key="75"/>
          <note vol="100" pos="960" pan="0" len="24" key="44"/>
          <note vol="100" pos="984" pan="0" len="24" key="44"/>
          <note vol="100" pos="1008" pan="0" len="24" key="44"/>
          <note vol="100" pos="1032" pan="0" len="24" key="44"/>
          <note vol="100" pos="1056" pan="0" len="24" key="79"/>
          <note vol="100" pos="1056" pan="0" len="24" key="44"/>
          <note vol="100" pos="1080" pan="0" len="24" key="37"/>
          <note vol="100" pos="1104" pan="0" len="24" key="84"/>
          <note vol="100" pos="1104" pan="0" len="24" key="37"/>
          <note vol="100" pos="1128" pan="0" len="24" key="83"/>
          <note vol="100" pos="1128" pan="0" len="24" key="37"/>
          <note vol="100" pos="1152" pan="0" len="24" key="37"/>
          <note vol="100" pos="1176" pan="0" len="24" key="79"/>
          <note vol="100" pos="1176" pan="0" len="24" key="37"/>
          <note vol="100" pos="1200" pan="0" len="24" key="37"/>
          <note vol="100" pos="1224" pan="0" len="24" key="37"/>
          <note vol="100" pos="1248" pan="0" len="24" key="74"/>
          <note vol="100" pos="1248" pan="0" len="24" key="37"/>
          <note vol="100" pos="1272" pan="0" len="24" key="75"/>
          <note vol="100" pos="1272" pan="0" len="24" key="37"/>
          <note vol="100" pos="1296" pan="0" len="24" key="47"/>
          <note vol="100" pos="1320" pan="0" len="24" key="47"/>
          <note vol="100" pos="1344" pan="0" len="24" key="47"/>
          <note vol="100" pos="1368" pan="0" len="24" key="79"/>
          <note vol="100" pos="1368" pan="0" len="24" key="47"/>
          <note vol="100" pos="1392" pan="0" len="24" key="47"/>
          <note vol="100" pos="1416" pan="0" len="24" key="47"/>
          <note vol="100" pos="1440" pan="0" len="24" key="83"/>
          <note vol="100" pos="1440" pan="0" len="24" key="47"/>
          <note vol="100" pos="1464" pan="0" len="24" key="84"/>
          <note vol="100" pos="1464" pan="0" len="24" key="47"/>
          <note vol="100" pos="1488" pan="0" len="24" key="83"/>
          <note vol="100" pos="1488" pan="0" len="24" key="47"/>
          <note vol="100" pos="1512" pan="0" len="24" key="47"/>
        </pattern>
        <pattern name="BitInvader" pos="3840" muted="0" steps="16" type="1">
          <note vol="17" pos="0" pan="0" len="12" key="50"/>
          <note vol="17" pos="12" pan="0" len="12" key="69"/>
          <note vol="19" pos="24" pan="0" len="12" key="53"/>
          <note vol="21" pos="36" pan="0" len="12" key="67"/>
          <note vol="23" pos="48" pan="0" len="12" key="57"/>
          <note vol="21" pos="60" pan="0" len="12" key="62"/>
          <note vol="21" pos="72" pan="0" len="12" key="50"/>
          <note vol="25" pos="84" pan="0" len="12" key="65"/>
          <note vol="25" pos="96" pan="0" len="12" key="53"/>
          <note vol="21" pos="108" pan="0" len="12" key="57"/>
          <note vol="21" pos="120" pan="0" len="12" key="62"/>
          <note vol="34" pos="132" pan="0" len="12" key="69"/>
          <note vol="31" pos="144" pan="0" len="12" key="50"/>
          <note vol="23" pos="156" pan="0" len="12" key="69"/>
          <note vol="21" pos="168" pan="0" len="12" key="53"/>
          <note vol="27" pos="180" pan="0" len="12" key="67"/>
          <note vol="17" pos="192" pan="0" len="12" key="50"/>
          <note vol="17" pos="204" pan="0" len="12" key="69"/>
          <note vol="19" pos="216" pan="0" len="12" key="53"/>
          <note vol="21" pos="228" pan="0" len="12" key="67"/>
          <note vol="23" pos="240" pan="0" len="12" key="57"/>
          <note vol="21" pos="252" pan="0" len="12" key="62"/>
          <note vol="21" pos="264" pan="0" len="12" key="50"/>
          <note vol="25" pos="276" pan="0" len="12" key="65"/>
          <note vol="25" pos="288" pan="0" len="12" key="53"/>
          <note vol="21" pos="300" pan="0" len="12" key="57"/>
          <note vol="21" pos="312" pan="0" len="12" key="62"/>
          <note vol="34" pos="324" pan="0" len="12" key="69"/>
          <note vol="31" pos="336" pan="0" len="12" key="50"/>
          <note vol="23" pos="348" pan="0" len="12" key="69"/>
          <note vol="21" pos="360" pan="0" len="12" key="53"/>
          <note vol="27" pos="372" pan="0" len="12" key="67"/>
          <note vol="17" pos="384" pan="0" len="12" key="50"/>
          <note vol="17" pos="396" pan="0" len="12" key="69"/>
          <note vol="19" pos="408" pan="0" len="12" key="53"/>
          <note vol="21" pos="420" pan="0" len="12" key="67"/>
          <note vol="23" pos="432" pan="0" len="12" key="57"/>
          <note vol="21" pos="444" pan="0" len="12" key="62"/>
          <note vol="21" pos="456" pan="0" len="12" key="50"/>
          <note vol="25" pos="468" pan="0" len="12" key="65"/>
          <note vol="25" pos="480" pan="0" len="12" key="53"/>
          <note vol="21" pos="492" pan="0" len="12" key="57"/>
          <note vol="21" pos="504" pan="0" len="12" key="62"/>
          <note vol="34" pos="516" pan="0" len="12" key="69"/>
          <note vol="31" pos="528" pan="0" len="12" key="50"/>
          <note vol="23" pos="540" pan="0" len="12" key="69"/>
          <note vol="21" pos="552" pan="0" len="12" key="53"/>
          <note vol="27" pos="564" pan="0" len="12" key="67"/>
          <note vol="17" pos="576" pan="0" len="12" key="50"/>
          <note vol="17" pos="588" pan="0" len="12" key="69"/>
          <note vol="19" pos="600" pan="0" len="12" key="53"/>
          <note vol="21" pos="612" pan="0" len="12" key="67"/>
          <note vol="23" pos="624" pan="0" len="12" key="57"/>
          <note vol="21" pos="636" pan="0" len="12" key="62"/>
          <note vol="21" pos="648" pan="0" len="12" key="50"/>
          <note vol="25" pos="660" pan="0" len="12" key="65"/>
          <note vol="25" pos="672" pan="0" len="12" key="53"/>
          <note vol="21" pos="684" pan="0" len="12" key="57"/>
          <note vol="21" pos="696" pan="0" len="12" key="62"/>
          <note vol="34" pos="708" pan="0" len="12" key="69"/>
          <note vol="31" pos="720" pan="0" len="12" key="50"/>
          <note vol="23" pos="732" pan="0" len="12" key="69"/>
          <note vol="21" pos="744" pan="0" len="12" key="53"/>
          <note vol="27" pos="756" pan="0" len="12" key="67"/>
        </pattern>
        <pattern name="" pos="9984" muted="0" steps="16" type="1">
          <note vol="17" pos="0" pan="0" len="12" key="50"/>
          <note vol="17" pos="12" pan="0" len="12" key="69"/>
          <note vol="19" pos="24" pan="0" len="12" key="53"/>
          <note vol="21" pos="36" pan="0" len="12" key="67"/>
          <note vol="23" pos="48" pan="0" len="12" key="57"/>
          <note vol="21" pos="60" pan="0" len="12" key="62"/>
          <note vol="21" pos="72" pan="0" len="12" key="50"/>
          <note vol="25" pos="84" pan="0" len="12" key="65"/>
          <note vol="25" pos="96" pan="0" len="12" key="53"/>
          <note vol="21" pos="120" pan="0" len="12" key="62"/>
          <note vol="31" pos="144" pan="0" len="12" key="50"/>
          <note vol="21" pos="168" pan="0" len="12" key="53"/>
        </pattern>
        <pattern name="BitInvader" pos="3072" muted="0" steps="16" type="1">
          <note vol="21" pos="0" pan="0" len="12" key="45"/>
          <note vol="21" pos="12" pan="0" len="12" key="69"/>
          <note vol="21" pos="24" pan="0" len="12" key="45"/>
          <note vol="21" pos="36" pan="0" len="12" key="74"/>
          <note vol="21" pos="48" pan="0" len="12" key="45"/>
          <note vol="21" pos="60" pan="0" len="12" key="77"/>
          <note vol="21" pos="72" pan="0" len="12" key="45"/>
          <note vol="21" pos="84" pan="0" len="12" key="81"/>
          <note vol="21" pos="108" pan="0" len="12" key="77"/>
          <note vol="21" pos="120" pan="0" len="12" key="45"/>
          <note vol="21" pos="132" pan="0" len="12" key="74"/>
          <note vol="21" pos="144" pan="0" len="12" key="69"/>
          <note vol="21" pos="144" pan="0" len="12" key="45"/>
          <note vol="21" pos="168" pan="0" len="12" key="65"/>
          <note vol="21" pos="168" pan="0" len="12" key="45"/>
          <note vol="21" pos="192" pan="0" len="12" key="41"/>
          <note vol="21" pos="204" pan="0" len="12" key="69"/>
          <note vol="21" pos="216" pan="0" len="12" key="41"/>
          <note vol="21" pos="228" pan="0" len="12" key="74"/>
          <note vol="21" pos="240" pan="0" len="12" key="41"/>
          <note vol="21" pos="252" pan="0" len="12" key="76"/>
          <note vol="21" pos="264" pan="0" len="12" key="41"/>
          <note vol="21" pos="276" pan="0" len="12" key="81"/>
          <note vol="21" pos="288" pan="0" len="12" key="82"/>
          <note vol="21" pos="312" pan="0" len="12" key="86"/>
          <note vol="21" pos="312" pan="0" len="12" key="41"/>
          <note vol="21" pos="336" pan="0" len="12" key="88"/>
          <note vol="21" pos="360" pan="0" len="12" key="89"/>
          <note vol="21" pos="360" pan="0" len="12" key="41"/>
          <note vol="21" pos="384" pan="0" len="12" key="38"/>
          <note vol="21" pos="396" pan="0" len="12" key="86"/>
          <note vol="21" pos="408" pan="0" len="12" key="38"/>
          <note vol="21" pos="420" pan="0" len="12" key="83"/>
          <note vol="21" pos="432" pan="0" len="12" key="38"/>
          <note vol="21" pos="444" pan="0" len="12" key="80"/>
          <note vol="21" pos="456" pan="0" len="12" key="38"/>
          <note vol="21" pos="468" pan="0" len="12" key="77"/>
          <note vol="21" pos="480" pan="0" len="12" key="41"/>
          <note vol="21" pos="492" pan="0" len="12" key="76"/>
          <note vol="21" pos="504" pan="0" len="12" key="41"/>
          <note vol="21" pos="516" pan="0" len="12" key="74"/>
          <note vol="21" pos="528" pan="0" len="12" key="77"/>
          <note vol="21" pos="528" pan="0" len="12" key="44"/>
          <note vol="21" pos="552" pan="0" len="12" key="76"/>
          <note vol="21" pos="552" pan="0" len="12" key="44"/>
          <note vol="21" pos="576" pan="0" len="12" key="46"/>
          <note vol="21" pos="588" pan="0" len="12" key="74"/>
          <note vol="21" pos="600" pan="0" len="12" key="46"/>
          <note vol="21" pos="612" pan="0" len="12" key="70"/>
          <note vol="21" pos="624" pan="0" len="12" key="46"/>
          <note vol="21" pos="636" pan="0" len="12" key="76"/>
          <note vol="21" pos="648" pan="0" len="12" key="77"/>
          <note vol="21" pos="648" pan="0" len="12" key="46"/>
          <note vol="21" pos="672" pan="0" len="12" key="76"/>
          <note vol="21" pos="696" pan="0" len="12" key="73"/>
          <note vol="21" pos="696" pan="0" len="12" key="49"/>
          <note vol="21" pos="720" pan="0" len="12" key="69"/>
          <note vol="21" pos="720" pan="0" len="12" key="49"/>
          <note vol="21" pos="732" pan="0" len="12" key="76"/>
          <note vol="21" pos="744" pan="0" len="12" key="49"/>
        </pattern>
      </track>
      <track name="Timbres Of Heaven GM_GS_XG_SFX V 3" solo="0" muted="0" type="0">
        <instrumenttrack pitchrange="1" vol="101.1" usemasterpitch="1" pitch="0" basenote="69" pan="0" fxch="0">
          <instrument name="sf2player">
            <sf2player chorusLevel="2" patch="90" reverbDamping="0" reverbRoomSize="0.2" bank="0" chorusSpeed="0.3" gain="2.73" src="soundfonts/Timbres Of Heaven GM_GS_XG_SFX V 3.4 Final.sf2" reverbOn="0" reverbWidth="0.5" chorusOn="0" chorusNum="3" chorusDepth="8" reverbLevel="0.9"/>
          </instrument>
          <eldata fres="0.5" fcut="14000" ftype="0" fwet="0">
            <elvol sustain="0.5" ctlenvamt="0" att="0" lamt="0" amt="0" lshp="0" lspd_denominator="4" x100="0" lspd_syncmode="0" lpdel="0" lspd_numerator="4" lspd="0.1" pdel="0" hold="0.5" userwavefile="" rel="0.1" dec="0.5" latt="0"/>
            <elcut sustain="0.5" ctlenvamt="0" att="0" lamt="0" amt="0" lshp="0" lspd_denominator="4" x100="0" lspd_syncmode="0" lpdel="0" lspd_numerator="4" lspd="0.1" pdel="0" hold="0.5" userwavefile="" rel="0.1" dec="0.5" latt="0"/>
            <elres sustain="0.5" ctlenvamt="0" att="0" lamt="0" amt="0" lshp="0" lspd_denominator="4" x100="0" lspd_syncmode="0" lpdel="0" lspd_numerator="4" lspd="0.1" pdel="0" hold="0.5" userwavefile="" rel="0.1" dec="0.5" latt="0"/>
          </eldata>
          <chordcreator chordrange="1" chord="0" chord-enabled="0"/>
          <arpeggiator arpgate="100" arp-enabled="0" arpcycle="0" arptime_denominator="4" arprange="1" arptime_numerator="4" arpdir="0" arpmiss="0" arpmode="0" arp="0" arptime_syncmode="0" arpskip="0" arptime="200"/>
          <midiport outputprogram="1" fixedinputvelocity="-1" outputcontroller="0" readable="0" writable="0" fixedoutputnote="-1" basevelocity="63" fixedoutputvelocity="-1" inputcontroller="0" outputchannel="1" inputchannel="0"/>
          <fxchain enabled="0" numofeffects="0"/>
        </instrumenttrack>
        <pattern name="Timbres Of Heaven GM_GS_XG_SFX V 3" pos="0" muted="0" steps="16" type="0"/>
        <pattern name="Timbres Of Heaven GM_GS_XG_SFX V 3" pos="6144" muted="0" steps="16" type="1">
          <note vol="127" pos="0" pan="0" len="48" key="69"/>
          <note vol="100" pos="0" pan="0" len="48" key="38"/>
          <note vol="127" pos="48" pan="0" len="48" key="69"/>
          <note vol="100" pos="48" pan="0" len="48" key="33"/>
          <note vol="100" pos="96" pan="0" len="48" key="67"/>
          <note vol="100" pos="96" pan="0" len="48" key="38"/>
          <note vol="100" pos="144" pan="0" len="96" key="62"/>
          <note vol="100" pos="144" pan="0" len="48" key="33"/>
          <note vol="100" pos="192" pan="0" len="48" key="38"/>
          <note vol="100" pos="240" pan="0" len="48" key="74"/>
          <note vol="100" pos="240" pan="0" len="48" key="33"/>
          <note vol="100" pos="288" pan="0" len="48" key="72"/>
          <note vol="100" pos="288" pan="0" len="48" key="38"/>
          <note vol="100" pos="336" pan="0" len="96" key="67"/>
          <note vol="100" pos="336" pan="0" len="48" key="33"/>
          <note vol="100" pos="384" pan="0" len="48" key="38"/>
          <note vol="100" pos="432" pan="0" len="48" key="69"/>
          <note vol="100" pos="432" pan="0" len="48" key="33"/>
          <note vol="100" pos="480" pan="0" len="48" key="67"/>
          <note vol="100" pos="480" pan="0" len="48" key="41"/>
          <note vol="100" pos="528" pan="0" len="96" key="62"/>
          <note vol="100" pos="528" pan="0" len="48" key="36"/>
          <note vol="100" pos="576" pan="0" len="96" key="74"/>
          <note vol="100" pos="576" pan="0" len="48" key="46"/>
          <note vol="100" pos="624" pan="0" len="48" key="72"/>
          <note vol="100" pos="624" pan="0" len="48" key="41"/>
          <note vol="100" pos="672" pan="0" len="96" key="67"/>
          <note vol="127" pos="672" pan="0" len="96" key="57"/>
          <note vol="100" pos="672" pan="0" len="48" key="46"/>
          <note vol="100" pos="720" pan="0" len="48" key="41"/>
          <note vol="127" pos="768" pan="0" len="48" key="69"/>
          <note vol="100" pos="768" pan="0" len="48" key="38"/>
          <note vol="127" pos="816" pan="0" len="48" key="69"/>
          <note vol="100" pos="816" pan="0" len="48" key="33"/>
          <note vol="100" pos="864" pan="0" len="48" key="67"/>
          <note vol="100" pos="864" pan="0" len="48" key="38"/>
          <note vol="100" pos="912" pan="0" len="96" key="62"/>
          <note vol="100" pos="912" pan="0" len="48" key="33"/>
          <note vol="100" pos="960" pan="0" len="48" key="38"/>
          <note vol="127" pos="1008" pan="0" len="48" key="72"/>
          <note vol="100" pos="1008" pan="0" len="48" key="33"/>
          <note vol="127" pos="1056" pan="0" len="48" key="69"/>
          <note vol="100" pos="1056" pan="0" len="48" key="41"/>
          <note vol="100" pos="1104" pan="0" len="96" key="67"/>
          <note vol="100" pos="1104" pan="0" len="48" key="36"/>
          <note vol="100" pos="1152" pan="0" len="48" key="43"/>
          <note vol="127" pos="1200" pan="0" len="48" key="69"/>
          <note vol="100" pos="1200" pan="0" len="48" key="41"/>
          <note vol="127" pos="1248" pan="0" len="48" key="72"/>
          <note vol="127" pos="1248" pan="0" len="96" key="62"/>
          <note vol="127" pos="1248" pan="0" len="96" key="58"/>
          <note vol="100" pos="1248" pan="0" len="48" key="38"/>
          <note vol="127" pos="1296" pan="0" len="48" key="74"/>
          <note vol="100" pos="1296" pan="0" len="48" key="34"/>
          <note vol="127" pos="1344" pan="0" len="48" key="65"/>
          <note vol="100" pos="1344" pan="0" len="48" key="46"/>
          <note vol="127" pos="1392" pan="0" len="48" key="69"/>
          <note vol="100" pos="1392" pan="0" len="48" key="41"/>
          <note vol="127" pos="1440" pan="0" len="96" key="72"/>
          <note vol="100" pos="1440" pan="0" len="48" key="36"/>
          <note vol="127" pos="1488" pan="0" len="48" key="67"/>
          <note vol="100" pos="1488" pan="0" len="48" key="31"/>
        </pattern>
        <pattern name="" pos="7680" muted="0" steps="16" type="1">
          <note vol="100" pos="0" pan="0" len="18" key="41"/>
          <note vol="100" pos="24" pan="0" len="12" key="41"/>
          <note vol="100" pos="72" pan="0" len="1" key="41"/>
          <note vol="100" pos="96" pan="0" len="18" key="41"/>
          <note vol="100" pos="120" pan="0" len="12" key="41"/>
          <note vol="100" pos="168" pan="0" len="1" key="41"/>
          <note vol="100" pos="192" pan="0" len="18" key="41"/>
          <note vol="100" pos="216" pan="0" len="12" key="41"/>
          <note vol="100" pos="264" pan="0" len="1" key="41"/>
          <note vol="100" pos="288" pan="0" len="18" key="41"/>
          <note vol="100" pos="312" pan="0" len="12" key="41"/>
          <note vol="100" pos="336" pan="0" len="24" key="44"/>
          <note vol="100" pos="360" pan="0" len="24" key="45"/>
          <note vol="100" pos="384" pan="0" len="18" key="41"/>
          <note vol="100" pos="408" pan="0" len="12" key="41"/>
          <note vol="100" pos="456" pan="0" len="1" key="41"/>
          <note vol="100" pos="480" pan="0" len="18" key="41"/>
          <note vol="100" pos="504" pan="0" len="12" key="41"/>
          <note vol="100" pos="552" pan="0" len="1" key="41"/>
          <note vol="100" pos="576" pan="0" len="18" key="41"/>
          <note vol="100" pos="600" pan="0" len="12" key="41"/>
          <note vol="100" pos="624" pan="0" len="24" key="37"/>
          <note vol="100" pos="648" pan="0" len="1" key="41"/>
          <note vol="100" pos="672" pan="0" len="24" key="46"/>
          <note vol="100" pos="696" pan="0" len="6" key="65"/>
          <note vol="100" pos="696" pan="0" len="12" key="41"/>
          <note vol="100" pos="720" pan="0" len="1" key="70"/>
          <note vol="100" pos="720" pan="0" len="24" key="47"/>
          <note vol="100" pos="726" pan="0" len="1" key="72"/>
          <note vol="100" pos="732" pan="0" len="1" key="73"/>
          <note vol="100" pos="738" pan="0" len="1" key="75"/>
          <note vol="100" pos="744" pan="0" len="1" key="77"/>
          <note vol="100" pos="744" pan="0" len="12" key="36"/>
          <note vol="100" pos="750" pan="0" len="1" key="79"/>
          <note vol="100" pos="756" pan="0" len="1" key="80"/>
          <note vol="100" pos="762" pan="0" len="6" key="89"/>
          <note vol="100" pos="792" pan="0" len="18" key="29"/>
          <note vol="100" pos="840" pan="0" len="18" key="32"/>
          <note vol="100" pos="888" pan="0" len="18" key="36"/>
          <note vol="100" pos="936" pan="0" len="18" key="37"/>
          <note vol="100" pos="984" pan="0" len="18" key="39"/>
          <note vol="100" pos="1032" pan="0" len="18" key="41"/>
          <note vol="100" pos="1056" pan="0" len="24" key="44"/>
          <note vol="100" pos="1080" pan="0" len="24" key="48"/>
          <note vol="100" pos="1104" pan="0" len="24" key="49"/>
          <note vol="100" pos="1128" pan="0" len="24" key="52"/>
          <note vol="100" pos="1152" pan="0" len="18" key="41"/>
          <note vol="100" pos="1176" pan="0" len="18" key="29"/>
          <note vol="100" pos="1200" pan="0" len="18" key="41"/>
          <note vol="100" pos="1224" pan="0" len="18" key="29"/>
          <note vol="100" pos="1248" pan="0" len="18" key="29"/>
          <note vol="100" pos="1272" pan="0" len="18" key="29"/>
          <note vol="100" pos="1320" pan="0" len="18" key="29"/>
          <note vol="100" pos="1368" pan="0" len="18" key="34"/>
          <note vol="100" pos="1416" pan="0" len="18" key="34"/>
          <note vol="100" pos="1440" pan="0" len="48" key="37"/>
          <note vol="100" pos="1488" pan="0" len="48" key="40"/>
        </pattern>
      </track>
      <track name="Beat/Bassline 1" solo="0" muted="0" type="1">
        <bbtrack/>
        <bbtco name="" color="4286611584" pos="768" muted="0" usestyle="1" len="192"/>
      </track>
      <track name="Beat/Bassline 2" solo="0" muted="0" type="1">
        <bbtrack/>
        <bbtco name="" color="4286611584" pos="768" muted="0" usestyle="1" len="768"/>
      </track>
      <track name="FreeBoy" solo="0" muted="0" type="0">
        <instrumenttrack pitchrange="1" vol="100" usemasterpitch="1" pitch="0" basenote="57" pan="0" fxch="0">
          <instrument name="papu">
            <papu srw="0" sd="0" ch2wpd="2" so2vol="7" ch3so1="1" ch3so2="1" ch4ssl="0" ch4so1="0" Treble="-20" ch1vol="15" ch4so2="0" Bass="461" ch1vsd="0" ch2vol="15" st="4" ch2vsd="0" ch3vol="3" ch1ssl="0" ch4vol="15" ch1so1="0" sampleShape="AAAAAAAAAAAAAAAAAAAAAAAAAAAAAAAAAAAAQQAAAEEAAABBAAAAQQAAEEEAACBBAAAgQQAAAAAAAAAAAAAAAAAAAAAAAAAAAAAAAAAAAAAAAAAAAAAAAAAAAAAAADBBAAAwQQAAMEEAAEBBAABQQQAAAAAAAAAAAAAAAAAAAAA=" ch1so2="0" so1vol="7" ch1wpd="2" ch2ssl="0" srs="4" ch4vsd="0" ch2so1="1" ch2so2="1"/>
          </instrument>
          <eldata fres="0.5" fcut="14000" ftype="0" fwet="0">
            <elvol sustain="0.5" ctlenvamt="0" att="0" lamt="0" amt="0" lshp="0" lspd_denominator="4" x100="0" lspd_syncmode="0" lpdel="0" lspd_numerator="4" lspd="0.1" pdel="0" hold="0.5" userwavefile="" rel="0.1" dec="0.5" latt="0"/>
            <elcut sustain="0.5" ctlenvamt="0" att="0" lamt="0" amt="0" lshp="0" lspd_denominator="4" x100="0" lspd_syncmode="0" lpdel="0" lspd_numerator="4" lspd="0.1" pdel="0" hold="0.5" userwavefile="" rel="0.1" dec="0.5" latt="0"/>
            <elres sustain="0.5" ctlenvamt="0" att="0" lamt="0" amt="0" lshp="0" lspd_denominator="4" x100="0" lspd_syncmode="0" lpdel="0" lspd_numerator="4" lspd="0.1" pdel="0" hold="0.5" userwavefile="" rel="0.1" dec="0.5" latt="0"/>
          </eldata>
          <chordcreator chordrange="2" chord="0" chord-enabled="1"/>
          <arpeggiator arpgate="100" arp-enabled="0" arpcycle="0" arptime_denominator="4" arprange="1" arptime_numerator="4" arpdir="0" arpmiss="0" arpmode="0" arp="0" arptime_syncmode="0" arpskip="0" arptime="200"/>
          <midiport outputprogram="1" fixedinputvelocity="-1" outputcontroller="0" readable="0" writable="0" fixedoutputnote="-1" basevelocity="63" fixedoutputvelocity="-1" inputcontroller="0" outputchannel="1" inputchannel="0"/>
          <fxchain enabled="0" numofeffects="0"/>
        </instrumenttrack>
        <pattern name="FreeBoy" pos="1536" muted="0" steps="16" type="1">
          <note vol="100" pos="0" pan="0" len="48" key="50"/>
          <note vol="100" pos="24" pan="0" len="24" key="74"/>
          <note vol="100" pos="24" pan="0" len="24" key="69"/>
          <note vol="100" pos="24" pan="0" len="24" key="62"/>
          <note vol="100" pos="48" pan="0" len="48" key="45"/>
          <note vol="100" pos="72" pan="0" len="24" key="74"/>
          <note vol="100" pos="72" pan="0" len="24" key="69"/>
          <note vol="100" pos="72" pan="0" len="24" key="62"/>
          <note vol="100" pos="96" pan="0" len="48" key="50"/>
          <note vol="100" pos="120" pan="0" len="24" key="74"/>
          <note vol="100" pos="120" pan="0" len="24" key="69"/>
          <note vol="100" pos="120" pan="0" len="24" key="62"/>
          <note vol="100" pos="144" pan="0" len="48" key="45"/>
          <note vol="100" pos="168" pan="0" len="24" key="74"/>
          <note vol="100" pos="168" pan="0" len="24" key="69"/>
          <note vol="100" pos="168" pan="0" len="24" key="62"/>
          <note vol="100" pos="192" pan="0" len="48" key="50"/>
          <note vol="100" pos="216" pan="0" len="24" key="74"/>
          <note vol="100" pos="216" pan="0" len="24" key="69"/>
          <note vol="100" pos="216" pan="0" len="24" key="62"/>
          <note vol="100" pos="240" pan="0" len="48" key="45"/>
          <note vol="100" pos="264" pan="0" len="24" key="74"/>
          <note vol="100" pos="264" pan="0" len="24" key="69"/>
          <note vol="100" pos="264" pan="0" len="24" key="62"/>
          <note vol="100" pos="288" pan="0" len="48" key="50"/>
          <note vol="100" pos="312" pan="0" len="24" key="74"/>
          <note vol="100" pos="312" pan="0" len="24" key="69"/>
          <note vol="100" pos="312" pan="0" len="24" key="62"/>
          <note vol="100" pos="336" pan="0" len="48" key="45"/>
          <note vol="100" pos="360" pan="0" len="24" key="74"/>
          <note vol="100" pos="360" pan="0" len="24" key="69"/>
          <note vol="100" pos="360" pan="0" len="24" key="62"/>
          <note vol="100" pos="384" pan="0" len="48" key="50"/>
          <note vol="100" pos="408" pan="0" len="24" key="74"/>
          <note vol="100" pos="408" pan="0" len="24" key="69"/>
          <note vol="100" pos="408" pan="0" len="24" key="62"/>
          <note vol="100" pos="432" pan="0" len="48" key="45"/>
          <note vol="100" pos="456" pan="0" len="24" key="74"/>
          <note vol="100" pos="456" pan="0" len="24" key="69"/>
          <note vol="100" pos="456" pan="0" len="24" key="62"/>
          <note vol="100" pos="480" pan="0" len="48" key="53"/>
          <note vol="100" pos="504" pan="0" len="24" key="77"/>
          <note vol="100" pos="504" pan="0" len="24" key="72"/>
          <note vol="100" pos="504" pan="0" len="24" key="65"/>
          <note vol="100" pos="528" pan="0" len="48" key="48"/>
          <note vol="100" pos="552" pan="0" len="24" key="77"/>
          <note vol="100" pos="552" pan="0" len="24" key="72"/>
          <note vol="100" pos="552" pan="0" len="24" key="65"/>
          <note vol="100" pos="576" pan="0" len="48" key="58"/>
          <note vol="100" pos="600" pan="0" len="24" key="82"/>
          <note vol="100" pos="600" pan="0" len="24" key="77"/>
          <note vol="100" pos="600" pan="0" len="24" key="70"/>
          <note vol="100" pos="624" pan="0" len="48" key="53"/>
          <note vol="100" pos="648" pan="0" len="24" key="82"/>
          <note vol="100" pos="648" pan="0" len="24" key="77"/>
          <note vol="100" pos="648" pan="0" len="24" key="70"/>
          <note vol="100" pos="672" pan="0" len="48" key="58"/>
          <note vol="100" pos="696" pan="0" len="24" key="82"/>
          <note vol="100" pos="696" pan="0" len="24" key="77"/>
          <note vol="100" pos="696" pan="0" len="24" key="70"/>
          <note vol="100" pos="720" pan="0" len="48" key="53"/>
          <note vol="100" pos="744" pan="0" len="24" key="77"/>
          <note vol="100" pos="744" pan="0" len="24" key="72"/>
          <note vol="100" pos="744" pan="0" len="24" key="65"/>
        </pattern>
        <pattern name="FreeBoy" pos="2304" muted="0" steps="16" type="1">
          <note vol="100" pos="0" pan="0" len="48" key="50"/>
          <note vol="100" pos="24" pan="0" len="24" key="74"/>
          <note vol="100" pos="24" pan="0" len="24" key="69"/>
          <note vol="100" pos="24" pan="0" len="24" key="62"/>
          <note vol="100" pos="48" pan="0" len="48" key="45"/>
          <note vol="100" pos="72" pan="0" len="24" key="74"/>
          <note vol="100" pos="72" pan="0" len="24" key="69"/>
          <note vol="100" pos="72" pan="0" len="24" key="62"/>
          <note vol="100" pos="96" pan="0" len="48" key="50"/>
          <note vol="100" pos="120" pan="0" len="24" key="74"/>
          <note vol="100" pos="120" pan="0" len="24" key="69"/>
          <note vol="100" pos="120" pan="0" len="24" key="62"/>
          <note vol="100" pos="144" pan="0" len="48" key="45"/>
          <note vol="100" pos="168" pan="0" len="24" key="74"/>
          <note vol="100" pos="168" pan="0" len="24" key="69"/>
          <note vol="100" pos="168" pan="0" len="24" key="62"/>
          <note vol="100" pos="192" pan="0" len="48" key="50"/>
          <note vol="100" pos="216" pan="0" len="24" key="74"/>
          <note vol="100" pos="216" pan="0" len="24" key="69"/>
          <note vol="100" pos="216" pan="0" len="24" key="62"/>
          <note vol="100" pos="240" pan="0" len="48" key="45"/>
          <note vol="100" pos="264" pan="0" len="24" key="74"/>
          <note vol="100" pos="264" pan="0" len="24" key="69"/>
          <note vol="100" pos="264" pan="0" len="24" key="62"/>
          <note vol="100" pos="288" pan="0" len="48" key="53"/>
          <note vol="100" pos="312" pan="0" len="24" key="77"/>
          <note vol="100" pos="312" pan="0" len="24" key="72"/>
          <note vol="100" pos="312" pan="0" len="24" key="65"/>
          <note vol="100" pos="336" pan="0" len="48" key="48"/>
          <note vol="100" pos="360" pan="0" len="24" key="77"/>
          <note vol="100" pos="360" pan="0" len="24" key="72"/>
          <note vol="100" pos="360" pan="0" len="24" key="65"/>
          <note vol="100" pos="384" pan="0" len="48" key="55"/>
          <note vol="100" pos="408" pan="0" len="24" key="74"/>
          <note vol="100" pos="408" pan="0" len="24" key="69"/>
          <note vol="100" pos="408" pan="0" len="24" key="62"/>
          <note vol="100" pos="432" pan="0" len="48" key="53"/>
          <note vol="100" pos="456" pan="0" len="24" key="74"/>
          <note vol="100" pos="456" pan="0" len="24" key="69"/>
          <note vol="100" pos="456" pan="0" len="24" key="62"/>
          <note vol="100" pos="480" pan="0" len="48" key="50"/>
          <note vol="100" pos="504" pan="0" len="24" key="77"/>
          <note vol="100" pos="504" pan="0" len="24" key="70"/>
          <note vol="100" pos="504" pan="0" len="24" key="65"/>
          <note vol="100" pos="528" pan="0" len="48" key="46"/>
          <note vol="100" pos="552" pan="0" len="24" key="77"/>
          <note vol="100" pos="552" pan="0" len="24" key="70"/>
          <note vol="100" pos="552" pan="0" len="24" key="65"/>
          <note vol="100" pos="576" pan="0" len="48" key="58"/>
          <note vol="100" pos="600" pan="0" len="24" key="82"/>
          <note vol="100" pos="600" pan="0" len="24" key="77"/>
          <note vol="100" pos="600" pan="0" len="24" key="70"/>
          <note vol="100" pos="624" pan="0" len="48" key="53"/>
          <note vol="100" pos="648" pan="0" len="24" key="82"/>
          <note vol="100" pos="648" pan="0" len="24" key="77"/>
          <note vol="100" pos="648" pan="0" len="24" key="70"/>
          <note vol="100" pos="672" pan="0" len="48" key="48"/>
          <note vol="100" pos="696" pan="0" len="24" key="84"/>
          <note vol="100" pos="696" pan="0" len="24" key="79"/>
          <note vol="100" pos="696" pan="0" len="24" key="72"/>
          <note vol="100" pos="720" pan="0" len="48" key="43"/>
          <note vol="100" pos="744" pan="0" len="24" key="72"/>
          <note vol="100" pos="744" pan="0" len="24" key="67"/>
          <note vol="100" pos="744" pan="0" len="24" key="60"/>
        </pattern>
        <pattern name="theriff" pos="4608" muted="0" steps="16" type="1">
          <note vol="100" pos="0" pan="0" len="48" key="38"/>
          <note vol="100" pos="24" pan="0" len="12" key="62"/>
          <note vol="100" pos="24" pan="0" len="12" key="57"/>
          <note vol="100" pos="24" pan="0" len="12" key="50"/>
          <note vol="57" pos="36" pan="0" len="6" key="62"/>
          <note vol="57" pos="36" pan="0" len="6" key="57"/>
          <note vol="57" pos="36" pan="0" len="6" key="50"/>
          <note vol="31" pos="48" pan="0" len="6" key="62"/>
          <note vol="31" pos="48" pan="0" len="6" key="57"/>
          <note vol="31" pos="48" pan="0" len="6" key="50"/>
          <note vol="100" pos="48" pan="0" len="48" key="33"/>
          <note vol="12" pos="60" pan="0" len="6" key="62"/>
          <note vol="12" pos="60" pan="0" len="6" key="57"/>
          <note vol="12" pos="60" pan="0" len="6" key="50"/>
          <note vol="100" pos="72" pan="0" len="12" key="62"/>
          <note vol="100" pos="72" pan="0" len="12" key="57"/>
          <note vol="100" pos="72" pan="0" len="12" key="50"/>
          <note vol="57" pos="84" pan="0" len="6" key="62"/>
          <note vol="57" pos="84" pan="0" len="6" key="57"/>
          <note vol="57" pos="84" pan="0" len="6" key="50"/>
          <note vol="31" pos="96" pan="0" len="6" key="62"/>
          <note vol="31" pos="96" pan="0" len="6" key="57"/>
          <note vol="31" pos="96" pan="0" len="6" key="50"/>
          <note vol="100" pos="96" pan="0" len="48" key="38"/>
          <note vol="12" pos="108" pan="0" len="6" key="62"/>
          <note vol="12" pos="108" pan="0" len="6" key="57"/>
          <note vol="12" pos="108" pan="0" len="6" key="50"/>
          <note vol="100" pos="120" pan="0" len="12" key="62"/>
          <note vol="100" pos="120" pan="0" len="12" key="57"/>
          <note vol="100" pos="120" pan="0" len="12" key="50"/>
          <note vol="57" pos="132" pan="0" len="6" key="62"/>
          <note vol="57" pos="132" pan="0" len="6" key="57"/>
          <note vol="57" pos="132" pan="0" len="6" key="50"/>
          <note vol="31" pos="144" pan="0" len="6" key="62"/>
          <note vol="31" pos="144" pan="0" len="6" key="57"/>
          <note vol="31" pos="144" pan="0" len="6" key="50"/>
          <note vol="100" pos="144" pan="0" len="48" key="33"/>
          <note vol="12" pos="156" pan="0" len="6" key="62"/>
          <note vol="12" pos="156" pan="0" len="6" key="57"/>
          <note vol="12" pos="156" pan="0" len="6" key="50"/>
          <note vol="100" pos="168" pan="0" len="12" key="62"/>
          <note vol="100" pos="168" pan="0" len="12" key="57"/>
          <note vol="100" pos="168" pan="0" len="12" key="50"/>
          <note vol="57" pos="180" pan="0" len="6" key="62"/>
          <note vol="57" pos="180" pan="0" len="6" key="57"/>
          <note vol="57" pos="180" pan="0" len="6" key="50"/>
          <note vol="31" pos="192" pan="0" len="6" key="62"/>
          <note vol="31" pos="192" pan="0" len="6" key="57"/>
          <note vol="31" pos="192" pan="0" len="6" key="50"/>
          <note vol="100" pos="192" pan="0" len="48" key="38"/>
          <note vol="12" pos="204" pan="0" len="6" key="62"/>
          <note vol="12" pos="204" pan="0" len="6" key="57"/>
          <note vol="12" pos="204" pan="0" len="6" key="50"/>
          <note vol="100" pos="216" pan="0" len="12" key="62"/>
          <note vol="100" pos="216" pan="0" len="12" key="57"/>
          <note vol="100" pos="216" pan="0" len="12" key="50"/>
          <note vol="57" pos="228" pan="0" len="6" key="62"/>
          <note vol="57" pos="228" pan="0" len="6" key="57"/>
          <note vol="57" pos="228" pan="0" len="6" key="50"/>
          <note vol="31" pos="240" pan="0" len="6" key="62"/>
          <note vol="31" pos="240" pan="0" len="6" key="57"/>
          <note vol="31" pos="240" pan="0" len="6" key="50"/>
          <note vol="100" pos="240" pan="0" len="48" key="33"/>
          <note vol="12" pos="252" pan="0" len="6" key="62"/>
          <note vol="12" pos="252" pan="0" len="6" key="57"/>
          <note vol="12" pos="252" pan="0" len="6" key="50"/>
          <note vol="100" pos="264" pan="0" len="12" key="62"/>
          <note vol="100" pos="264" pan="0" len="12" key="57"/>
          <note vol="100" pos="264" pan="0" len="12" key="50"/>
          <note vol="57" pos="276" pan="0" len="6" key="62"/>
          <note vol="57" pos="276" pan="0" len="6" key="57"/>
          <note vol="57" pos="276" pan="0" len="6" key="50"/>
          <note vol="31" pos="288" pan="0" len="6" key="62"/>
          <note vol="31" pos="288" pan="0" len="6" key="57"/>
          <note vol="31" pos="288" pan="0" len="6" key="50"/>
          <note vol="100" pos="288" pan="0" len="48" key="38"/>
          <note vol="12" pos="300" pan="0" len="6" key="62"/>
          <note vol="12" pos="300" pan="0" len="6" key="57"/>
          <note vol="12" pos="300" pan="0" len="6" key="50"/>
          <note vol="100" pos="312" pan="0" len="12" key="62"/>
          <note vol="100" pos="312" pan="0" len="12" key="57"/>
          <note vol="100" pos="312" pan="0" len="12" key="50"/>
          <note vol="57" pos="324" pan="0" len="6" key="62"/>
          <note vol="57" pos="324" pan="0" len="6" key="57"/>
          <note vol="57" pos="324" pan="0" len="6" key="50"/>
          <note vol="31" pos="336" pan="0" len="6" key="62"/>
          <note vol="31" pos="336" pan="0" len="6" key="57"/>
          <note vol="31" pos="336" pan="0" len="6" key="50"/>
          <note vol="100" pos="336" pan="0" len="48" key="33"/>
          <note vol="12" pos="348" pan="0" len="6" key="62"/>
          <note vol="12" pos="348" pan="0" len="6" key="57"/>
          <note vol="12" pos="348" pan="0" len="6" key="50"/>
          <note vol="100" pos="360" pan="0" len="12" key="62"/>
          <note vol="100" pos="360" pan="0" len="12" key="57"/>
          <note vol="100" pos="360" pan="0" len="12" key="50"/>
          <note vol="57" pos="372" pan="0" len="6" key="62"/>
          <note vol="57" pos="372" pan="0" len="6" key="57"/>
          <note vol="57" pos="372" pan="0" len="6" key="50"/>
          <note vol="31" pos="384" pan="0" len="6" key="62"/>
          <note vol="31" pos="384" pan="0" len="6" key="57"/>
          <note vol="31" pos="384" pan="0" len="6" key="50"/>
          <note vol="100" pos="384" pan="0" len="48" key="38"/>
          <note vol="12" pos="396" pan="0" len="6" key="62"/>
          <note vol="12" pos="396" pan="0" len="6" key="57"/>
          <note vol="12" pos="396" pan="0" len="6" key="50"/>
          <note vol="100" pos="408" pan="0" len="12" key="62"/>
          <note vol="100" pos="408" pan="0" len="12" key="57"/>
          <note vol="100" pos="408" pan="0" len="12" key="50"/>
          <note vol="57" pos="420" pan="0" len="6" key="62"/>
          <note vol="57" pos="420" pan="0" len="6" key="57"/>
          <note vol="57" pos="420" pan="0" len="6" key="50"/>
          <note vol="31" pos="432" pan="0" len="6" key="62"/>
          <note vol="31" pos="432" pan="0" len="6" key="57"/>
          <note vol="31" pos="432" pan="0" len="6" key="50"/>
          <note vol="100" pos="432" pan="0" len="48" key="33"/>
          <note vol="12" pos="444" pan="0" len="6" key="62"/>
          <note vol="12" pos="444" pan="0" len="6" key="57"/>
          <note vol="12" pos="444" pan="0" len="6" key="50"/>
          <note vol="100" pos="456" pan="0" len="12" key="62"/>
          <note vol="100" pos="456" pan="0" len="12" key="57"/>
          <note vol="100" pos="456" pan="0" len="12" key="50"/>
          <note vol="57" pos="468" pan="0" len="6" key="62"/>
          <note vol="57" pos="468" pan="0" len="6" key="57"/>
          <note vol="57" pos="468" pan="0" len="6" key="50"/>
          <note vol="31" pos="480" pan="0" len="6" key="62"/>
          <note vol="31" pos="480" pan="0" len="6" key="57"/>
          <note vol="31" pos="480" pan="0" len="6" key="50"/>
          <note vol="100" pos="480" pan="0" len="48" key="41"/>
          <note vol="12" pos="492" pan="0" len="6" key="62"/>
          <note vol="12" pos="492" pan="0" len="6" key="57"/>
          <note vol="12" pos="492" pan="0" len="6" key="50"/>
          <note vol="100" pos="504" pan="0" len="12" key="65"/>
          <note vol="100" pos="504" pan="0" len="12" key="60"/>
          <note vol="100" pos="504" pan="0" len="12" key="53"/>
          <note vol="57" pos="516" pan="0" len="6" key="65"/>
          <note vol="57" pos="516" pan="0" len="6" key="60"/>
          <note vol="57" pos="516" pan="0" len="6" key="53"/>
          <note vol="31" pos="528" pan="0" len="6" key="65"/>
          <note vol="31" pos="528" pan="0" len="6" key="60"/>
          <note vol="31" pos="528" pan="0" len="6" key="53"/>
          <note vol="100" pos="528" pan="0" len="48" key="36"/>
          <note vol="12" pos="540" pan="0" len="6" key="65"/>
          <note vol="12" pos="540" pan="0" len="6" key="60"/>
          <note vol="12" pos="540" pan="0" len="6" key="53"/>
          <note vol="100" pos="552" pan="0" len="12" key="65"/>
          <note vol="100" pos="552" pan="0" len="12" key="60"/>
          <note vol="100" pos="552" pan="0" len="12" key="53"/>
          <note vol="57" pos="564" pan="0" len="6" key="65"/>
          <note vol="57" pos="564" pan="0" len="6" key="60"/>
          <note vol="57" pos="564" pan="0" len="6" key="53"/>
          <note vol="31" pos="576" pan="0" len="6" key="65"/>
          <note vol="31" pos="576" pan="0" len="6" key="60"/>
          <note vol="31" pos="576" pan="0" len="6" key="53"/>
          <note vol="100" pos="576" pan="0" len="48" key="46"/>
          <note vol="12" pos="588" pan="0" len="6" key="65"/>
          <note vol="12" pos="588" pan="0" len="6" key="60"/>
          <note vol="12" pos="588" pan="0" len="6" key="53"/>
          <note vol="100" pos="600" pan="0" len="12" key="70"/>
          <note vol="100" pos="600" pan="0" len="12" key="65"/>
          <note vol="100" pos="600" pan="0" len="12" key="58"/>
          <note vol="57" pos="612" pan="0" len="6" key="70"/>
          <note vol="57" pos="612" pan="0" len="6" key="65"/>
          <note vol="57" pos="612" pan="0" len="6" key="58"/>
          <note vol="23" pos="624" pan="0" len="6" key="70"/>
          <note vol="23" pos="624" pan="0" len="6" key="65"/>
          <note vol="23" pos="624" pan="0" len="6" key="58"/>
          <note vol="100" pos="624" pan="0" len="48" key="41"/>
          <note vol="12" pos="636" pan="0" len="6" key="70"/>
          <note vol="12" pos="636" pan="0" len="6" key="65"/>
          <note vol="12" pos="636" pan="0" len="6" key="58"/>
          <note vol="100" pos="648" pan="0" len="12" key="70"/>
          <note vol="100" pos="648" pan="0" len="12" key="65"/>
          <note vol="100" pos="648" pan="0" len="12" key="58"/>
          <note vol="57" pos="660" pan="0" len="6" key="70"/>
          <note vol="57" pos="660" pan="0" len="6" key="65"/>
          <note vol="57" pos="660" pan="0" len="6" key="58"/>
          <note vol="23" pos="672" pan="0" len="6" key="70"/>
          <note vol="23" pos="672" pan="0" len="6" key="65"/>
          <note vol="23" pos="672" pan="0" len="6" key="58"/>
          <note vol="100" pos="672" pan="0" len="48" key="46"/>
          <note vol="12" pos="684" pan="0" len="6" key="70"/>
          <note vol="12" pos="684" pan="0" len="6" key="65"/>
          <note vol="12" pos="684" pan="0" len="6" key="58"/>
          <note vol="100" pos="696" pan="0" len="12" key="70"/>
          <note vol="100" pos="696" pan="0" len="12" key="65"/>
          <note vol="100" pos="696" pan="0" len="12" key="58"/>
          <note vol="57" pos="708" pan="0" len="6" key="70"/>
          <note vol="57" pos="708" pan="0" len="6" key="65"/>
          <note vol="57" pos="708" pan="0" len="6" key="58"/>
          <note vol="23" pos="720" pan="0" len="6" key="70"/>
          <note vol="23" pos="720" pan="0" len="6" key="65"/>
          <note vol="23" pos="720" pan="0" len="6" key="58"/>
          <note vol="100" pos="720" pan="0" len="48" key="41"/>
          <note vol="12" pos="732" pan="0" len="6" key="70"/>
          <note vol="12" pos="732" pan="0" len="6" key="65"/>
          <note vol="12" pos="732" pan="0" len="6" key="58"/>
          <note vol="100" pos="744" pan="0" len="12" key="65"/>
          <note vol="100" pos="744" pan="0" len="12" key="60"/>
          <note vol="100" pos="744" pan="0" len="12" key="53"/>
          <note vol="57" pos="756" pan="0" len="6" key="65"/>
          <note vol="57" pos="756" pan="0" len="6" key="60"/>
          <note vol="57" pos="756" pan="0" len="6" key="53"/>
          <note vol="23" pos="768" pan="0" len="6" key="65"/>
          <note vol="23" pos="768" pan="0" len="6" key="60"/>
          <note vol="23" pos="768" pan="0" len="6" key="53"/>
          <note vol="100" pos="768" pan="0" len="48" key="38"/>
          <note vol="12" pos="780" pan="0" len="6" key="65"/>
          <note vol="12" pos="780" pan="0" len="6" key="60"/>
          <note vol="12" pos="780" pan="0" len="6" key="53"/>
          <note vol="100" pos="792" pan="0" len="12" key="62"/>
          <note vol="100" pos="792" pan="0" len="12" key="57"/>
          <note vol="100" pos="792" pan="0" len="12" key="50"/>
          <note vol="53" pos="804" pan="0" len="6" key="62"/>
          <note vol="53" pos="804" pan="0" len="6" key="57"/>
          <note vol="53" pos="804" pan="0" len="6" key="50"/>
          <note vol="31" pos="816" pan="0" len="6" key="62"/>
          <note vol="31" pos="816" pan="0" len="6" key="57"/>
          <note vol="31" pos="816" pan="0" len="6" key="50"/>
          <note vol="100" pos="816" pan="0" len="48" key="33"/>
          <note vol="14" pos="828" pan="0" len="6" key="62"/>
          <note vol="14" pos="828" pan="0" len="6" key="57"/>
          <note vol="14" pos="828" pan="0" len="6" key="50"/>
          <note vol="100" pos="840" pan="0" len="12" key="62"/>
          <note vol="100" pos="840" pan="0" len="12" key="57"/>
          <note vol="100" pos="840" pan="0" len="12" key="50"/>
          <note vol="53" pos="852" pan="0" len="6" key="62"/>
          <note vol="53" pos="852" pan="0" len="6" key="57"/>
          <note vol="53" pos="852" pan="0" len="6" key="50"/>
          <note vol="31" pos="864" pan="0" len="6" key="62"/>
          <note vol="31" pos="864" pan="0" len="6" key="57"/>
          <note vol="31" pos="864" pan="0" len="6" key="50"/>
          <note vol="100" pos="864" pan="0" len="48" key="38"/>
          <note vol="14" pos="876" pan="0" len="6" key="62"/>
          <note vol="14" pos="876" pan="0" len="6" key="57"/>
          <note vol="14" pos="876" pan="0" len="6" key="50"/>
          <note vol="100" pos="888" pan="0" len="12" key="62"/>
          <note vol="100" pos="888" pan="0" len="12" key="57"/>
          <note vol="100" pos="888" pan="0" len="12" key="50"/>
          <note vol="53" pos="900" pan="0" len="6" key="62"/>
          <note vol="53" pos="900" pan="0" len="6" key="57"/>
          <note vol="53" pos="900" pan="0" len="6" key="50"/>
          <note vol="31" pos="912" pan="0" len="6" key="62"/>
          <note vol="31" pos="912" pan="0" len="6" key="57"/>
          <note vol="31" pos="912" pan="0" len="6" key="50"/>
          <note vol="100" pos="912" pan="0" len="48" key="33"/>
          <note vol="14" pos="924" pan="0" len="6" key="62"/>
          <note vol="14" pos="924" pan="0" len="6" key="57"/>
          <note vol="14" pos="924" pan="0" len="6" key="50"/>
          <note vol="100" pos="936" pan="0" len="12" key="62"/>
          <note vol="100" pos="936" pan="0" len="12" key="57"/>
          <note vol="100" pos="936" pan="0" len="12" key="50"/>
          <note vol="53" pos="948" pan="0" len="6" key="62"/>
          <note vol="53" pos="948" pan="0" len="6" key="57"/>
          <note vol="53" pos="948" pan="0" len="6" key="50"/>
          <note vol="31" pos="960" pan="0" len="6" key="62"/>
          <note vol="31" pos="960" pan="0" len="6" key="57"/>
          <note vol="31" pos="960" pan="0" len="6" key="50"/>
          <note vol="100" pos="960" pan="0" len="48" key="38"/>
          <note vol="14" pos="972" pan="0" len="6" key="62"/>
          <note vol="14" pos="972" pan="0" len="6" key="57"/>
          <note vol="14" pos="972" pan="0" len="6" key="50"/>
          <note vol="100" pos="984" pan="0" len="12" key="62"/>
          <note vol="100" pos="984" pan="0" len="12" key="57"/>
          <note vol="100" pos="984" pan="0" len="12" key="50"/>
          <note vol="53" pos="996" pan="0" len="6" key="62"/>
          <note vol="53" pos="996" pan="0" len="6" key="57"/>
          <note vol="53" pos="996" pan="0" len="6" key="50"/>
          <note vol="31" pos="1008" pan="0" len="6" key="62"/>
          <note vol="31" pos="1008" pan="0" len="6" key="57"/>
          <note vol="31" pos="1008" pan="0" len="6" key="50"/>
          <note vol="100" pos="1008" pan="0" len="48" key="33"/>
          <note vol="14" pos="1020" pan="0" len="6" key="62"/>
          <note vol="14" pos="1020" pan="0" len="6" key="57"/>
          <note vol="14" pos="1020" pan="0" len="6" key="50"/>
          <note vol="100" pos="1032" pan="0" len="12" key="62"/>
          <note vol="100" pos="1032" pan="0" len="12" key="57"/>
          <note vol="100" pos="1032" pan="0" len="12" key="50"/>
          <note vol="53" pos="1044" pan="0" len="6" key="62"/>
          <note vol="53" pos="1044" pan="0" len="6" key="57"/>
          <note vol="53" pos="1044" pan="0" len="6" key="50"/>
          <note vol="31" pos="1056" pan="0" len="6" key="62"/>
          <note vol="31" pos="1056" pan="0" len="6" key="57"/>
          <note vol="31" pos="1056" pan="0" len="6" key="50"/>
          <note vol="100" pos="1056" pan="0" len="48" key="41"/>
          <note vol="14" pos="1068" pan="0" len="6" key="62"/>
          <note vol="14" pos="1068" pan="0" len="6" key="57"/>
          <note vol="14" pos="1068" pan="0" len="6" key="50"/>
          <note vol="100" pos="1080" pan="0" len="12" key="65"/>
          <note vol="100" pos="1080" pan="0" len="12" key="60"/>
          <note vol="100" pos="1080" pan="0" len="12" key="53"/>
          <note vol="53" pos="1092" pan="0" len="6" key="65"/>
          <note vol="53" pos="1092" pan="0" len="6" key="60"/>
          <note vol="53" pos="1092" pan="0" len="6" key="53"/>
          <note vol="31" pos="1104" pan="0" len="6" key="65"/>
          <note vol="31" pos="1104" pan="0" len="6" key="60"/>
          <note vol="31" pos="1104" pan="0" len="6" key="53"/>
          <note vol="100" pos="1104" pan="0" len="48" key="36"/>
          <note vol="14" pos="1116" pan="0" len="6" key="65"/>
          <note vol="14" pos="1116" pan="0" len="6" key="60"/>
          <note vol="14" pos="1116" pan="0" len="6" key="53"/>
          <note vol="100" pos="1128" pan="0" len="12" key="65"/>
          <note vol="100" pos="1128" pan="0" len="12" key="60"/>
          <note vol="100" pos="1128" pan="0" len="12" key="53"/>
          <note vol="53" pos="1140" pan="0" len="6" key="65"/>
          <note vol="53" pos="1140" pan="0" len="6" key="60"/>
          <note vol="53" pos="1140" pan="0" len="6" key="53"/>
          <note vol="31" pos="1152" pan="0" len="6" key="65"/>
          <note vol="31" pos="1152" pan="0" len="6" key="60"/>
          <note vol="31" pos="1152" pan="0" len="6" key="53"/>
          <note vol="100" pos="1152" pan="0" len="48" key="43"/>
          <note vol="14" pos="1164" pan="0" len="6" key="65"/>
          <note vol="14" pos="1164" pan="0" len="6" key="60"/>
          <note vol="14" pos="1164" pan="0" len="6" key="53"/>
          <note vol="100" pos="1176" pan="0" len="12" key="62"/>
          <note vol="100" pos="1176" pan="0" len="12" key="57"/>
          <note vol="100" pos="1176" pan="0" len="12" key="50"/>
          <note vol="53" pos="1188" pan="0" len="6" key="62"/>
          <note vol="53" pos="1188" pan="0" len="6" key="57"/>
          <note vol="53" pos="1188" pan="0" len="6" key="50"/>
          <note vol="31" pos="1200" pan="0" len="6" key="62"/>
          <note vol="31" pos="1200" pan="0" len="6" key="57"/>
          <note vol="31" pos="1200" pan="0" len="6" key="50"/>
          <note vol="100" pos="1200" pan="0" len="48" key="41"/>
          <note vol="14" pos="1212" pan="0" len="6" key="62"/>
          <note vol="14" pos="1212" pan="0" len="6" key="57"/>
          <note vol="14" pos="1212" pan="0" len="6" key="50"/>
          <note vol="100" pos="1224" pan="0" len="12" key="62"/>
          <note vol="100" pos="1224" pan="0" len="12" key="57"/>
          <note vol="100" pos="1224" pan="0" len="12" key="50"/>
          <note vol="53" pos="1236" pan="0" len="6" key="62"/>
          <note vol="53" pos="1236" pan="0" len="6" key="57"/>
          <note vol="53" pos="1236" pan="0" len="6" key="50"/>
          <note vol="31" pos="1248" pan="0" len="6" key="62"/>
          <note vol="31" pos="1248" pan="0" len="6" key="57"/>
          <note vol="31" pos="1248" pan="0" len="6" key="50"/>
          <note vol="100" pos="1248" pan="0" len="48" key="38"/>
          <note vol="14" pos="1260" pan="0" len="6" key="62"/>
          <note vol="14" pos="1260" pan="0" len="6" key="57"/>
          <note vol="14" pos="1260" pan="0" len="6" key="50"/>
          <note vol="100" pos="1272" pan="0" len="12" key="65"/>
          <note vol="100" pos="1272" pan="0" len="12" key="58"/>
          <note vol="100" pos="1272" pan="0" len="12" key="53"/>
          <note vol="53" pos="1284" pan="0" len="6" key="65"/>
          <note vol="53" pos="1284" pan="0" len="6" key="58"/>
          <note vol="53" pos="1284" pan="0" len="6" key="53"/>
          <note vol="31" pos="1296" pan="0" len="6" key="65"/>
          <note vol="31" pos="1296" pan="0" len="6" key="58"/>
          <note vol="31" pos="1296" pan="0" len="6" key="53"/>
          <note vol="100" pos="1296" pan="0" len="48" key="34"/>
          <note vol="14" pos="1308" pan="0" len="6" key="65"/>
          <note vol="14" pos="1308" pan="0" len="6" key="58"/>
          <note vol="14" pos="1308" pan="0" len="6" key="53"/>
          <note vol="100" pos="1320" pan="0" len="12" key="65"/>
          <note vol="100" pos="1320" pan="0" len="12" key="58"/>
          <note vol="100" pos="1320" pan="0" len="12" key="53"/>
          <note vol="53" pos="1332" pan="0" len="6" key="65"/>
          <note vol="53" pos="1332" pan="0" len="6" key="58"/>
          <note vol="53" pos="1332" pan="0" len="6" key="53"/>
          <note vol="31" pos="1344" pan="0" len="6" key="65"/>
          <note vol="31" pos="1344" pan="0" len="6" key="58"/>
          <note vol="31" pos="1344" pan="0" len="6" key="53"/>
          <note vol="100" pos="1344" pan="0" len="48" key="46"/>
          <note vol="14" pos="1356" pan="0" len="6" key="65"/>
          <note vol="14" pos="1356" pan="0" len="6" key="58"/>
          <note vol="14" pos="1356" pan="0" len="6" key="53"/>
          <note vol="100" pos="1368" pan="0" len="12" key="70"/>
          <note vol="100" pos="1368" pan="0" len="12" key="65"/>
          <note vol="100" pos="1368" pan="0" len="12" key="58"/>
          <note vol="53" pos="1380" pan="0" len="6" key="70"/>
          <note vol="53" pos="1380" pan="0" len="6" key="65"/>
          <note vol="53" pos="1380" pan="0" len="6" key="58"/>
          <note vol="31" pos="1392" pan="0" len="6" key="70"/>
          <note vol="31" pos="1392" pan="0" len="6" key="65"/>
          <note vol="31" pos="1392" pan="0" len="6" key="58"/>
          <note vol="100" pos="1392" pan="0" len="48" key="41"/>
          <note vol="14" pos="1404" pan="0" len="6" key="70"/>
          <note vol="14" pos="1404" pan="0" len="6" key="65"/>
          <note vol="14" pos="1404" pan="0" len="6" key="58"/>
          <note vol="100" pos="1416" pan="0" len="12" key="70"/>
          <note vol="100" pos="1416" pan="0" len="12" key="65"/>
          <note vol="100" pos="1416" pan="0" len="12" key="58"/>
          <note vol="53" pos="1428" pan="0" len="6" key="70"/>
          <note vol="53" pos="1428" pan="0" len="6" key="65"/>
          <note vol="53" pos="1428" pan="0" len="6" key="58"/>
          <note vol="31" pos="1440" pan="0" len="6" key="70"/>
          <note vol="31" pos="1440" pan="0" len="6" key="65"/>
          <note vol="31" pos="1440" pan="0" len="6" key="58"/>
          <note vol="100" pos="1440" pan="0" len="48" key="36"/>
          <note vol="14" pos="1452" pan="0" len="6" key="70"/>
          <note vol="14" pos="1452" pan="0" len="6" key="65"/>
          <note vol="14" pos="1452" pan="0" len="6" key="58"/>
          <note vol="100" pos="1464" pan="0" len="12" key="72"/>
          <note vol="100" pos="1464" pan="0" len="12" key="67"/>
          <note vol="100" pos="1464" pan="0" len="12" key="60"/>
          <note vol="53" pos="1476" pan="0" len="6" key="72"/>
          <note vol="53" pos="1476" pan="0" len="6" key="67"/>
          <note vol="53" pos="1476" pan="0" len="6" key="60"/>
          <note vol="31" pos="1488" pan="0" len="6" key="72"/>
          <note vol="31" pos="1488" pan="0" len="6" key="67"/>
          <note vol="31" pos="1488" pan="0" len="6" key="60"/>
          <note vol="100" pos="1488" pan="0" len="48" key="31"/>
          <note vol="14" pos="1500" pan="0" len="6" key="72"/>
          <note vol="14" pos="1500" pan="0" len="6" key="67"/>
          <note vol="14" pos="1500" pan="0" len="6" key="60"/>
          <note vol="100" pos="1512" pan="0" len="12" key="60"/>
          <note vol="100" pos="1512" pan="0" len="12" key="55"/>
          <note vol="100" pos="1512" pan="0" len="12" key="48"/>
          <note vol="53" pos="1524" pan="0" len="6" key="60"/>
          <note vol="53" pos="1524" pan="0" len="6" key="55"/>
          <note vol="53" pos="1524" pan="0" len="6" key="48"/>
          <note vol="31" pos="1536" pan="0" len="6" key="60"/>
          <note vol="31" pos="1536" pan="0" len="6" key="55"/>
          <note vol="31" pos="1536" pan="0" len="6" key="48"/>
          <note vol="14" pos="1548" pan="0" len="6" key="60"/>
          <note vol="14" pos="1548" pan="0" len="6" key="55"/>
          <note vol="14" pos="1548" pan="0" len="6" key="48"/>
        </pattern>
        <pattern name="FreeBoy" pos="6144" muted="0" steps="16" type="1">
          <note vol="100" pos="0" pan="0" len="18" key="26"/>
          <note vol="100" pos="18" pan="0" len="6" key="50"/>
          <note vol="100" pos="18" pan="0" len="6" key="38"/>
          <note vol="100" pos="24" pan="0" len="6" key="26"/>
          <note vol="100" pos="36" pan="0" len="6" key="26"/>
          <note vol="100" pos="42" pan="0" len="6" key="38"/>
          <note vol="100" pos="48" pan="0" len="18" key="21"/>
          <note vol="100" pos="66" pan="0" len="6" key="45"/>
          <note vol="100" pos="66" pan="0" len="6" key="33"/>
          <note vol="100" pos="72" pan="0" len="6" key="21"/>
          <note vol="100" pos="84" pan="0" len="6" key="21"/>
          <note vol="100" pos="90" pan="0" len="6" key="33"/>
          <note vol="100" pos="96" pan="0" len="18" key="26"/>
          <note vol="100" pos="114" pan="0" len="6" key="50"/>
          <note vol="100" pos="114" pan="0" len="6" key="38"/>
          <note vol="100" pos="120" pan="0" len="6" key="26"/>
          <note vol="100" pos="132" pan="0" len="6" key="26"/>
          <note vol="100" pos="138" pan="0" len="6" key="38"/>
          <note vol="100" pos="144" pan="0" len="18" key="21"/>
          <note vol="100" pos="162" pan="0" len="6" key="45"/>
          <note vol="100" pos="162" pan="0" len="6" key="33"/>
          <note vol="100" pos="168" pan="0" len="6" key="21"/>
          <note vol="100" pos="180" pan="0" len="6" key="21"/>
          <note vol="100" pos="186" pan="0" len="6" key="33"/>
          <note vol="100" pos="192" pan="0" len="18" key="26"/>
          <note vol="100" pos="210" pan="0" len="6" key="50"/>
          <note vol="100" pos="210" pan="0" len="6" key="38"/>
          <note vol="100" pos="216" pan="0" len="6" key="26"/>
          <note vol="100" pos="228" pan="0" len="6" key="26"/>
          <note vol="100" pos="234" pan="0" len="6" key="38"/>
          <note vol="100" pos="240" pan="0" len="18" key="21"/>
          <note vol="100" pos="258" pan="0" len="6" key="45"/>
          <note vol="100" pos="258" pan="0" len="6" key="33"/>
          <note vol="100" pos="264" pan="0" len="6" key="21"/>
          <note vol="100" pos="276" pan="0" len="6" key="21"/>
          <note vol="100" pos="282" pan="0" len="6" key="33"/>
          <note vol="100" pos="288" pan="0" len="18" key="26"/>
          <note vol="100" pos="306" pan="0" len="6" key="50"/>
          <note vol="100" pos="306" pan="0" len="6" key="38"/>
          <note vol="100" pos="312" pan="0" len="6" key="26"/>
          <note vol="100" pos="324" pan="0" len="6" key="26"/>
          <note vol="100" pos="330" pan="0" len="6" key="38"/>
          <note vol="100" pos="336" pan="0" len="18" key="21"/>
          <note vol="100" pos="354" pan="0" len="6" key="45"/>
          <note vol="100" pos="354" pan="0" len="6" key="33"/>
          <note vol="100" pos="360" pan="0" len="6" key="21"/>
          <note vol="100" pos="372" pan="0" len="6" key="21"/>
          <note vol="100" pos="378" pan="0" len="6" key="33"/>
          <note vol="100" pos="384" pan="0" len="18" key="26"/>
          <note vol="100" pos="402" pan="0" len="6" key="50"/>
          <note vol="100" pos="402" pan="0" len="6" key="38"/>
          <note vol="100" pos="408" pan="0" len="6" key="26"/>
          <note vol="100" pos="420" pan="0" len="6" key="26"/>
          <note vol="100" pos="426" pan="0" len="6" key="38"/>
          <note vol="100" pos="432" pan="0" len="18" key="21"/>
          <note vol="100" pos="450" pan="0" len="6" key="45"/>
          <note vol="100" pos="450" pan="0" len="6" key="33"/>
          <note vol="100" pos="456" pan="0" len="6" key="21"/>
          <note vol="100" pos="468" pan="0" len="6" key="21"/>
          <note vol="100" pos="474" pan="0" len="6" key="33"/>
          <note vol="100" pos="480" pan="0" len="18" key="29"/>
          <note vol="100" pos="498" pan="0" len="6" key="53"/>
          <note vol="100" pos="498" pan="0" len="6" key="41"/>
          <note vol="100" pos="504" pan="0" len="6" key="29"/>
          <note vol="100" pos="516" pan="0" len="6" key="29"/>
          <note vol="100" pos="522" pan="0" len="6" key="41"/>
          <note vol="100" pos="528" pan="0" len="18" key="24"/>
          <note vol="100" pos="546" pan="0" len="6" key="48"/>
          <note vol="100" pos="546" pan="0" len="6" key="36"/>
          <note vol="100" pos="552" pan="0" len="6" key="24"/>
          <note vol="100" pos="564" pan="0" len="6" key="24"/>
          <note vol="100" pos="570" pan="0" len="6" key="36"/>
          <note vol="100" pos="576" pan="0" len="18" key="34"/>
          <note vol="100" pos="594" pan="0" len="6" key="58"/>
          <note vol="100" pos="594" pan="0" len="6" key="46"/>
          <note vol="100" pos="600" pan="0" len="6" key="34"/>
          <note vol="100" pos="612" pan="0" len="6" key="34"/>
          <note vol="100" pos="618" pan="0" len="6" key="46"/>
          <note vol="100" pos="624" pan="0" len="18" key="29"/>
          <note vol="100" pos="642" pan="0" len="6" key="53"/>
          <note vol="100" pos="642" pan="0" len="6" key="41"/>
          <note vol="100" pos="648" pan="0" len="6" key="29"/>
          <note vol="100" pos="660" pan="0" len="6" key="29"/>
          <note vol="100" pos="666" pan="0" len="6" key="41"/>
          <note vol="100" pos="672" pan="0" len="18" key="34"/>
          <note vol="100" pos="690" pan="0" len="6" key="58"/>
          <note vol="100" pos="690" pan="0" len="6" key="46"/>
          <note vol="100" pos="696" pan="0" len="6" key="34"/>
          <note vol="100" pos="708" pan="0" len="6" key="34"/>
          <note vol="100" pos="714" pan="0" len="6" key="46"/>
          <note vol="100" pos="720" pan="0" len="18" key="29"/>
          <note vol="100" pos="738" pan="0" len="6" key="53"/>
          <note vol="100" pos="738" pan="0" len="6" key="41"/>
          <note vol="100" pos="744" pan="0" len="6" key="29"/>
          <note vol="100" pos="756" pan="0" len="6" key="29"/>
          <note vol="100" pos="762" pan="0" len="6" key="41"/>
          <note vol="100" pos="768" pan="0" len="18" key="26"/>
          <note vol="100" pos="786" pan="0" len="6" key="50"/>
          <note vol="100" pos="786" pan="0" len="6" key="38"/>
          <note vol="100" pos="792" pan="0" len="6" key="26"/>
          <note vol="100" pos="804" pan="0" len="6" key="26"/>
          <note vol="100" pos="810" pan="0" len="6" key="38"/>
          <note vol="100" pos="816" pan="0" len="18" key="21"/>
          <note vol="100" pos="834" pan="0" len="6" key="45"/>
          <note vol="100" pos="834" pan="0" len="6" key="33"/>
          <note vol="100" pos="840" pan="0" len="6" key="21"/>
          <note vol="100" pos="852" pan="0" len="6" key="21"/>
          <note vol="100" pos="858" pan="0" len="6" key="33"/>
          <note vol="100" pos="864" pan="0" len="18" key="26"/>
          <note vol="100" pos="882" pan="0" len="6" key="50"/>
          <note vol="100" pos="882" pan="0" len="6" key="38"/>
          <note vol="100" pos="888" pan="0" len="6" key="26"/>
          <note vol="100" pos="900" pan="0" len="6" key="26"/>
          <note vol="100" pos="906" pan="0" len="6" key="38"/>
          <note vol="100" pos="912" pan="0" len="18" key="21"/>
          <note vol="100" pos="930" pan="0" len="6" key="45"/>
          <note vol="100" pos="930" pan="0" len="6" key="33"/>
          <note vol="100" pos="936" pan="0" len="6" key="21"/>
          <note vol="100" pos="948" pan="0" len="6" key="21"/>
          <note vol="100" pos="954" pan="0" len="6" key="33"/>
          <note vol="100" pos="960" pan="0" len="18" key="26"/>
          <note vol="100" pos="978" pan="0" len="6" key="50"/>
          <note vol="100" pos="978" pan="0" len="6" key="38"/>
          <note vol="100" pos="984" pan="0" len="6" key="26"/>
          <note vol="100" pos="996" pan="0" len="6" key="26"/>
          <note vol="100" pos="1002" pan="0" len="6" key="38"/>
          <note vol="100" pos="1008" pan="0" len="18" key="21"/>
          <note vol="100" pos="1026" pan="0" len="6" key="45"/>
          <note vol="100" pos="1026" pan="0" len="6" key="33"/>
          <note vol="100" pos="1032" pan="0" len="6" key="21"/>
          <note vol="100" pos="1044" pan="0" len="6" key="21"/>
          <note vol="100" pos="1050" pan="0" len="6" key="33"/>
          <note vol="100" pos="1056" pan="0" len="18" key="29"/>
          <note vol="100" pos="1074" pan="0" len="6" key="53"/>
          <note vol="100" pos="1074" pan="0" len="6" key="41"/>
          <note vol="100" pos="1080" pan="0" len="6" key="29"/>
          <note vol="100" pos="1092" pan="0" len="6" key="29"/>
          <note vol="100" pos="1098" pan="0" len="6" key="41"/>
          <note vol="100" pos="1104" pan="0" len="18" key="24"/>
          <note vol="100" pos="1122" pan="0" len="6" key="48"/>
          <note vol="100" pos="1122" pan="0" len="6" key="36"/>
          <note vol="100" pos="1128" pan="0" len="6" key="24"/>
          <note vol="100" pos="1140" pan="0" len="6" key="24"/>
          <note vol="100" pos="1146" pan="0" len="6" key="36"/>
          <note vol="100" pos="1152" pan="0" len="18" key="31"/>
          <note vol="100" pos="1170" pan="0" len="6" key="55"/>
          <note vol="100" pos="1170" pan="0" len="6" key="43"/>
          <note vol="100" pos="1176" pan="0" len="6" key="31"/>
          <note vol="100" pos="1188" pan="0" len="6" key="31"/>
          <note vol="100" pos="1194" pan="0" len="6" key="43"/>
          <note vol="100" pos="1200" pan="0" len="18" key="29"/>
          <note vol="100" pos="1218" pan="0" len="6" key="53"/>
          <note vol="100" pos="1218" pan="0" len="6" key="41"/>
          <note vol="100" pos="1224" pan="0" len="6" key="29"/>
          <note vol="100" pos="1236" pan="0" len="6" key="29"/>
          <note vol="100" pos="1242" pan="0" len="6" key="41"/>
          <note vol="100" pos="1248" pan="0" len="18" key="26"/>
          <note vol="100" pos="1266" pan="0" len="6" key="50"/>
          <note vol="100" pos="1266" pan="0" len="6" key="38"/>
          <note vol="100" pos="1272" pan="0" len="6" key="26"/>
          <note vol="100" pos="1284" pan="0" len="6" key="26"/>
          <note vol="100" pos="1290" pan="0" len="6" key="38"/>
          <note vol="100" pos="1296" pan="0" len="18" key="22"/>
          <note vol="100" pos="1314" pan="0" len="6" key="46"/>
          <note vol="100" pos="1314" pan="0" len="6" key="34"/>
          <note vol="100" pos="1320" pan="0" len="6" key="22"/>
          <note vol="100" pos="1332" pan="0" len="6" key="22"/>
          <note vol="100" pos="1338" pan="0" len="6" key="34"/>
          <note vol="100" pos="1344" pan="0" len="18" key="34"/>
          <note vol="100" pos="1362" pan="0" len="6" key="58"/>
          <note vol="100" pos="1362" pan="0" len="6" key="46"/>
          <note vol="100" pos="1368" pan="0" len="6" key="34"/>
          <note vol="100" pos="1380" pan="0" len="6" key="34"/>
          <note vol="100" pos="1386" pan="0" len="6" key="46"/>
          <note vol="100" pos="1392" pan="0" len="18" key="29"/>
          <note vol="100" pos="1410" pan="0" len="6" key="53"/>
          <note vol="100" pos="1410" pan="0" len="6" key="41"/>
          <note vol="100" pos="1416" pan="0" len="6" key="29"/>
          <note vol="100" pos="1428" pan="0" len="6" key="29"/>
          <note vol="100" pos="1434" pan="0" len="6" key="41"/>
          <note vol="100" pos="1440" pan="0" len="18" key="24"/>
          <note vol="100" pos="1458" pan="0" len="6" key="48"/>
          <note vol="100" pos="1458" pan="0" len="6" key="36"/>
          <note vol="100" pos="1464" pan="0" len="6" key="24"/>
          <note vol="100" pos="1476" pan="0" len="6" key="24"/>
          <note vol="100" pos="1482" pan="0" len="6" key="36"/>
          <note vol="100" pos="1488" pan="0" len="18" key="19"/>
          <note vol="100" pos="1506" pan="0" len="6" key="43"/>
          <note vol="100" pos="1506" pan="0" len="6" key="31"/>
          <note vol="100" pos="1512" pan="0" len="6" key="19"/>
          <note vol="100" pos="1524" pan="0" len="6" key="19"/>
          <note vol="100" pos="1530" pan="0" len="6" key="31"/>
        </pattern>
        <pattern name="FreeBoy" pos="10368" muted="0" steps="16" type="1">
          <note vol="100" pos="0" pan="0" len="43" key="69"/>
          <note vol="100" pos="0" pan="0" len="43" key="38"/>
          <note vol="100" pos="24" pan="0" len="43" key="45"/>
          <note vol="100" pos="48" pan="0" len="19" key="62"/>
          <note vol="100" pos="48" pan="0" len="19" key="57"/>
          <note vol="100" pos="48" pan="0" len="19" key="50"/>
          <note vol="100" pos="72" pan="0" len="19" key="34"/>
          <note vol="100" pos="96" pan="0" len="43" key="36"/>
          <note vol="100" pos="120" pan="0" len="43" key="40"/>
          <note vol="100" pos="144" pan="0" len="19" key="57"/>
          <note vol="100" pos="144" pan="0" len="19" key="52"/>
          <note vol="100" pos="144" pan="0" len="19" key="45"/>
          <note vol="100" pos="168" pan="0" len="19" key="38"/>
          <note vol="100" pos="192" pan="0" len="43" key="36"/>
          <note vol="100" pos="216" pan="0" len="19" key="55"/>
          <note vol="100" pos="216" pan="0" len="19" key="52"/>
          <note vol="100" pos="216" pan="0" len="19" key="48"/>
          <note vol="100" pos="240" pan="0" len="19" key="57"/>
          <note vol="100" pos="240" pan="0" len="19" key="50"/>
          <note vol="100" pos="240" pan="0" len="19" key="45"/>
          <note vol="100" pos="264" pan="0" len="19" key="41"/>
          <note vol="100" pos="288" pan="0" len="43" key="34"/>
          <note vol="100" pos="312" pan="0" len="19" key="53"/>
          <note vol="100" pos="312" pan="0" len="19" key="50"/>
          <note vol="100" pos="312" pan="0" len="19" key="46"/>
        </pattern>
        <pattern name="" pos="7680" muted="0" steps="16" type="1">
          <note vol="17" pos="0" pan="0" len="12" key="50"/>
          <note vol="17" pos="12" pan="0" len="12" key="69"/>
          <note vol="19" pos="24" pan="0" len="12" key="53"/>
          <note vol="21" pos="36" pan="0" len="12" key="67"/>
          <note vol="23" pos="48" pan="0" len="12" key="57"/>
          <note vol="21" pos="60" pan="0" len="12" key="62"/>
          <note vol="21" pos="72" pan="0" len="12" key="50"/>
          <note vol="25" pos="84" pan="0" len="12" key="65"/>
          <note vol="25" pos="96" pan="0" len="12" key="53"/>
          <note vol="21" pos="108" pan="0" len="12" key="57"/>
          <note vol="21" pos="120" pan="0" len="12" key="62"/>
          <note vol="34" pos="132" pan="0" len="12" key="69"/>
          <note vol="31" pos="144" pan="0" len="12" key="50"/>
          <note vol="23" pos="156" pan="0" len="12" key="69"/>
          <note vol="21" pos="168" pan="0" len="12" key="53"/>
          <note vol="27" pos="180" pan="0" len="12" key="67"/>
        </pattern>
        <pattern name="" pos="9408" muted="0" steps="16" type="1">
          <note vol="17" pos="0" pan="0" len="12" key="50"/>
          <note vol="17" pos="12" pan="0" len="12" key="69"/>
          <note vol="19" pos="24" pan="0" len="12" key="53"/>
          <note vol="21" pos="36" pan="0" len="12" key="67"/>
          <note vol="23" pos="48" pan="0" len="12" key="57"/>
          <note vol="21" pos="60" pan="0" len="12" key="62"/>
          <note vol="21" pos="72" pan="0" len="12" key="50"/>
          <note vol="25" pos="84" pan="0" len="12" key="65"/>
          <note vol="25" pos="96" pan="0" len="12" key="53"/>
          <note vol="21" pos="108" pan="0" len="12" key="57"/>
          <note vol="21" pos="120" pan="0" len="12" key="62"/>
          <note vol="34" pos="132" pan="0" len="12" key="69"/>
          <note vol="31" pos="144" pan="0" len="12" key="50"/>
          <note vol="23" pos="156" pan="0" len="12" key="69"/>
          <note vol="21" pos="168" pan="0" len="12" key="53"/>
          <note vol="27" pos="180" pan="0" len="12" key="67"/>
        </pattern>
        <pattern name="" pos="9600" muted="0" steps="16" type="1">
          <note vol="17" pos="0" pan="0" len="12" key="50"/>
          <note vol="17" pos="12" pan="0" len="12" key="69"/>
          <note vol="19" pos="24" pan="0" len="12" key="53"/>
          <note vol="21" pos="36" pan="0" len="12" key="67"/>
          <note vol="23" pos="48" pan="0" len="12" key="57"/>
          <note vol="21" pos="60" pan="0" len="12" key="62"/>
          <note vol="21" pos="72" pan="0" len="12" key="50"/>
          <note vol="25" pos="84" pan="0" len="12" key="65"/>
          <note vol="25" pos="96" pan="0" len="12" key="53"/>
          <note vol="21" pos="108" pan="0" len="12" key="57"/>
          <note vol="21" pos="120" pan="0" len="12" key="62"/>
          <note vol="34" pos="132" pan="0" len="12" key="69"/>
          <note vol="31" pos="144" pan="0" len="12" key="50"/>
          <note vol="23" pos="156" pan="0" len="12" key="69"/>
          <note vol="21" pos="168" pan="0" len="12" key="53"/>
          <note vol="27" pos="180" pan="0" len="12" key="67"/>
        </pattern>
        <pattern name="" pos="9792" muted="0" steps="16" type="1">
          <note vol="17" pos="0" pan="0" len="12" key="50"/>
          <note vol="17" pos="12" pan="0" len="12" key="69"/>
          <note vol="19" pos="24" pan="0" len="12" key="53"/>
          <note vol="21" pos="36" pan="0" len="12" key="67"/>
          <note vol="23" pos="48" pan="0" len="12" key="57"/>
          <note vol="21" pos="60" pan="0" len="12" key="62"/>
          <note vol="21" pos="72" pan="0" len="12" key="50"/>
          <note vol="25" pos="84" pan="0" len="12" key="65"/>
          <note vol="25" pos="96" pan="0" len="12" key="53"/>
          <note vol="21" pos="108" pan="0" len="12" key="57"/>
          <note vol="21" pos="120" pan="0" len="12" key="62"/>
          <note vol="34" pos="132" pan="0" len="12" key="69"/>
          <note vol="31" pos="144" pan="0" len="12" key="50"/>
          <note vol="23" pos="156" pan="0" len="12" key="69"/>
          <note vol="21" pos="168" pan="0" len="12" key="53"/>
          <note vol="27" pos="180" pan="0" len="12" key="67"/>
        </pattern>
        <pattern name="" pos="7872" muted="0" steps="16" type="1">
          <note vol="17" pos="0" pan="0" len="12" key="50"/>
          <note vol="17" pos="12" pan="0" len="12" key="69"/>
          <note vol="19" pos="24" pan="0" len="12" key="53"/>
          <note vol="21" pos="36" pan="0" len="12" key="67"/>
          <note vol="23" pos="48" pan="0" len="12" key="57"/>
          <note vol="21" pos="60" pan="0" len="12" key="62"/>
          <note vol="21" pos="72" pan="0" len="12" key="50"/>
          <note vol="25" pos="84" pan="0" len="12" key="65"/>
          <note vol="25" pos="96" pan="0" len="12" key="53"/>
          <note vol="21" pos="108" pan="0" len="12" key="57"/>
          <note vol="21" pos="120" pan="0" len="12" key="62"/>
          <note vol="34" pos="132" pan="0" len="12" key="69"/>
          <note vol="31" pos="144" pan="0" len="12" key="50"/>
          <note vol="23" pos="156" pan="0" len="12" key="69"/>
          <note vol="21" pos="168" pan="0" len="12" key="53"/>
          <note vol="27" pos="180" pan="0" len="12" key="67"/>
        </pattern>
        <pattern name="" pos="8064" muted="0" steps="16" type="1">
          <note vol="17" pos="0" pan="0" len="12" key="50"/>
          <note vol="17" pos="12" pan="0" len="12" key="69"/>
          <note vol="19" pos="24" pan="0" len="12" key="53"/>
          <note vol="21" pos="36" pan="0" len="12" key="67"/>
          <note vol="23" pos="48" pan="0" len="12" key="57"/>
          <note vol="21" pos="60" pan="0" len="12" key="62"/>
          <note vol="21" pos="72" pan="0" len="12" key="50"/>
          <note vol="25" pos="84" pan="0" len="12" key="65"/>
          <note vol="25" pos="96" pan="0" len="12" key="53"/>
          <note vol="21" pos="108" pan="0" len="12" key="57"/>
          <note vol="21" pos="120" pan="0" len="12" key="62"/>
          <note vol="34" pos="132" pan="0" len="12" key="69"/>
          <note vol="31" pos="144" pan="0" len="12" key="50"/>
          <note vol="23" pos="156" pan="0" len="12" key="69"/>
          <note vol="21" pos="168" pan="0" len="12" key="53"/>
          <note vol="27" pos="180" pan="0" len="12" key="67"/>
        </pattern>
        <pattern name="" pos="8256" muted="0" steps="16" type="1">
          <note vol="17" pos="0" pan="0" len="12" key="50"/>
          <note vol="17" pos="12" pan="0" len="12" key="69"/>
          <note vol="19" pos="24" pan="0" len="12" key="53"/>
          <note vol="21" pos="36" pan="0" len="12" key="67"/>
          <note vol="23" pos="48" pan="0" len="12" key="57"/>
          <note vol="21" pos="60" pan="0" len="12" key="62"/>
          <note vol="21" pos="72" pan="0" len="12" key="50"/>
          <note vol="25" pos="84" pan="0" len="12" key="65"/>
          <note vol="25" pos="96" pan="0" len="12" key="53"/>
          <note vol="21" pos="108" pan="0" len="12" key="57"/>
          <note vol="21" pos="120" pan="0" len="12" key="62"/>
          <note vol="34" pos="132" pan="0" len="12" key="69"/>
          <note vol="31" pos="144" pan="0" len="12" key="50"/>
          <note vol="23" pos="156" pan="0" len="12" key="69"/>
          <note vol="21" pos="168" pan="0" len="12" key="53"/>
          <note vol="27" pos="180" pan="0" len="12" key="67"/>
        </pattern>
        <pattern name="FreeBoy" pos="17664" muted="0" steps="16" type="1">
          <note vol="125" pos="0" pan="0" len="18" key="46"/>
          <note vol="125" pos="0" pan="0" len="18" key="34"/>
          <note vol="125" pos="24" pan="0" len="12" key="46"/>
          <note vol="125" pos="24" pan="0" len="12" key="34"/>
          <note vol="125" pos="48" pan="0" len="12" key="61"/>
          <note vol="125" pos="48" pan="0" len="12" key="58"/>
          <note vol="125" pos="60" pan="0" len="12" key="46"/>
          <note vol="125" pos="60" pan="0" len="12" key="34"/>
          <note vol="125" pos="72" pan="0" len="6" key="46"/>
          <note vol="125" pos="72" pan="0" len="6" key="34"/>
          <note vol="125" pos="84" pan="0" len="6" key="46"/>
          <note vol="125" pos="84" pan="0" len="6" key="34"/>
          <note vol="125" pos="96" pan="0" len="24" key="60"/>
          <note vol="125" pos="96" pan="0" len="24" key="57"/>
          <note vol="125" pos="120" pan="0" len="12" key="61"/>
          <note vol="125" pos="120" pan="0" len="12" key="58"/>
          <note vol="125" pos="132" pan="0" len="6" key="51"/>
          <note vol="125" pos="132" pan="0" len="6" key="39"/>
          <note vol="125" pos="144" pan="0" len="6" key="49"/>
          <note vol="125" pos="144" pan="0" len="6" key="37"/>
          <note vol="125" pos="156" pan="0" len="12" key="46"/>
          <note vol="125" pos="156" pan="0" len="12" key="34"/>
          <note vol="125" pos="168" pan="0" len="6" key="46"/>
          <note vol="125" pos="168" pan="0" len="6" key="34"/>
          <note vol="125" pos="180" pan="0" len="6" key="48"/>
          <note vol="125" pos="180" pan="0" len="6" key="36"/>
          <note vol="125" pos="192" pan="0" len="18" key="46"/>
          <note vol="125" pos="192" pan="0" len="18" key="34"/>
          <note vol="125" pos="216" pan="0" len="12" key="49"/>
          <note vol="125" pos="216" pan="0" len="12" key="37"/>
          <note vol="125" pos="228" pan="0" len="12" key="46"/>
          <note vol="125" pos="228" pan="0" len="12" key="34"/>
          <note vol="125" pos="240" pan="0" len="18" key="64"/>
          <note vol="125" pos="240" pan="0" len="18" key="59"/>
          <note vol="125" pos="240" pan="0" len="18" key="56"/>
          <note vol="125" pos="240" pan="0" len="18" key="52"/>
          <note vol="125" pos="264" pan="0" len="6" key="52"/>
          <note vol="125" pos="264" pan="0" len="6" key="40"/>
          <note vol="125" pos="276" pan="0" len="12" key="40"/>
          <note vol="125" pos="276" pan="0" len="12" key="28"/>
          <note vol="125" pos="288" pan="0" len="18" key="65"/>
          <note vol="125" pos="288" pan="0" len="18" key="60"/>
          <note vol="125" pos="288" pan="0" len="18" key="57"/>
          <note vol="125" pos="288" pan="0" len="18" key="53"/>
          <note vol="125" pos="312" pan="0" len="6" key="53"/>
          <note vol="125" pos="312" pan="0" len="6" key="41"/>
          <note vol="125" pos="324" pan="0" len="12" key="41"/>
          <note vol="125" pos="324" pan="0" len="12" key="29"/>
          <note vol="125" pos="336" pan="0" len="18" key="70"/>
          <note vol="125" pos="336" pan="0" len="18" key="66"/>
          <note vol="125" pos="336" pan="0" len="18" key="63"/>
          <note vol="125" pos="336" pan="0" len="18" key="58"/>
          <note vol="125" pos="348" pan="0" len="12" key="51"/>
          <note vol="125" pos="348" pan="0" len="12" key="39"/>
          <note vol="125" pos="360" pan="0" len="18" key="71"/>
          <note vol="125" pos="360" pan="0" len="18" key="66"/>
          <note vol="125" pos="360" pan="0" len="18" key="63"/>
          <note vol="125" pos="360" pan="0" len="18" key="59"/>
          <note vol="125" pos="372" pan="0" len="12" key="47"/>
          <note vol="125" pos="372" pan="0" len="12" key="35"/>
          <note vol="125" pos="384" pan="0" len="18" key="46"/>
          <note vol="125" pos="384" pan="0" len="18" key="34"/>
          <note vol="125" pos="408" pan="0" len="12" key="46"/>
          <note vol="125" pos="408" pan="0" len="12" key="34"/>
          <note vol="125" pos="432" pan="0" len="12" key="61"/>
          <note vol="125" pos="432" pan="0" len="12" key="58"/>
          <note vol="125" pos="444" pan="0" len="12" key="46"/>
          <note vol="125" pos="444" pan="0" len="12" key="34"/>
          <note vol="125" pos="456" pan="0" len="6" key="46"/>
          <note vol="125" pos="456" pan="0" len="6" key="34"/>
          <note vol="125" pos="468" pan="0" len="6" key="46"/>
          <note vol="125" pos="468" pan="0" len="6" key="34"/>
          <note vol="125" pos="480" pan="0" len="24" key="60"/>
          <note vol="125" pos="480" pan="0" len="24" key="57"/>
          <note vol="125" pos="504" pan="0" len="12" key="61"/>
          <note vol="125" pos="504" pan="0" len="12" key="58"/>
          <note vol="125" pos="516" pan="0" len="6" key="51"/>
          <note vol="125" pos="516" pan="0" len="6" key="39"/>
          <note vol="125" pos="528" pan="0" len="6" key="49"/>
          <note vol="125" pos="528" pan="0" len="6" key="37"/>
          <note vol="125" pos="540" pan="0" len="12" key="46"/>
          <note vol="125" pos="540" pan="0" len="12" key="34"/>
          <note vol="125" pos="552" pan="0" len="12" key="42"/>
          <note vol="125" pos="552" pan="0" len="12" key="30"/>
          <note vol="125" pos="564" pan="0" len="6" key="45"/>
          <note vol="125" pos="564" pan="0" len="6" key="33"/>
        </pattern>
        <pattern name="thebass" pos="11520" muted="0" steps="16" type="1">
          <note vol="100" pos="0" pan="0" len="36" key="38"/>
          <note vol="100" pos="48" pan="0" len="36" key="33"/>
          <note vol="100" pos="96" pan="0" len="36" key="38"/>
          <note vol="100" pos="144" pan="0" len="36" key="33"/>
          <note vol="100" pos="192" pan="0" len="36" key="38"/>
          <note vol="100" pos="240" pan="0" len="36" key="33"/>
          <note vol="100" pos="288" pan="0" len="36" key="38"/>
          <note vol="100" pos="336" pan="0" len="36" key="33"/>
          <note vol="100" pos="384" pan="0" len="36" key="38"/>
          <note vol="100" pos="432" pan="0" len="36" key="33"/>
          <note vol="100" pos="480" pan="0" len="36" key="41"/>
          <note vol="100" pos="528" pan="0" len="36" key="36"/>
          <note vol="100" pos="576" pan="0" len="36" key="46"/>
          <note vol="100" pos="624" pan="0" len="36" key="41"/>
          <note vol="100" pos="672" pan="0" len="36" key="46"/>
          <note vol="100" pos="720" pan="0" len="36" key="41"/>
          <note vol="100" pos="768" pan="0" len="36" key="38"/>
          <note vol="100" pos="816" pan="0" len="36" key="33"/>
          <note vol="100" pos="864" pan="0" len="36" key="38"/>
          <note vol="100" pos="912" pan="0" len="36" key="33"/>
          <note vol="100" pos="960" pan="0" len="36" key="38"/>
          <note vol="100" pos="1008" pan="0" len="36" key="33"/>
          <note vol="100" pos="1056" pan="0" len="36" key="41"/>
          <note vol="100" pos="1104" pan="0" len="36" key="36"/>
          <note vol="100" pos="1152" pan="0" len="36" key="43"/>
          <note vol="100" pos="1200" pan="0" len="36" key="41"/>
          <note vol="100" pos="1248" pan="0" len="36" key="38"/>
          <note vol="100" pos="1296" pan="0" len="36" key="34"/>
          <note vol="100" pos="1344" pan="0" len="36" key="46"/>
          <note vol="100" pos="1392" pan="0" len="36" key="41"/>
          <note vol="100" pos="1440" pan="0" len="36" key="36"/>
          <note vol="100" pos="1488" pan="0" len="36" key="31"/>
        </pattern>
        <pattern name="fuerelitemelo" pos="23808" muted="0" steps="16" type="1">
          <note vol="100" pos="0" pan="0" len="24" key="52"/>
          <note vol="100" pos="24" pan="0" len="24" key="51"/>
          <note vol="100" pos="48" pan="0" len="24" key="52"/>
          <note vol="100" pos="72" pan="0" len="24" key="51"/>
          <note vol="100" pos="96" pan="0" len="24" key="52"/>
          <note vol="100" pos="120" pan="0" len="24" key="47"/>
          <note vol="100" pos="144" pan="0" len="24" key="50"/>
          <note vol="100" pos="168" pan="0" len="24" key="48"/>
          <note vol="100" pos="192" pan="0" len="24" key="45"/>
          <note vol="100" pos="264" pan="0" len="24" key="40"/>
          <note vol="100" pos="288" pan="0" len="24" key="45"/>
          <note vol="100" pos="336" pan="0" len="24" key="45"/>
          <note vol="100" pos="360" pan="0" len="24" key="47"/>
          <note vol="100" pos="408" pan="0" len="24" key="45"/>
          <note vol="100" pos="432" pan="0" len="24" key="47"/>
          <note vol="100" pos="456" pan="0" len="24" key="45"/>
          <note vol="100" pos="480" pan="0" len="24" key="47"/>
          <note vol="100" pos="528" pan="0" len="24" key="45"/>
          <note vol="100" pos="576" pan="0" len="24" key="48"/>
          <note vol="100" pos="624" pan="0" len="24" key="45"/>
          <note vol="100" pos="672" pan="0" len="24" key="45"/>
          <note vol="100" pos="720" pan="0" len="24" key="43"/>
          <note vol="100" pos="768" pan="0" len="24" key="52"/>
          <note vol="100" pos="792" pan="0" len="24" key="51"/>
          <note vol="100" pos="816" pan="0" len="24" key="52"/>
          <note vol="100" pos="840" pan="0" len="24" key="51"/>
          <note vol="100" pos="864" pan="0" len="24" key="52"/>
          <note vol="100" pos="888" pan="0" len="24" key="47"/>
          <note vol="100" pos="912" pan="0" len="24" key="50"/>
          <note vol="100" pos="936" pan="0" len="24" key="48"/>
          <note vol="100" pos="960" pan="0" len="24" key="45"/>
          <note vol="100" pos="1032" pan="0" len="24" key="40"/>
          <note vol="100" pos="1056" pan="0" len="24" key="45"/>
          <note vol="100" pos="1104" pan="0" len="24" key="45"/>
          <note vol="100" pos="1152" pan="0" len="24" key="47"/>
          <note vol="100" pos="1200" pan="0" len="24" key="43"/>
          <note vol="100" pos="1272" pan="0" len="24" key="48"/>
          <note vol="100" pos="1296" pan="0" len="24" key="47"/>
          <note vol="100" pos="1344" pan="0" len="24" key="45"/>
          <note vol="100" pos="1392" pan="0" len="24" key="27"/>
          <note vol="100" pos="1416" pan="0" len="12" key="33"/>
          <note vol="100" pos="1440" pan="0" len="24" key="36"/>
          <note vol="100" pos="1464" pan="0" len="12" key="39"/>
          <note vol="100" pos="1488" pan="0" len="24" key="40"/>
          <note vol="100" pos="1512" pan="0" len="12" key="43"/>
          <note vol="100" pos="1536" pan="0" len="24" key="52"/>
          <note vol="100" pos="1560" pan="0" len="24" key="51"/>
          <note vol="100" pos="1584" pan="0" len="24" key="52"/>
          <note vol="100" pos="1608" pan="0" len="24" key="51"/>
          <note vol="100" pos="1632" pan="0" len="24" key="52"/>
          <note vol="100" pos="1656" pan="0" len="24" key="47"/>
          <note vol="100" pos="1680" pan="0" len="24" key="50"/>
          <note vol="100" pos="1704" pan="0" len="24" key="48"/>
          <note vol="100" pos="1728" pan="0" len="24" key="45"/>
          <note vol="100" pos="1800" pan="0" len="24" key="40"/>
          <note vol="100" pos="1824" pan="0" len="24" key="45"/>
          <note vol="100" pos="1848" pan="0" len="24" key="48"/>
          <note vol="100" pos="1872" pan="0" len="24" key="57"/>
          <note vol="100" pos="1872" pan="0" len="24" key="45"/>
          <note vol="100" pos="1896" pan="0" len="24" key="52"/>
          <note vol="100" pos="1896" pan="0" len="24" key="47"/>
          <note vol="100" pos="1920" pan="0" len="24" key="64"/>
          <note vol="100" pos="1944" pan="0" len="24" key="45"/>
          <note vol="100" pos="1968" pan="0" len="24" key="47"/>
          <note vol="100" pos="1992" pan="0" len="24" key="60"/>
          <note vol="100" pos="1992" pan="0" len="24" key="45"/>
          <note vol="100" pos="2016" pan="0" len="24" key="62"/>
          <note vol="100" pos="2016" pan="0" len="24" key="47"/>
          <note vol="100" pos="2064" pan="0" len="24" key="57"/>
          <note vol="100" pos="2064" pan="0" len="24" key="45"/>
          <note vol="100" pos="2112" pan="0" len="24" key="60"/>
          <note vol="100" pos="2112" pan="0" len="24" key="48"/>
          <note vol="100" pos="2136" pan="0" len="24" key="64"/>
          <note vol="100" pos="2160" pan="0" len="24" key="62"/>
          <note vol="100" pos="2160" pan="0" len="24" key="45"/>
          <note vol="100" pos="2184" pan="0" len="24" key="55"/>
          <note vol="100" pos="2208" pan="0" len="24" key="45"/>
          <note vol="100" pos="2232" pan="0" len="24" key="57"/>
          <note vol="100" pos="2256" pan="0" len="24" key="59"/>
          <note vol="100" pos="2256" pan="0" len="24" key="43"/>
          <note vol="100" pos="2280" pan="0" len="24" key="60"/>
          <note vol="100" pos="2304" pan="0" len="24" key="64"/>
          <note vol="100" pos="2304" pan="0" len="24" key="52"/>
          <note vol="100" pos="2328" pan="0" len="24" key="51"/>
          <note vol="100" pos="2352" pan="0" len="24" key="52"/>
          <note vol="100" pos="2376" pan="0" len="24" key="60"/>
          <note vol="100" pos="2376" pan="0" len="24" key="51"/>
          <note vol="100" pos="2400" pan="0" len="24" key="62"/>
          <note vol="100" pos="2400" pan="0" len="24" key="52"/>
          <note vol="100" pos="2424" pan="0" len="24" key="60"/>
          <note vol="100" pos="2424" pan="0" len="24" key="47"/>
          <note vol="100" pos="2448" pan="0" len="24" key="62"/>
          <note vol="100" pos="2448" pan="0" len="24" key="50"/>
          <note vol="100" pos="2472" pan="0" len="24" key="64"/>
          <note vol="100" pos="2472" pan="0" len="24" key="48"/>
          <note vol="100" pos="2496" pan="0" len="24" key="57"/>
          <note vol="100" pos="2496" pan="0" len="24" key="45"/>
          <note vol="100" pos="2544" pan="0" len="24" key="57"/>
          <note vol="100" pos="2568" pan="0" len="24" key="60"/>
          <note vol="100" pos="2568" pan="0" len="24" key="40"/>
          <note vol="100" pos="2592" pan="0" len="24" key="45"/>
          <note vol="100" pos="2616" pan="0" len="24" key="57"/>
          <note vol="100" pos="2640" pan="0" len="24" key="45"/>
          <note vol="100" pos="2688" pan="0" len="24" key="62"/>
          <note vol="100" pos="2688" pan="0" len="24" key="47"/>
          <note vol="100" pos="2736" pan="0" len="24" key="55"/>
          <note vol="100" pos="2736" pan="0" len="24" key="43"/>
          <note vol="100" pos="2808" pan="0" len="24" key="55"/>
          <note vol="100" pos="2808" pan="0" len="24" key="48"/>
          <note vol="100" pos="2832" pan="0" len="24" key="59"/>
          <note vol="100" pos="2832" pan="0" len="24" key="47"/>
          <note vol="100" pos="2856" pan="0" len="24" key="60"/>
          <note vol="100" pos="2880" pan="0" len="24" key="45"/>
          <note vol="100" pos="2928" pan="0" len="24" key="57"/>
          <note vol="100" pos="2976" pan="0" len="24" key="45"/>
        </pattern>
        <pattern name="FreeBoy" pos="26880" muted="0" steps="16" type="1">
          <note vol="100" pos="0" pan="0" len="24" key="52"/>
          <note vol="100" pos="24" pan="0" len="24" key="51"/>
          <note vol="100" pos="48" pan="0" len="24" key="52"/>
          <note vol="100" pos="72" pan="0" len="24" key="51"/>
          <note vol="100" pos="96" pan="0" len="24" key="52"/>
          <note vol="100" pos="120" pan="0" len="24" key="47"/>
          <note vol="100" pos="144" pan="0" len="24" key="50"/>
          <note vol="100" pos="168" pan="0" len="24" key="48"/>
          <note vol="100" pos="192" pan="0" len="24" key="45"/>
          <note vol="100" pos="264" pan="0" len="24" key="40"/>
          <note vol="100" pos="288" pan="0" len="24" key="45"/>
          <note vol="100" pos="312" pan="0" len="24" key="48"/>
          <note vol="100" pos="336" pan="0" len="24" key="57"/>
          <note vol="100" pos="336" pan="0" len="24" key="45"/>
          <note vol="100" pos="360" pan="0" len="24" key="52"/>
          <note vol="100" pos="360" pan="0" len="24" key="47"/>
          <note vol="100" pos="384" pan="0" len="24" key="64"/>
          <note vol="100" pos="408" pan="0" len="24" key="45"/>
          <note vol="100" pos="432" pan="0" len="24" key="47"/>
          <note vol="100" pos="456" pan="0" len="24" key="60"/>
          <note vol="100" pos="456" pan="0" len="24" key="45"/>
          <note vol="100" pos="480" pan="0" len="24" key="62"/>
          <note vol="100" pos="480" pan="0" len="24" key="47"/>
          <note vol="100" pos="528" pan="0" len="24" key="57"/>
          <note vol="100" pos="528" pan="0" len="24" key="45"/>
          <note vol="100" pos="576" pan="0" len="24" key="60"/>
          <note vol="100" pos="576" pan="0" len="24" key="48"/>
          <note vol="100" pos="600" pan="0" len="24" key="64"/>
          <note vol="100" pos="624" pan="0" len="24" key="62"/>
          <note vol="100" pos="624" pan="0" len="24" key="45"/>
          <note vol="100" pos="648" pan="0" len="24" key="55"/>
          <note vol="100" pos="672" pan="0" len="24" key="45"/>
          <note vol="100" pos="696" pan="0" len="24" key="57"/>
          <note vol="100" pos="720" pan="0" len="24" key="59"/>
          <note vol="100" pos="720" pan="0" len="24" key="43"/>
          <note vol="100" pos="744" pan="0" len="24" key="60"/>
          <note vol="100" pos="768" pan="0" len="24" key="64"/>
          <note vol="100" pos="768" pan="0" len="24" key="52"/>
          <note vol="100" pos="792" pan="0" len="24" key="51"/>
          <note vol="100" pos="816" pan="0" len="24" key="52"/>
          <note vol="100" pos="840" pan="0" len="24" key="60"/>
          <note vol="100" pos="840" pan="0" len="24" key="51"/>
          <note vol="100" pos="864" pan="0" len="24" key="62"/>
          <note vol="100" pos="864" pan="0" len="24" key="52"/>
          <note vol="100" pos="888" pan="0" len="24" key="60"/>
          <note vol="100" pos="888" pan="0" len="24" key="47"/>
          <note vol="100" pos="912" pan="0" len="24" key="62"/>
          <note vol="100" pos="912" pan="0" len="24" key="50"/>
          <note vol="100" pos="936" pan="0" len="24" key="64"/>
          <note vol="100" pos="936" pan="0" len="24" key="48"/>
          <note vol="100" pos="960" pan="0" len="24" key="57"/>
          <note vol="100" pos="960" pan="0" len="24" key="45"/>
          <note vol="100" pos="1008" pan="0" len="24" key="57"/>
          <note vol="100" pos="1032" pan="0" len="24" key="60"/>
          <note vol="100" pos="1032" pan="0" len="24" key="40"/>
          <note vol="100" pos="1056" pan="0" len="24" key="45"/>
          <note vol="100" pos="1080" pan="0" len="24" key="57"/>
          <note vol="100" pos="1104" pan="0" len="24" key="45"/>
          <note vol="100" pos="1152" pan="0" len="24" key="62"/>
          <note vol="100" pos="1152" pan="0" len="24" key="47"/>
          <note vol="100" pos="1200" pan="0" len="24" key="55"/>
          <note vol="100" pos="1200" pan="0" len="24" key="43"/>
          <note vol="100" pos="1272" pan="0" len="24" key="55"/>
          <note vol="100" pos="1272" pan="0" len="24" key="48"/>
          <note vol="100" pos="1296" pan="0" len="24" key="59"/>
          <note vol="100" pos="1296" pan="0" len="24" key="47"/>
          <note vol="100" pos="1320" pan="0" len="24" key="60"/>
          <note vol="100" pos="1344" pan="0" len="24" key="45"/>
          <note vol="100" pos="1392" pan="0" len="24" key="57"/>
          <note vol="100" pos="1440" pan="0" len="24" key="45"/>
        </pattern>
        <pattern name="fuerdelay" pos="28416" muted="0" steps="16" type="1">
          <note vol="100" pos="0" pan="0" len="12" key="52"/>
          <note vol="36" pos="18" pan="0" len="12" key="52"/>
          <note vol="100" pos="24" pan="0" len="12" key="51"/>
          <note vol="14" pos="36" pan="0" len="12" key="52"/>
          <note vol="36" pos="42" pan="0" len="12" key="51"/>
          <note vol="100" pos="48" pan="0" len="12" key="52"/>
          <note vol="14" pos="60" pan="0" len="12" key="51"/>
          <note vol="36" pos="66" pan="0" len="12" key="52"/>
          <note vol="100" pos="72" pan="0" len="12" key="51"/>
          <note vol="14" pos="84" pan="0" len="12" key="52"/>
          <note vol="36" pos="90" pan="0" len="12" key="51"/>
          <note vol="100" pos="96" pan="0" len="12" key="52"/>
          <note vol="14" pos="108" pan="0" len="12" key="51"/>
          <note vol="36" pos="114" pan="0" len="12" key="52"/>
          <note vol="100" pos="120" pan="0" len="12" key="47"/>
          <note vol="14" pos="132" pan="0" len="12" key="52"/>
          <note vol="36" pos="138" pan="0" len="12" key="47"/>
          <note vol="100" pos="144" pan="0" len="12" key="50"/>
          <note vol="14" pos="156" pan="0" len="12" key="47"/>
          <note vol="36" pos="162" pan="0" len="12" key="50"/>
          <note vol="100" pos="168" pan="0" len="12" key="48"/>
          <note vol="14" pos="180" pan="0" len="12" key="50"/>
          <note vol="36" pos="186" pan="0" len="12" key="48"/>
          <note vol="100" pos="192" pan="0" len="12" key="45"/>
          <note vol="14" pos="204" pan="0" len="12" key="48"/>
          <note vol="36" pos="210" pan="0" len="12" key="45"/>
          <note vol="14" pos="228" pan="0" len="12" key="45"/>
          <note vol="100" pos="264" pan="0" len="12" key="40"/>
          <note vol="36" pos="282" pan="0" len="12" key="40"/>
          <note vol="100" pos="288" pan="0" len="12" key="45"/>
          <note vol="14" pos="300" pan="0" len="12" key="40"/>
          <note vol="36" pos="306" pan="0" len="12" key="45"/>
          <note vol="100" pos="312" pan="0" len="12" key="48"/>
          <note vol="14" pos="324" pan="0" len="12" key="45"/>
          <note vol="36" pos="330" pan="0" len="12" key="48"/>
          <note vol="100" pos="336" pan="0" len="12" key="57"/>
          <note vol="100" pos="336" pan="0" len="12" key="45"/>
          <note vol="14" pos="348" pan="0" len="12" key="48"/>
          <note vol="36" pos="354" pan="0" len="12" key="57"/>
          <note vol="36" pos="354" pan="0" len="12" key="45"/>
          <note vol="100" pos="360" pan="0" len="12" key="52"/>
          <note vol="100" pos="360" pan="0" len="12" key="47"/>
          <note vol="14" pos="372" pan="0" len="12" key="57"/>
          <note vol="14" pos="372" pan="0" len="12" key="45"/>
          <note vol="36" pos="378" pan="0" len="12" key="52"/>
          <note vol="36" pos="378" pan="0" len="12" key="47"/>
          <note vol="100" pos="384" pan="0" len="12" key="64"/>
          <note vol="14" pos="396" pan="0" len="12" key="52"/>
          <note vol="14" pos="396" pan="0" len="12" key="47"/>
          <note vol="36" pos="402" pan="0" len="12" key="64"/>
          <note vol="100" pos="408" pan="0" len="12" key="45"/>
          <note vol="14" pos="420" pan="0" len="12" key="64"/>
          <note vol="36" pos="426" pan="0" len="12" key="45"/>
          <note vol="100" pos="432" pan="0" len="12" key="47"/>
          <note vol="14" pos="444" pan="0" len="12" key="45"/>
          <note vol="36" pos="450" pan="0" len="12" key="47"/>
          <note vol="100" pos="456" pan="0" len="12" key="60"/>
          <note vol="100" pos="456" pan="0" len="12" key="45"/>
          <note vol="14" pos="468" pan="0" len="12" key="47"/>
          <note vol="36" pos="474" pan="0" len="12" key="60"/>
          <note vol="36" pos="474" pan="0" len="12" key="45"/>
          <note vol="100" pos="480" pan="0" len="12" key="62"/>
          <note vol="100" pos="480" pan="0" len="12" key="47"/>
          <note vol="14" pos="492" pan="0" len="12" key="60"/>
          <note vol="14" pos="492" pan="0" len="12" key="45"/>
          <note vol="36" pos="498" pan="0" len="12" key="62"/>
          <note vol="36" pos="498" pan="0" len="12" key="47"/>
          <note vol="14" pos="516" pan="0" len="12" key="62"/>
          <note vol="14" pos="516" pan="0" len="12" key="47"/>
          <note vol="100" pos="528" pan="0" len="12" key="57"/>
          <note vol="100" pos="528" pan="0" len="12" key="45"/>
          <note vol="36" pos="546" pan="0" len="12" key="57"/>
          <note vol="36" pos="546" pan="0" len="12" key="45"/>
          <note vol="14" pos="564" pan="0" len="12" key="57"/>
          <note vol="14" pos="564" pan="0" len="12" key="45"/>
          <note vol="100" pos="576" pan="0" len="12" key="60"/>
          <note vol="100" pos="576" pan="0" len="12" key="48"/>
          <note vol="36" pos="594" pan="0" len="12" key="60"/>
          <note vol="36" pos="594" pan="0" len="12" key="48"/>
          <note vol="100" pos="600" pan="0" len="12" key="64"/>
          <note vol="14" pos="612" pan="0" len="12" key="60"/>
          <note vol="14" pos="612" pan="0" len="12" key="48"/>
          <note vol="36" pos="618" pan="0" len="12" key="64"/>
          <note vol="100" pos="624" pan="0" len="12" key="62"/>
          <note vol="100" pos="624" pan="0" len="12" key="45"/>
          <note vol="14" pos="636" pan="0" len="12" key="64"/>
          <note vol="36" pos="642" pan="0" len="12" key="62"/>
          <note vol="36" pos="642" pan="0" len="12" key="45"/>
          <note vol="100" pos="648" pan="0" len="12" key="55"/>
          <note vol="14" pos="660" pan="0" len="12" key="62"/>
          <note vol="14" pos="660" pan="0" len="12" key="45"/>
          <note vol="36" pos="666" pan="0" len="12" key="55"/>
          <note vol="100" pos="672" pan="0" len="12" key="45"/>
          <note vol="14" pos="684" pan="0" len="12" key="55"/>
          <note vol="36" pos="690" pan="0" len="12" key="45"/>
          <note vol="100" pos="696" pan="0" len="12" key="57"/>
          <note vol="14" pos="708" pan="0" len="12" key="45"/>
          <note vol="36" pos="714" pan="0" len="12" key="57"/>
          <note vol="100" pos="720" pan="0" len="12" key="59"/>
          <note vol="100" pos="720" pan="0" len="12" key="43"/>
          <note vol="14" pos="732" pan="0" len="12" key="57"/>
          <note vol="36" pos="738" pan="0" len="12" key="59"/>
          <note vol="36" pos="738" pan="0" len="12" key="43"/>
          <note vol="100" pos="744" pan="0" len="12" key="60"/>
          <note vol="14" pos="756" pan="0" len="12" key="59"/>
          <note vol="14" pos="756" pan="0" len="12" key="43"/>
          <note vol="36" pos="762" pan="0" len="12" key="60"/>
          <note vol="100" pos="768" pan="0" len="12" key="64"/>
          <note vol="100" pos="768" pan="0" len="12" key="52"/>
          <note vol="14" pos="780" pan="0" len="12" key="60"/>
          <note vol="36" pos="786" pan="0" len="12" key="64"/>
          <note vol="36" pos="786" pan="0" len="12" key="52"/>
          <note vol="100" pos="792" pan="0" len="12" key="51"/>
          <note vol="14" pos="804" pan="0" len="12" key="64"/>
          <note vol="14" pos="804" pan="0" len="12" key="52"/>
          <note vol="36" pos="810" pan="0" len="12" key="51"/>
          <note vol="100" pos="816" pan="0" len="12" key="52"/>
          <note vol="14" pos="828" pan="0" len="12" key="51"/>
          <note vol="36" pos="834" pan="0" len="12" key="52"/>
          <note vol="100" pos="840" pan="0" len="12" key="60"/>
          <note vol="100" pos="840" pan="0" len="12" key="51"/>
          <note vol="14" pos="852" pan="0" len="12" key="52"/>
          <note vol="36" pos="858" pan="0" len="12" key="60"/>
          <note vol="36" pos="858" pan="0" len="12" key="51"/>
          <note vol="100" pos="864" pan="0" len="12" key="62"/>
          <note vol="100" pos="864" pan="0" len="12" key="52"/>
          <note vol="14" pos="876" pan="0" len="12" key="60"/>
          <note vol="14" pos="876" pan="0" len="12" key="51"/>
          <note vol="36" pos="882" pan="0" len="12" key="62"/>
          <note vol="36" pos="882" pan="0" len="12" key="52"/>
          <note vol="100" pos="888" pan="0" len="12" key="60"/>
          <note vol="100" pos="888" pan="0" len="12" key="47"/>
          <note vol="14" pos="900" pan="0" len="12" key="62"/>
          <note vol="14" pos="900" pan="0" len="12" key="52"/>
          <note vol="36" pos="906" pan="0" len="12" key="60"/>
          <note vol="36" pos="906" pan="0" len="12" key="47"/>
          <note vol="100" pos="912" pan="0" len="12" key="62"/>
          <note vol="100" pos="912" pan="0" len="12" key="50"/>
          <note vol="14" pos="924" pan="0" len="12" key="60"/>
          <note vol="14" pos="924" pan="0" len="12" key="47"/>
          <note vol="36" pos="930" pan="0" len="12" key="62"/>
          <note vol="36" pos="930" pan="0" len="12" key="50"/>
          <note vol="100" pos="936" pan="0" len="12" key="64"/>
          <note vol="100" pos="936" pan="0" len="12" key="48"/>
          <note vol="14" pos="948" pan="0" len="12" key="62"/>
          <note vol="14" pos="948" pan="0" len="12" key="50"/>
          <note vol="36" pos="954" pan="0" len="12" key="64"/>
          <note vol="36" pos="954" pan="0" len="12" key="48"/>
          <note vol="100" pos="960" pan="0" len="12" key="57"/>
          <note vol="100" pos="960" pan="0" len="12" key="45"/>
          <note vol="14" pos="972" pan="0" len="12" key="64"/>
          <note vol="14" pos="972" pan="0" len="12" key="48"/>
          <note vol="36" pos="978" pan="0" len="12" key="57"/>
          <note vol="36" pos="978" pan="0" len="12" key="45"/>
          <note vol="14" pos="996" pan="0" len="12" key="57"/>
          <note vol="14" pos="996" pan="0" len="12" key="45"/>
          <note vol="100" pos="1008" pan="0" len="12" key="57"/>
          <note vol="36" pos="1026" pan="0" len="12" key="57"/>
          <note vol="100" pos="1032" pan="0" len="12" key="60"/>
          <note vol="100" pos="1032" pan="0" len="12" key="40"/>
          <note vol="14" pos="1044" pan="0" len="12" key="57"/>
          <note vol="36" pos="1050" pan="0" len="12" key="60"/>
          <note vol="36" pos="1050" pan="0" len="12" key="40"/>
          <note vol="100" pos="1056" pan="0" len="12" key="45"/>
          <note vol="14" pos="1068" pan="0" len="12" key="60"/>
          <note vol="14" pos="1068" pan="0" len="12" key="40"/>
          <note vol="36" pos="1074" pan="0" len="12" key="45"/>
          <note vol="100" pos="1080" pan="0" len="12" key="57"/>
          <note vol="14" pos="1092" pan="0" len="12" key="45"/>
          <note vol="36" pos="1098" pan="0" len="12" key="57"/>
          <note vol="100" pos="1104" pan="0" len="12" key="45"/>
          <note vol="14" pos="1116" pan="0" len="12" key="57"/>
          <note vol="36" pos="1122" pan="0" len="12" key="45"/>
          <note vol="14" pos="1140" pan="0" len="12" key="45"/>
          <note vol="100" pos="1152" pan="0" len="12" key="62"/>
          <note vol="100" pos="1152" pan="0" len="12" key="47"/>
          <note vol="36" pos="1170" pan="0" len="12" key="62"/>
          <note vol="36" pos="1170" pan="0" len="12" key="47"/>
          <note vol="14" pos="1188" pan="0" len="12" key="62"/>
          <note vol="14" pos="1188" pan="0" len="12" key="47"/>
          <note vol="100" pos="1200" pan="0" len="12" key="55"/>
          <note vol="100" pos="1200" pan="0" len="12" key="43"/>
          <note vol="36" pos="1218" pan="0" len="12" key="55"/>
          <note vol="36" pos="1218" pan="0" len="12" key="43"/>
          <note vol="14" pos="1236" pan="0" len="12" key="55"/>
          <note vol="14" pos="1236" pan="0" len="12" key="43"/>
          <note vol="100" pos="1272" pan="0" len="12" key="55"/>
          <note vol="100" pos="1272" pan="0" len="12" key="48"/>
          <note vol="36" pos="1290" pan="0" len="12" key="55"/>
          <note vol="36" pos="1290" pan="0" len="12" key="48"/>
          <note vol="100" pos="1296" pan="0" len="12" key="59"/>
          <note vol="100" pos="1296" pan="0" len="12" key="47"/>
          <note vol="14" pos="1308" pan="0" len="12" key="55"/>
          <note vol="14" pos="1308" pan="0" len="12" key="48"/>
          <note vol="36" pos="1314" pan="0" len="12" key="59"/>
          <note vol="36" pos="1314" pan="0" len="12" key="47"/>
          <note vol="100" pos="1320" pan="0" len="12" key="60"/>
          <note vol="14" pos="1332" pan="0" len="12" key="59"/>
          <note vol="14" pos="1332" pan="0" len="12" key="47"/>
          <note vol="36" pos="1338" pan="0" len="12" key="60"/>
          <note vol="100" pos="1344" pan="0" len="12" key="45"/>
          <note vol="14" pos="1356" pan="0" len="12" key="60"/>
          <note vol="36" pos="1362" pan="0" len="12" key="45"/>
          <note vol="14" pos="1380" pan="0" len="12" key="45"/>
          <note vol="100" pos="1392" pan="0" len="12" key="57"/>
          <note vol="36" pos="1410" pan="0" len="12" key="57"/>
          <note vol="14" pos="1428" pan="0" len="12" key="57"/>
          <note vol="100" pos="1440" pan="0" len="12" key="45"/>
          <note vol="36" pos="1458" pan="0" len="12" key="45"/>
          <note vol="14" pos="1476" pan="0" len="12" key="45"/>
        </pattern>
        <pattern name="fuerelitemelo" pos="30720" muted="0" steps="16" type="1">
          <note vol="100" pos="360" pan="0" len="24" key="52"/>
          <note vol="100" pos="384" pan="0" len="24" key="64"/>
          <note vol="100" pos="456" pan="0" len="24" key="60"/>
          <note vol="100" pos="480" pan="0" len="24" key="62"/>
          <note vol="100" pos="528" pan="0" len="24" key="57"/>
          <note vol="100" pos="576" pan="0" len="24" key="60"/>
          <note vol="100" pos="600" pan="0" len="24" key="64"/>
          <note vol="100" pos="624" pan="0" len="24" key="62"/>
          <note vol="100" pos="648" pan="0" len="24" key="55"/>
          <note vol="100" pos="696" pan="0" len="24" key="57"/>
          <note vol="100" pos="720" pan="0" len="24" key="59"/>
          <note vol="100" pos="744" pan="0" len="24" key="60"/>
          <note vol="100" pos="768" pan="0" len="24" key="64"/>
          <note vol="100" pos="840" pan="0" len="24" key="60"/>
          <note vol="100" pos="864" pan="0" len="24" key="62"/>
          <note vol="100" pos="912" pan="0" len="24" key="62"/>
          <note vol="100" pos="960" pan="0" len="24" key="57"/>
          <note vol="100" pos="1008" pan="0" len="24" key="57"/>
          <note vol="100" pos="1032" pan="0" len="24" key="60"/>
          <note vol="100" pos="1080" pan="0" len="24" key="57"/>
          <note vol="100" pos="1152" pan="0" len="24" key="62"/>
          <note vol="100" pos="1200" pan="0" len="24" key="55"/>
          <note vol="100" pos="1272" pan="0" len="24" key="55"/>
          <note vol="100" pos="1296" pan="0" len="24" key="59"/>
          <note vol="100" pos="1320" pan="0" len="24" key="60"/>
          <note vol="100" pos="1392" pan="0" len="24" key="57"/>
        </pattern>
        <pattern name="disguise" pos="32256" muted="0" steps="16" type="1">
          <note vol="100" pos="0" pan="0" len="24" key="64"/>
          <note vol="100" pos="72" pan="0" len="24" key="60"/>
          <note vol="100" pos="96" pan="0" len="24" key="62"/>
          <note vol="100" pos="144" pan="0" len="24" key="57"/>
          <note vol="100" pos="192" pan="0" len="24" key="60"/>
          <note vol="100" pos="216" pan="0" len="24" key="64"/>
          <note vol="100" pos="240" pan="0" len="24" key="62"/>
          <note vol="100" pos="264" pan="0" len="24" key="55"/>
          <note vol="100" pos="312" pan="0" len="24" key="57"/>
          <note vol="100" pos="336" pan="0" len="24" key="59"/>
          <note vol="100" pos="360" pan="0" len="24" key="60"/>
          <note vol="100" pos="384" pan="0" len="24" key="64"/>
          <note vol="100" pos="456" pan="0" len="24" key="60"/>
          <note vol="100" pos="480" pan="0" len="24" key="62"/>
          <note vol="100" pos="528" pan="0" len="24" key="62"/>
          <note vol="100" pos="576" pan="0" len="24" key="57"/>
          <note vol="100" pos="624" pan="0" len="24" key="57"/>
          <note vol="100" pos="648" pan="0" len="24" key="60"/>
          <note vol="100" pos="696" pan="0" len="24" key="57"/>
          <note vol="100" pos="744" pan="0" len="24" key="52"/>
        </pattern>
        <pattern name="disgend" pos="33792" muted="0" steps="16" type="1">
          <note vol="100" pos="0" pan="0" len="24" key="62"/>
          <note vol="100" pos="48" pan="0" len="24" key="55"/>
          <note vol="100" pos="120" pan="0" len="24" key="55"/>
          <note vol="100" pos="144" pan="0" len="24" key="59"/>
          <note vol="100" pos="168" pan="0" len="24" key="60"/>
          <note vol="100" pos="240" pan="0" len="24" key="57"/>
        </pattern>
        <pattern name="disgend" pos="36096" muted="0" steps="16" type="1">
          <note vol="100" pos="0" pan="0" len="24" key="62"/>
          <note vol="100" pos="48" pan="0" len="24" key="55"/>
          <note vol="100" pos="120" pan="0" len="24" key="55"/>
          <note vol="100" pos="144" pan="0" len="24" key="59"/>
          <note vol="100" pos="168" pan="0" len="24" key="60"/>
          <note vol="100" pos="240" pan="0" len="24" key="57"/>
        </pattern>
        <pattern name="disguise" pos="33024" muted="0" steps="16" type="1">
          <note vol="100" pos="0" pan="0" len="24" key="64"/>
          <note vol="100" pos="72" pan="0" len="24" key="60"/>
          <note vol="100" pos="96" pan="0" len="24" key="62"/>
          <note vol="100" pos="144" pan="0" len="24" key="57"/>
          <note vol="100" pos="192" pan="0" len="24" key="60"/>
          <note vol="100" pos="216" pan="0" len="24" key="64"/>
          <note vol="100" pos="240" pan="0" len="24" key="62"/>
          <note vol="100" pos="264" pan="0" len="24" key="55"/>
          <note vol="100" pos="312" pan="0" len="24" key="57"/>
          <note vol="100" pos="336" pan="0" len="24" key="59"/>
          <note vol="100" pos="360" pan="0" len="24" key="60"/>
          <note vol="100" pos="384" pan="0" len="24" key="64"/>
          <note vol="100" pos="456" pan="0" len="24" key="60"/>
          <note vol="100" pos="480" pan="0" len="24" key="62"/>
          <note vol="100" pos="528" pan="0" len="24" key="62"/>
          <note vol="100" pos="576" pan="0" len="24" key="57"/>
          <note vol="100" pos="624" pan="0" len="24" key="57"/>
          <note vol="100" pos="648" pan="0" len="24" key="60"/>
          <note vol="100" pos="696" pan="0" len="24" key="57"/>
          <note vol="100" pos="744" pan="0" len="24" key="52"/>
        </pattern>
        <pattern name="disguise" pos="34560" muted="0" steps="16" type="1">
          <note vol="100" pos="0" pan="0" len="24" key="64"/>
          <note vol="100" pos="72" pan="0" len="24" key="60"/>
          <note vol="100" pos="96" pan="0" len="24" key="62"/>
          <note vol="100" pos="144" pan="0" len="24" key="57"/>
          <note vol="100" pos="192" pan="0" len="24" key="60"/>
          <note vol="100" pos="216" pan="0" len="24" key="64"/>
          <note vol="100" pos="240" pan="0" len="24" key="62"/>
          <note vol="100" pos="264" pan="0" len="24" key="55"/>
          <note vol="100" pos="312" pan="0" len="24" key="57"/>
          <note vol="100" pos="336" pan="0" len="24" key="59"/>
          <note vol="100" pos="360" pan="0" len="24" key="60"/>
          <note vol="100" pos="384" pan="0" len="24" key="64"/>
          <note vol="100" pos="456" pan="0" len="24" key="60"/>
          <note vol="100" pos="480" pan="0" len="24" key="62"/>
          <note vol="100" pos="528" pan="0" len="24" key="62"/>
          <note vol="100" pos="576" pan="0" len="24" key="57"/>
          <note vol="100" pos="624" pan="0" len="24" key="57"/>
          <note vol="100" pos="648" pan="0" len="24" key="60"/>
          <note vol="100" pos="696" pan="0" len="24" key="57"/>
          <note vol="100" pos="744" pan="0" len="24" key="52"/>
        </pattern>
        <pattern name="disguise" pos="35328" muted="0" steps="16" type="1">
          <note vol="100" pos="0" pan="0" len="24" key="64"/>
          <note vol="100" pos="72" pan="0" len="24" key="60"/>
          <note vol="100" pos="96" pan="0" len="24" key="62"/>
          <note vol="100" pos="144" pan="0" len="24" key="57"/>
          <note vol="100" pos="192" pan="0" len="24" key="60"/>
          <note vol="100" pos="216" pan="0" len="24" key="64"/>
          <note vol="100" pos="240" pan="0" len="24" key="62"/>
          <note vol="100" pos="264" pan="0" len="24" key="55"/>
          <note vol="100" pos="312" pan="0" len="24" key="57"/>
          <note vol="100" pos="336" pan="0" len="24" key="59"/>
          <note vol="100" pos="360" pan="0" len="24" key="60"/>
          <note vol="100" pos="384" pan="0" len="24" key="64"/>
          <note vol="100" pos="456" pan="0" len="24" key="60"/>
          <note vol="100" pos="480" pan="0" len="24" key="62"/>
          <note vol="100" pos="528" pan="0" len="24" key="62"/>
          <note vol="100" pos="576" pan="0" len="24" key="57"/>
          <note vol="100" pos="624" pan="0" len="24" key="57"/>
          <note vol="100" pos="648" pan="0" len="24" key="60"/>
          <note vol="100" pos="696" pan="0" len="24" key="57"/>
          <note vol="100" pos="744" pan="0" len="24" key="52"/>
        </pattern>
        <pattern name="buildup" pos="19200" muted="0" steps="16" type="1">
          <note vol="20" pos="0" pan="0" len="36" key="9"/>
          <note vol="21" pos="48" pan="0" len="24" key="9"/>
          <note vol="23" pos="72" pan="0" len="24" key="21"/>
          <note vol="24" pos="96" pan="0" len="24" key="9"/>
          <note vol="26" pos="120" pan="0" len="24" key="21"/>
          <note vol="29" pos="168" pan="0" len="24" key="9"/>
          <note vol="29" pos="192" pan="0" len="36" key="9"/>
          <note vol="30" pos="240" pan="0" len="24" key="9"/>
          <note vol="31" pos="264" pan="0" len="24" key="21"/>
          <note vol="31" pos="288" pan="0" len="24" key="9"/>
          <note vol="31" pos="312" pan="0" len="24" key="21"/>
          <note vol="31" pos="360" pan="0" len="24" key="9"/>
          <note vol="31" pos="384" pan="0" len="36" key="9"/>
          <note vol="36" pos="432" pan="0" len="24" key="9"/>
          <note vol="37" pos="456" pan="0" len="24" key="21"/>
          <note vol="37" pos="480" pan="0" len="24" key="9"/>
          <note vol="38" pos="504" pan="0" len="24" key="21"/>
          <note vol="39" pos="552" pan="0" len="24" key="9"/>
          <note vol="40" pos="576" pan="0" len="36" key="9"/>
          <note vol="42" pos="624" pan="0" len="24" key="9"/>
          <note vol="42" pos="648" pan="0" len="24" key="21"/>
          <note vol="42" pos="672" pan="0" len="24" key="9"/>
          <note vol="45" pos="696" pan="0" len="24" key="21"/>
          <note vol="47" pos="744" pan="0" len="24" key="9"/>
          <note vol="48" pos="768" pan="0" len="36" key="9"/>
          <note vol="50" pos="816" pan="0" len="24" key="9"/>
          <note vol="51" pos="840" pan="0" len="24" key="21"/>
          <note vol="51" pos="864" pan="0" len="24" key="9"/>
          <note vol="53" pos="888" pan="0" len="24" key="21"/>
          <note vol="54" pos="936" pan="0" len="24" key="9"/>
          <note vol="55" pos="960" pan="0" len="36" key="9"/>
          <note vol="55" pos="1008" pan="0" len="24" key="9"/>
          <note vol="55" pos="1032" pan="0" len="24" key="21"/>
          <note vol="55" pos="1056" pan="0" len="24" key="9"/>
          <note vol="55" pos="1080" pan="0" len="24" key="21"/>
          <note vol="55" pos="1128" pan="0" len="24" key="9"/>
          <note vol="55" pos="1152" pan="0" len="36" key="9"/>
          <note vol="55" pos="1200" pan="0" len="24" key="9"/>
          <note vol="54" pos="1224" pan="0" len="24" key="21"/>
          <note vol="54" pos="1248" pan="0" len="24" key="9"/>
          <note vol="54" pos="1272" pan="0" len="24" key="21"/>
          <note vol="56" pos="1320" pan="0" len="24" key="9"/>
          <note vol="53" pos="1344" pan="0" len="36" key="9"/>
          <note vol="58" pos="1392" pan="0" len="24" key="9"/>
          <note vol="58" pos="1416" pan="0" len="24" key="21"/>
          <note vol="59" pos="1440" pan="0" len="24" key="9"/>
          <note vol="61" pos="1464" pan="0" len="24" key="21"/>
          <note vol="61" pos="1512" pan="0" len="24" key="9"/>
          <note vol="62" pos="1536" pan="0" len="36" key="9"/>
          <note vol="63" pos="1584" pan="0" len="24" key="9"/>
          <note vol="63" pos="1608" pan="0" len="24" key="21"/>
          <note vol="65" pos="1632" pan="0" len="24" key="9"/>
          <note vol="65" pos="1656" pan="0" len="24" key="21"/>
          <note vol="66" pos="1704" pan="0" len="24" key="9"/>
          <note vol="67" pos="1728" pan="0" len="36" key="9"/>
          <note vol="67" pos="1776" pan="0" len="24" key="9"/>
          <note vol="67" pos="1800" pan="0" len="24" key="21"/>
          <note vol="67" pos="1824" pan="0" len="24" key="9"/>
          <note vol="68" pos="1848" pan="0" len="24" key="21"/>
          <note vol="68" pos="1896" pan="0" len="24" key="9"/>
          <note vol="69" pos="1920" pan="0" len="36" key="9"/>
          <note vol="69" pos="1968" pan="0" len="24" key="9"/>
          <note vol="69" pos="1992" pan="0" len="24" key="21"/>
          <note vol="72" pos="2016" pan="0" len="24" key="9"/>
          <note vol="73" pos="2040" pan="0" len="24" key="21"/>
          <note vol="73" pos="2088" pan="0" len="24" key="9"/>
          <note vol="73" pos="2112" pan="0" len="36" key="9"/>
          <note vol="73" pos="2160" pan="0" len="24" key="9"/>
          <note vol="73" pos="2184" pan="0" len="24" key="21"/>
          <note vol="75" pos="2208" pan="0" len="24" key="9"/>
          <note vol="74" pos="2232" pan="0" len="24" key="21"/>
          <note vol="74" pos="2280" pan="0" len="24" key="9"/>
          <note vol="74" pos="2304" pan="0" len="36" key="9"/>
          <note vol="73" pos="2352" pan="0" len="24" key="9"/>
          <note vol="73" pos="2376" pan="0" len="24" key="21"/>
          <note vol="73" pos="2400" pan="0" len="24" key="9"/>
          <note vol="73" pos="2424" pan="0" len="24" key="21"/>
          <note vol="73" pos="2472" pan="0" len="24" key="9"/>
          <note vol="73" pos="2496" pan="0" len="36" key="9"/>
          <note vol="73" pos="2544" pan="0" len="24" key="9"/>
          <note vol="73" pos="2568" pan="0" len="24" key="21"/>
          <note vol="75" pos="2592" pan="0" len="24" key="9"/>
          <note vol="76" pos="2616" pan="0" len="24" key="21"/>
          <note vol="76" pos="2664" pan="0" len="24" key="9"/>
          <note vol="76" pos="2688" pan="0" len="36" key="9"/>
          <note vol="76" pos="2736" pan="0" len="24" key="9"/>
          <note vol="76" pos="2760" pan="0" len="24" key="21"/>
          <note vol="76" pos="2784" pan="0" len="24" key="9"/>
          <note vol="76" pos="2808" pan="0" len="24" key="21"/>
          <note vol="76" pos="2856" pan="0" len="24" key="9"/>
          <note vol="76" pos="2880" pan="0" len="36" key="9"/>
          <note vol="76" pos="2928" pan="0" len="24" key="9"/>
          <note vol="76" pos="2952" pan="0" len="24" key="21"/>
          <note vol="78" pos="2976" pan="0" len="24" key="9"/>
          <note vol="78" pos="3000" pan="0" len="24" key="21"/>
          <note vol="79" pos="3048" pan="0" len="24" key="9"/>
          <note vol="79" pos="3072" pan="0" len="36" key="9"/>
          <note vol="79" pos="3120" pan="0" len="24" key="9"/>
          <note vol="79" pos="3144" pan="0" len="24" key="21"/>
          <note vol="79" pos="3168" pan="0" len="24" key="9"/>
          <note vol="79" pos="3192" pan="0" len="24" key="21"/>
          <note vol="80" pos="3240" pan="0" len="24" key="9"/>
          <note vol="80" pos="3264" pan="0" len="36" key="9"/>
          <note vol="81" pos="3312" pan="0" len="24" key="9"/>
          <note vol="82" pos="3336" pan="0" len="24" key="21"/>
          <note vol="82" pos="3360" pan="0" len="24" key="9"/>
          <note vol="82" pos="3384" pan="0" len="24" key="21"/>
          <note vol="81" pos="3432" pan="0" len="24" key="9"/>
          <note vol="81" pos="3456" pan="0" len="36" key="9"/>
          <note vol="82" pos="3504" pan="0" len="24" key="9"/>
          <note vol="82" pos="3528" pan="0" len="24" key="21"/>
          <note vol="82" pos="3552" pan="0" len="24" key="9"/>
          <note vol="82" pos="3576" pan="0" len="24" key="21"/>
          <note vol="83" pos="3624" pan="0" len="24" key="9"/>
          <note vol="84" pos="3648" pan="0" len="36" key="9"/>
          <note vol="84" pos="3696" pan="0" len="24" key="9"/>
          <note vol="84" pos="3720" pan="0" len="24" key="21"/>
          <note vol="85" pos="3744" pan="0" len="24" key="9"/>
          <note vol="85" pos="3768" pan="0" len="24" key="21"/>
          <note vol="86" pos="3816" pan="0" len="24" key="9"/>
          <note vol="88" pos="3840" pan="0" len="36" key="9"/>
          <note vol="90" pos="3888" pan="0" len="24" key="9"/>
          <note vol="90" pos="3912" pan="0" len="24" key="21"/>
          <note vol="90" pos="3936" pan="0" len="24" key="9"/>
          <note vol="90" pos="3960" pan="0" len="24" key="21"/>
          <note vol="90" pos="4008" pan="0" len="24" key="9"/>
          <note vol="90" pos="4032" pan="0" len="36" key="9"/>
          <note vol="91" pos="4080" pan="0" len="24" key="9"/>
          <note vol="92" pos="4104" pan="0" len="24" key="21"/>
          <note vol="92" pos="4128" pan="0" len="24" key="9"/>
          <note vol="93" pos="4152" pan="0" len="24" key="21"/>
          <note vol="93" pos="4200" pan="0" len="24" key="9"/>
          <note vol="93" pos="4224" pan="0" len="36" key="9"/>
          <note vol="94" pos="4272" pan="0" len="24" key="9"/>
          <note vol="95" pos="4296" pan="0" len="24" key="21"/>
          <note vol="96" pos="4320" pan="0" len="24" key="9"/>
          <note vol="96" pos="4344" pan="0" len="24" key="21"/>
          <note vol="96" pos="4392" pan="0" len="24" key="9"/>
          <note vol="96" pos="4416" pan="0" len="36" key="9"/>
          <note vol="99" pos="4464" pan="0" len="24" key="9"/>
          <note vol="100" pos="4488" pan="0" len="24" key="21"/>
          <note vol="100" pos="4512" pan="0" len="24" key="9"/>
          <note vol="100" pos="4536" pan="0" len="24" key="21"/>
          <note vol="100" pos="4584" pan="0" len="24" key="9"/>
        </pattern>
        <pattern name="fuerelitemelo_half" pos="36864" muted="0" steps="16" type="1">
          <note vol="100" pos="0" pan="0" len="24" key="52"/>
          <note vol="100" pos="24" pan="0" len="24" key="51"/>
          <note vol="27" pos="36" pan="0" len="24" key="52"/>
          <note vol="100" pos="48" pan="0" len="24" key="52"/>
          <note vol="27" pos="60" pan="0" len="24" key="51"/>
          <note vol="10" pos="72" pan="0" len="24" key="52"/>
          <note vol="100" pos="72" pan="0" len="24" key="51"/>
          <note vol="27" pos="84" pan="0" len="24" key="52"/>
          <note vol="100" pos="96" pan="0" len="24" key="52"/>
          <note vol="10" pos="96" pan="0" len="24" key="51"/>
          <note vol="27" pos="108" pan="0" len="24" key="51"/>
          <note vol="10" pos="120" pan="0" len="24" key="52"/>
          <note vol="100" pos="120" pan="0" len="24" key="47"/>
          <note vol="27" pos="132" pan="0" len="24" key="52"/>
          <note vol="10" pos="144" pan="0" len="24" key="51"/>
          <note vol="100" pos="144" pan="0" len="24" key="50"/>
          <note vol="27" pos="156" pan="0" len="24" key="47"/>
          <note vol="10" pos="168" pan="0" len="24" key="52"/>
          <note vol="100" pos="168" pan="0" len="24" key="48"/>
          <note vol="27" pos="180" pan="0" len="24" key="50"/>
          <note vol="10" pos="192" pan="0" len="24" key="47"/>
          <note vol="100" pos="192" pan="0" len="24" key="45"/>
          <note vol="27" pos="204" pan="0" len="24" key="48"/>
          <note vol="10" pos="216" pan="0" len="24" key="50"/>
          <note vol="27" pos="228" pan="0" len="24" key="45"/>
          <note vol="10" pos="240" pan="0" len="24" key="48"/>
          <note vol="10" pos="264" pan="0" len="24" key="45"/>
          <note vol="100" pos="264" pan="0" len="24" key="40"/>
          <note vol="100" pos="288" pan="0" len="24" key="45"/>
          <note vol="27" pos="300" pan="0" len="24" key="40"/>
          <note vol="100" pos="312" pan="0" len="24" key="48"/>
          <note vol="27" pos="324" pan="0" len="24" key="45"/>
          <note vol="100" pos="336" pan="0" len="24" key="57"/>
          <note vol="100" pos="336" pan="0" len="24" key="45"/>
          <note vol="10" pos="336" pan="0" len="24" key="40"/>
          <note vol="27" pos="348" pan="0" len="24" key="48"/>
          <note vol="100" pos="360" pan="0" len="24" key="52"/>
          <note vol="100" pos="360" pan="0" len="24" key="47"/>
          <note vol="10" pos="360" pan="0" len="24" key="45"/>
          <note vol="27" pos="372" pan="0" len="24" key="57"/>
          <note vol="27" pos="372" pan="0" len="24" key="45"/>
          <note vol="100" pos="384" pan="0" len="24" key="64"/>
          <note vol="10" pos="384" pan="0" len="24" key="48"/>
          <note vol="27" pos="396" pan="0" len="24" key="52"/>
          <note vol="27" pos="396" pan="0" len="24" key="47"/>
          <note vol="10" pos="408" pan="0" len="24" key="57"/>
          <note vol="10" pos="408" pan="0" len="24" key="45"/>
          <note vol="100" pos="408" pan="0" len="24" key="45"/>
          <note vol="27" pos="420" pan="0" len="24" key="64"/>
          <note vol="10" pos="432" pan="0" len="24" key="52"/>
          <note vol="10" pos="432" pan="0" len="24" key="47"/>
          <note vol="100" pos="432" pan="0" len="24" key="47"/>
          <note vol="27" pos="444" pan="0" len="24" key="45"/>
          <note vol="10" pos="456" pan="0" len="24" key="64"/>
          <note vol="100" pos="456" pan="0" len="24" key="60"/>
          <note vol="100" pos="456" pan="0" len="24" key="45"/>
          <note vol="27" pos="468" pan="0" len="24" key="47"/>
          <note vol="100" pos="480" pan="0" len="24" key="62"/>
          <note vol="100" pos="480" pan="0" len="24" key="47"/>
          <note vol="10" pos="480" pan="0" len="24" key="45"/>
          <note vol="27" pos="492" pan="0" len="24" key="60"/>
          <note vol="27" pos="492" pan="0" len="24" key="45"/>
          <note vol="10" pos="504" pan="0" len="24" key="47"/>
          <note vol="27" pos="516" pan="0" len="24" key="62"/>
          <note vol="27" pos="516" pan="0" len="24" key="47"/>
          <note vol="10" pos="528" pan="0" len="24" key="60"/>
          <note vol="100" pos="528" pan="0" len="24" key="57"/>
          <note vol="10" pos="528" pan="0" len="24" key="45"/>
          <note vol="100" pos="528" pan="0" len="24" key="45"/>
          <note vol="10" pos="552" pan="0" len="24" key="62"/>
          <note vol="10" pos="552" pan="0" len="24" key="47"/>
          <note vol="27" pos="564" pan="0" len="24" key="57"/>
          <note vol="27" pos="564" pan="0" len="24" key="45"/>
          <note vol="100" pos="576" pan="0" len="24" key="60"/>
          <note vol="100" pos="576" pan="0" len="24" key="48"/>
          <note vol="100" pos="600" pan="0" len="24" key="64"/>
          <note vol="10" pos="600" pan="0" len="24" key="57"/>
          <note vol="10" pos="600" pan="0" len="24" key="45"/>
          <note vol="27" pos="612" pan="0" len="24" key="60"/>
          <note vol="27" pos="612" pan="0" len="24" key="48"/>
          <note vol="100" pos="624" pan="0" len="24" key="62"/>
          <note vol="100" pos="624" pan="0" len="24" key="45"/>
          <note vol="27" pos="636" pan="0" len="24" key="64"/>
          <note vol="10" pos="648" pan="0" len="24" key="60"/>
          <note vol="100" pos="648" pan="0" len="24" key="55"/>
          <note vol="10" pos="648" pan="0" len="24" key="48"/>
          <note vol="27" pos="660" pan="0" len="24" key="62"/>
          <note vol="27" pos="660" pan="0" len="24" key="45"/>
          <note vol="10" pos="672" pan="0" len="24" key="64"/>
          <note vol="100" pos="672" pan="0" len="24" key="45"/>
          <note vol="27" pos="684" pan="0" len="24" key="55"/>
          <note vol="10" pos="696" pan="0" len="24" key="62"/>
          <note vol="100" pos="696" pan="0" len="24" key="57"/>
          <note vol="10" pos="696" pan="0" len="24" key="45"/>
          <note vol="27" pos="708" pan="0" len="24" key="45"/>
          <note vol="100" pos="720" pan="0" len="24" key="59"/>
          <note vol="10" pos="720" pan="0" len="24" key="55"/>
          <note vol="100" pos="720" pan="0" len="24" key="43"/>
          <note vol="27" pos="732" pan="0" len="24" key="57"/>
          <note vol="100" pos="744" pan="0" len="24" key="60"/>
          <note vol="10" pos="744" pan="0" len="24" key="45"/>
          <note vol="27" pos="756" pan="0" len="24" key="59"/>
          <note vol="27" pos="756" pan="0" len="24" key="43"/>
          <note vol="100" pos="768" pan="0" len="24" key="64"/>
          <note vol="10" pos="768" pan="0" len="24" key="57"/>
          <note vol="100" pos="768" pan="0" len="24" key="52"/>
          <note vol="27" pos="780" pan="0" len="24" key="60"/>
          <note vol="10" pos="792" pan="0" len="24" key="59"/>
          <note vol="100" pos="792" pan="0" len="24" key="51"/>
          <note vol="10" pos="792" pan="0" len="24" key="43"/>
          <note vol="27" pos="804" pan="0" len="24" key="64"/>
          <note vol="27" pos="804" pan="0" len="24" key="52"/>
          <note vol="10" pos="816" pan="0" len="24" key="60"/>
          <note vol="100" pos="816" pan="0" len="24" key="52"/>
          <note vol="27" pos="828" pan="0" len="24" key="51"/>
          <note vol="10" pos="840" pan="0" len="24" key="64"/>
          <note vol="100" pos="840" pan="0" len="24" key="60"/>
          <note vol="10" pos="840" pan="0" len="24" key="52"/>
          <note vol="100" pos="840" pan="0" len="24" key="51"/>
          <note vol="27" pos="852" pan="0" len="24" key="52"/>
          <note vol="100" pos="864" pan="0" len="24" key="62"/>
          <note vol="100" pos="864" pan="0" len="24" key="52"/>
          <note vol="10" pos="864" pan="0" len="24" key="51"/>
          <note vol="27" pos="876" pan="0" len="24" key="60"/>
          <note vol="27" pos="876" pan="0" len="24" key="51"/>
          <note vol="100" pos="888" pan="0" len="24" key="60"/>
          <note vol="10" pos="888" pan="0" len="24" key="52"/>
          <note vol="100" pos="888" pan="0" len="24" key="47"/>
          <note vol="27" pos="900" pan="0" len="24" key="62"/>
          <note vol="27" pos="900" pan="0" len="24" key="52"/>
          <note vol="100" pos="912" pan="0" len="24" key="62"/>
          <note vol="10" pos="912" pan="0" len="24" key="60"/>
          <note vol="10" pos="912" pan="0" len="24" key="51"/>
          <note vol="100" pos="912" pan="0" len="24" key="50"/>
          <note vol="27" pos="924" pan="0" len="24" key="60"/>
          <note vol="27" pos="924" pan="0" len="24" key="47"/>
          <note vol="100" pos="936" pan="0" len="24" key="64"/>
          <note vol="10" pos="936" pan="0" len="24" key="62"/>
          <note vol="10" pos="936" pan="0" len="24" key="52"/>
          <note vol="100" pos="936" pan="0" len="24" key="48"/>
          <note vol="27" pos="948" pan="0" len="24" key="62"/>
          <note vol="27" pos="948" pan="0" len="24" key="50"/>
          <note vol="10" pos="960" pan="0" len="24" key="60"/>
          <note vol="100" pos="960" pan="0" len="24" key="57"/>
          <note vol="10" pos="960" pan="0" len="24" key="47"/>
          <note vol="100" pos="960" pan="0" len="24" key="45"/>
          <note vol="27" pos="972" pan="0" len="24" key="64"/>
          <note vol="27" pos="972" pan="0" len="24" key="48"/>
          <note vol="10" pos="984" pan="0" len="24" key="62"/>
          <note vol="10" pos="984" pan="0" len="24" key="50"/>
          <note vol="27" pos="996" pan="0" len="24" key="57"/>
          <note vol="27" pos="996" pan="0" len="24" key="45"/>
          <note vol="10" pos="1008" pan="0" len="24" key="64"/>
          <note vol="100" pos="1008" pan="0" len="24" key="57"/>
          <note vol="10" pos="1008" pan="0" len="24" key="48"/>
          <note vol="100" pos="1032" pan="0" len="24" key="60"/>
          <note vol="10" pos="1032" pan="0" len="24" key="57"/>
          <note vol="10" pos="1032" pan="0" len="24" key="45"/>
          <note vol="100" pos="1032" pan="0" len="24" key="40"/>
          <note vol="27" pos="1044" pan="0" len="24" key="57"/>
          <note vol="100" pos="1056" pan="0" len="24" key="45"/>
          <note vol="27" pos="1068" pan="0" len="24" key="60"/>
          <note vol="27" pos="1068" pan="0" len="24" key="40"/>
          <note vol="10" pos="1080" pan="0" len="24" key="57"/>
          <note vol="100" pos="1080" pan="0" len="24" key="57"/>
          <note vol="27" pos="1092" pan="0" len="24" key="45"/>
          <note vol="10" pos="1104" pan="0" len="24" key="60"/>
          <note vol="100" pos="1104" pan="0" len="24" key="45"/>
          <note vol="10" pos="1104" pan="0" len="24" key="40"/>
          <note vol="27" pos="1116" pan="0" len="24" key="57"/>
          <note vol="10" pos="1128" pan="0" len="24" key="45"/>
          <note vol="27" pos="1140" pan="0" len="24" key="45"/>
          <note vol="100" pos="1152" pan="0" len="24" key="62"/>
          <note vol="10" pos="1152" pan="0" len="24" key="57"/>
          <note vol="100" pos="1152" pan="0" len="24" key="47"/>
          <note vol="10" pos="1176" pan="0" len="24" key="45"/>
          <note vol="27" pos="1188" pan="0" len="24" key="62"/>
          <note vol="27" pos="1188" pan="0" len="24" key="47"/>
          <note vol="100" pos="1200" pan="0" len="24" key="55"/>
          <note vol="100" pos="1200" pan="0" len="24" key="43"/>
          <note vol="10" pos="1224" pan="0" len="24" key="62"/>
          <note vol="10" pos="1224" pan="0" len="24" key="47"/>
          <note vol="27" pos="1236" pan="0" len="24" key="55"/>
          <note vol="27" pos="1236" pan="0" len="24" key="43"/>
          <note vol="10" pos="1272" pan="0" len="24" key="55"/>
          <note vol="100" pos="1272" pan="0" len="24" key="55"/>
          <note vol="100" pos="1272" pan="0" len="24" key="48"/>
          <note vol="10" pos="1272" pan="0" len="24" key="43"/>
          <note vol="100" pos="1296" pan="0" len="24" key="59"/>
          <note vol="100" pos="1296" pan="0" len="24" key="47"/>
          <note vol="27" pos="1308" pan="0" len="24" key="55"/>
          <note vol="27" pos="1308" pan="0" len="24" key="48"/>
          <note vol="100" pos="1320" pan="0" len="24" key="60"/>
          <note vol="27" pos="1332" pan="0" len="24" key="59"/>
          <note vol="27" pos="1332" pan="0" len="24" key="47"/>
          <note vol="10" pos="1344" pan="0" len="24" key="55"/>
          <note vol="10" pos="1344" pan="0" len="24" key="48"/>
          <note vol="100" pos="1344" pan="0" len="24" key="45"/>
          <note vol="27" pos="1356" pan="0" len="24" key="60"/>
          <note vol="10" pos="1368" pan="0" len="24" key="59"/>
          <note vol="10" pos="1368" pan="0" len="24" key="47"/>
          <note vol="27" pos="1380" pan="0" len="24" key="45"/>
          <note vol="10" pos="1392" pan="0" len="24" key="60"/>
          <note vol="100" pos="1392" pan="0" len="24" key="57"/>
          <note vol="10" pos="1416" pan="0" len="24" key="45"/>
          <note vol="27" pos="1428" pan="0" len="24" key="57"/>
          <note vol="100" pos="1440" pan="0" len="24" key="45"/>
          <note vol="10" pos="1464" pan="0" len="24" key="57"/>
          <note vol="27" pos="1476" pan="0" len="24" key="45"/>
          <note vol="10" pos="1512" pan="0" len="24" key="45"/>
        </pattern>
      </track>
      <track name="Beat/Bassline 3" solo="0" muted="0" type="1">
        <bbtrack/>
        <bbtco name="" color="4286611584" pos="4608" muted="0" usestyle="1" len="576"/>
        <bbtco name="" color="4286611584" pos="6144" muted="0" usestyle="1" len="576"/>
        <bbtco name="" color="4286611584" pos="5376" muted="0" usestyle="1" len="576"/>
        <bbtco name="" color="4286611584" pos="6912" muted="0" usestyle="1" len="576"/>
        <bbtco name="" color="4286611584" pos="27264" muted="0" usestyle="1" len="192"/>
      </track>
      <track name="Beat/Bassline 4" solo="0" muted="0" type="1">
        <bbtrack/>
        <bbtco name="" color="4286611584" pos="5952" muted="0" usestyle="1" len="192"/>
        <bbtco name="" color="4286611584" pos="7488" muted="0" usestyle="1" len="192"/>
      </track>
      <track name="Beat/Bassline 5" solo="0" muted="0" type="1">
        <bbtrack/>
        <bbtco name="" color="4286611584" pos="5184" muted="0" usestyle="1" len="192"/>
        <bbtco name="" color="4286611584" pos="6720" muted="0" usestyle="1" len="192"/>
        <bbtco name="" color="4286611584" pos="7104" muted="0" usestyle="1" len="192"/>
        <bbtco name="" color="4286611584" pos="7296" muted="0" usestyle="1" len="192"/>
        <bbtco name="" color="4286611584" pos="6912" muted="0" usestyle="1" len="192"/>
      </track>
      <track name="Beat/Bassline 7" solo="0" muted="0" type="1">
        <bbtrack/>
        <bbtco name="" color="4286611584" pos="7104" muted="0" usestyle="1" len="576"/>
      </track>
      <track name="BitInvader" solo="0" muted="0" type="0">
        <instrumenttrack pitchrange="1" vol="72.3" usemasterpitch="1" pitch="0" basenote="57" pan="0" fxch="0">
          <instrument name="bitinvader">
            <bitinvader sampleShape="AACAvwAAfL8AAHi/AAB0vwAAcL9U1hS/VNYUv1TWFL9U1hS/VNYUv1TWFL9U1hS/VNYUv1TWFL9U1hS/VNYUv1TWFL9U1hS/VNYUv1TWFL9U1hS/VNYUv1jUFb9c0ha/ZM4Yv2TOGL9kzhi/ZM4Yv2TOGL8AAAy/AAAIvwAABL8AAAC/AAD4vgAA8L4AAOi+AADgvgAA2L4AANC+AADIvgAAwL4AALi+AACwvgAAqL4AAKC+AACYvgAAkL7AH3A/wB9wP8AfcD/AH3A/wB9wP8AfcD/AH3A/wB9wP8AfcD/AH3A/wB9wP9AXdD8c8gY+HPIGPgAAQL0AAAC9AACAvAAAAAAAAIA8AAAAPQAAQD0AAIA9AACgPQAAwD0AAOA9AAAAPgAAED4AACA+AAAwPgAAQD4AAFA+AABgPgAAcD4AAIA+AACIPgAAkD4AAJg+AACgPgAAqD4AALA+AAC4PgAAwD4AAMg+qqqqPkzakj4M+oI+GMlwPlhTVj5YU1Y+WFNWPlhTVj5YU1Y+WFNWPlhTVj5YU1Y+WFNWPgp7wj4Jptc+iDviPugL+j4I/AE/DPoCP4GMBj/uIgg/x08LP2SjAz8I0ew+SIbnPmlL2j6mv8Q+IRS/Phi9sz6TEa4+esKePlzSlj7fQ5E+BheOPnYCiT5UhIU+MQaCPlzSFj4=" version="0.1" normalize="0" sampleLength="128" interpolation="0"/>
          </instrument>
          <eldata fres="0.5" fcut="2025" ftype="0" fwet="1">
            <elvol sustain="0.5" ctlenvamt="0" att="0" lamt="0" amt="1" lshp="0" lspd_denominator="4" x100="0" lspd_syncmode="0" lpdel="0" lspd_numerator="4" lspd="0.1" pdel="0" hold="0.5" userwavefile="" rel="0.266" dec="0.5" latt="0"/>
            <elcut sustain="0" ctlenvamt="0" att="0" lamt="0" amt="1" lshp="0" lspd_denominator="4" x100="0" lspd_syncmode="0" lpdel="0" lspd_numerator="4" lspd="0.1" pdel="0" hold="0" userwavefile="" rel="0.774" dec="0.109" latt="0"/>
            <elres sustain="0.5" ctlenvamt="0" att="0" lamt="0" amt="0" lshp="0" lspd_denominator="4" x100="0" lspd_syncmode="0" lpdel="0" lspd_numerator="4" lspd="0.1" pdel="0" hold="0.5" userwavefile="" rel="0.1" dec="0.5" latt="0"/>
          </eldata>
          <chordcreator chordrange="1" chord="0" chord-enabled="0"/>
          <arpeggiator arpgate="100" arp-enabled="0" arpcycle="0" arptime_denominator="4" arprange="1" arptime_numerator="4" arpdir="0" arpmiss="0" arpmode="0" arp="0" arptime_syncmode="0" arpskip="0" arptime="200"/>
          <midiport outputprogram="1" fixedinputvelocity="-1" outputcontroller="0" readable="0" writable="0" fixedoutputnote="-1" basevelocity="63" fixedoutputvelocity="-1" inputcontroller="0" outputchannel="1" inputchannel="0"/>
          <fxchain enabled="0" numofeffects="0"/>
        </instrumenttrack>
        <pattern name="BitInvader" pos="13056" muted="0" steps="16" type="1">
          <note vol="102" pos="0" pan="0" len="18" key="53"/>
          <note vol="102" pos="0" pan="0" len="24" key="29"/>
          <note vol="102" pos="24" pan="0" len="18" key="57"/>
          <note vol="102" pos="24" pan="0" len="24" key="41"/>
          <note vol="102" pos="48" pan="0" len="18" key="62"/>
          <note vol="102" pos="48" pan="0" len="24" key="29"/>
          <note vol="102" pos="72" pan="0" len="18" key="64"/>
          <note vol="102" pos="72" pan="0" len="24" key="41"/>
          <note vol="102" pos="96" pan="0" len="18" key="65"/>
          <note vol="102" pos="96" pan="0" len="24" key="24"/>
          <note vol="102" pos="120" pan="0" len="18" key="62"/>
          <note vol="102" pos="120" pan="0" len="24" key="36"/>
          <note vol="102" pos="144" pan="0" len="18" key="69"/>
          <note vol="102" pos="144" pan="0" len="24" key="26"/>
          <note vol="102" pos="168" pan="0" len="18" key="65"/>
          <note vol="102" pos="168" pan="0" len="24" key="38"/>
          <note vol="102" pos="192" pan="0" len="18" key="70"/>
          <note vol="102" pos="192" pan="0" len="24" key="26"/>
          <note vol="102" pos="216" pan="0" len="18" key="65"/>
          <note vol="102" pos="216" pan="0" len="24" key="38"/>
          <note vol="102" pos="240" pan="0" len="18" key="62"/>
          <note vol="102" pos="240" pan="0" len="24" key="29"/>
          <note vol="102" pos="264" pan="0" len="18" key="58"/>
          <note vol="102" pos="264" pan="0" len="24" key="41"/>
          <note vol="102" pos="288" pan="0" len="18" key="53"/>
          <note vol="102" pos="288" pan="0" len="24" key="22"/>
          <note vol="102" pos="312" pan="0" len="18" key="50"/>
          <note vol="102" pos="312" pan="0" len="24" key="34"/>
          <note vol="102" pos="336" pan="0" len="18" key="46"/>
          <note vol="102" pos="336" pan="0" len="24" key="34"/>
          <note vol="102" pos="360" pan="0" len="18" key="41"/>
          <note vol="102" pos="360" pan="0" len="24" key="22"/>
          <note vol="102" pos="384" pan="0" len="18" key="53"/>
          <note vol="102" pos="384" pan="0" len="24" key="26"/>
          <note vol="102" pos="408" pan="0" len="18" key="57"/>
          <note vol="102" pos="408" pan="0" len="24" key="38"/>
          <note vol="102" pos="432" pan="0" len="18" key="62"/>
          <note vol="102" pos="432" pan="0" len="24" key="26"/>
          <note vol="102" pos="456" pan="0" len="18" key="61"/>
          <note vol="102" pos="456" pan="0" len="24" key="33"/>
          <note vol="102" pos="480" pan="0" len="18" key="62"/>
          <note vol="102" pos="480" pan="0" len="24" key="34"/>
          <note vol="102" pos="504" pan="0" len="18" key="64"/>
          <note vol="102" pos="504" pan="0" len="24" key="46"/>
          <note vol="102" pos="528" pan="0" len="18" key="65"/>
          <note vol="102" pos="528" pan="0" len="24" key="34"/>
          <note vol="102" pos="552" pan="0" len="18" key="62"/>
          <note vol="102" pos="552" pan="0" len="24" key="46"/>
          <note vol="102" pos="576" pan="0" len="18" key="60"/>
          <note vol="102" pos="576" pan="0" len="24" key="29"/>
          <note vol="102" pos="600" pan="0" len="18" key="69"/>
          <note vol="102" pos="600" pan="0" len="24" key="41"/>
          <note vol="102" pos="624" pan="0" len="18" key="65"/>
          <note vol="102" pos="624" pan="0" len="24" key="29"/>
          <note vol="102" pos="648" pan="0" len="18" key="62"/>
          <note vol="102" pos="648" pan="0" len="24" key="28"/>
          <note vol="102" pos="672" pan="0" len="18" key="60"/>
          <note vol="102" pos="672" pan="0" len="24" key="24"/>
          <note vol="102" pos="696" pan="0" len="18" key="57"/>
          <note vol="102" pos="696" pan="0" len="24" key="36"/>
          <note vol="102" pos="720" pan="0" len="18" key="55"/>
          <note vol="102" pos="720" pan="0" len="24" key="24"/>
          <note vol="102" pos="744" pan="0" len="18" key="52"/>
          <note vol="102" pos="744" pan="0" len="24" key="28"/>
          <note vol="102" pos="768" pan="0" len="18" key="53"/>
          <note vol="102" pos="768" pan="0" len="24" key="26"/>
          <note vol="102" pos="792" pan="0" len="18" key="52"/>
          <note vol="102" pos="792" pan="0" len="24" key="33"/>
          <note vol="102" pos="816" pan="0" len="18" key="50"/>
          <note vol="102" pos="816" pan="0" len="24" key="29"/>
          <note vol="102" pos="840" pan="0" len="18" key="45"/>
          <note vol="102" pos="840" pan="0" len="24" key="38"/>
          <note vol="102" pos="864" pan="0" len="18" key="46"/>
          <note vol="102" pos="864" pan="0" len="24" key="22"/>
          <note vol="102" pos="888" pan="0" len="18" key="50"/>
          <note vol="102" pos="888" pan="0" len="24" key="29"/>
          <note vol="102" pos="912" pan="0" len="18" key="53"/>
          <note vol="102" pos="912" pan="0" len="24" key="26"/>
          <note vol="102" pos="936" pan="0" len="18" key="57"/>
          <note vol="102" pos="936" pan="0" len="24" key="33"/>
          <note vol="102" pos="960" pan="0" len="18" key="48"/>
          <note vol="102" pos="960" pan="0" len="24" key="24"/>
          <note vol="102" pos="984" pan="0" len="18" key="52"/>
          <note vol="102" pos="984" pan="0" len="24" key="31"/>
          <note vol="102" pos="1008" pan="0" len="18" key="53"/>
          <note vol="102" pos="1008" pan="0" len="24" key="28"/>
          <note vol="102" pos="1032" pan="0" len="18" key="55"/>
          <note vol="102" pos="1032" pan="0" len="24" key="31"/>
          <note vol="102" pos="1056" pan="0" len="18" key="57"/>
          <note vol="102" pos="1056" pan="0" len="24" key="29"/>
          <note vol="102" pos="1080" pan="0" len="18" key="60"/>
          <note vol="102" pos="1080" pan="0" len="24" key="36"/>
          <note vol="102" pos="1104" pan="0" len="18" key="64"/>
          <note vol="102" pos="1104" pan="0" len="24" key="33"/>
          <note vol="102" pos="1128" pan="0" len="18" key="65"/>
          <note vol="102" pos="1128" pan="0" len="24" key="37"/>
          <note vol="102" pos="1152" pan="0" len="18" key="50"/>
          <note vol="102" pos="1152" pan="0" len="24" key="34"/>
          <note vol="102" pos="1176" pan="0" len="18" key="53"/>
          <note vol="102" pos="1176" pan="0" len="24" key="38"/>
          <note vol="102" pos="1200" pan="0" len="18" key="57"/>
          <note vol="102" pos="1200" pan="0" len="24" key="29"/>
          <note vol="102" pos="1224" pan="0" len="18" key="60"/>
          <note vol="102" pos="1224" pan="0" len="24" key="36"/>
          <note vol="102" pos="1248" pan="0" len="18" key="64"/>
          <note vol="102" pos="1248" pan="0" len="24" key="29"/>
          <note vol="102" pos="1272" pan="0" len="18" key="65"/>
          <note vol="102" pos="1272" pan="0" len="24" key="36"/>
          <note vol="102" pos="1296" pan="0" len="18" key="67"/>
          <note vol="102" pos="1296" pan="0" len="24" key="33"/>
          <note vol="102" pos="1320" pan="0" len="18" key="65"/>
          <note vol="102" pos="1320" pan="0" len="24" key="26"/>
          <note vol="102" pos="1344" pan="0" len="18" key="64"/>
          <note vol="102" pos="1344" pan="0" len="24" key="24"/>
          <note vol="102" pos="1368" pan="0" len="18" key="60"/>
          <note vol="102" pos="1368" pan="0" len="24" key="29"/>
          <note vol="102" pos="1392" pan="0" len="18" key="62"/>
          <note vol="102" pos="1392" pan="0" len="24" key="33"/>
          <note vol="102" pos="1416" pan="0" len="18" key="57"/>
          <note vol="102" pos="1416" pan="0" len="24" key="38"/>
          <note vol="102" pos="1440" pan="0" len="18" key="65"/>
          <note vol="102" pos="1440" pan="0" len="24" key="41"/>
          <note vol="102" pos="1464" pan="0" len="18" key="64"/>
          <note vol="102" pos="1464" pan="0" len="24" key="29"/>
          <note vol="102" pos="1488" pan="0" len="18" key="61"/>
          <note vol="102" pos="1488" pan="0" len="24" key="40"/>
          <note vol="102" pos="1512" pan="0" len="18" key="58"/>
          <note vol="102" pos="1512" pan="0" len="24" key="28"/>
        </pattern>
        <pattern name="fuerelitebeides" pos="20736" muted="0" steps="16" type="1">
          <note vol="100" pos="0" pan="0" len="24" key="52"/>
          <note vol="100" pos="0" pan="0" len="36" key="21"/>
          <note vol="100" pos="24" pan="0" len="24" key="51"/>
          <note vol="100" pos="48" pan="0" len="24" key="52"/>
          <note vol="100" pos="48" pan="0" len="24" key="21"/>
          <note vol="100" pos="72" pan="0" len="24" key="51"/>
          <note vol="100" pos="72" pan="0" len="24" key="33"/>
          <note vol="100" pos="96" pan="0" len="24" key="52"/>
          <note vol="100" pos="96" pan="0" len="24" key="21"/>
          <note vol="100" pos="120" pan="0" len="24" key="47"/>
          <note vol="100" pos="120" pan="0" len="24" key="33"/>
          <note vol="100" pos="144" pan="0" len="24" key="50"/>
          <note vol="100" pos="168" pan="0" len="24" key="48"/>
          <note vol="100" pos="168" pan="0" len="24" key="21"/>
          <note vol="100" pos="192" pan="0" len="24" key="45"/>
          <note vol="100" pos="192" pan="0" len="36" key="21"/>
          <note vol="100" pos="240" pan="0" len="24" key="21"/>
          <note vol="100" pos="264" pan="0" len="24" key="40"/>
          <note vol="100" pos="264" pan="0" len="24" key="33"/>
          <note vol="100" pos="288" pan="0" len="24" key="45"/>
          <note vol="100" pos="288" pan="0" len="24" key="21"/>
          <note vol="100" pos="312" pan="0" len="24" key="33"/>
          <note vol="100" pos="336" pan="0" len="24" key="45"/>
          <note vol="100" pos="360" pan="0" len="24" key="47"/>
          <note vol="100" pos="360" pan="0" len="24" key="28"/>
          <note vol="100" pos="384" pan="0" len="36" key="28"/>
          <note vol="100" pos="408" pan="0" len="24" key="45"/>
          <note vol="100" pos="432" pan="0" len="24" key="47"/>
          <note vol="100" pos="432" pan="0" len="24" key="28"/>
          <note vol="100" pos="456" pan="0" len="24" key="45"/>
          <note vol="100" pos="456" pan="0" len="24" key="40"/>
          <note vol="100" pos="480" pan="0" len="24" key="47"/>
          <note vol="100" pos="480" pan="0" len="24" key="28"/>
          <note vol="100" pos="504" pan="0" len="24" key="40"/>
          <note vol="100" pos="528" pan="0" len="24" key="45"/>
          <note vol="100" pos="552" pan="0" len="24" key="29"/>
          <note vol="100" pos="576" pan="0" len="24" key="48"/>
          <note vol="100" pos="576" pan="0" len="36" key="29"/>
          <note vol="100" pos="624" pan="0" len="24" key="45"/>
          <note vol="100" pos="624" pan="0" len="24" key="29"/>
          <note vol="100" pos="648" pan="0" len="24" key="41"/>
          <note vol="100" pos="672" pan="0" len="24" key="45"/>
          <note vol="100" pos="672" pan="0" len="24" key="29"/>
          <note vol="100" pos="696" pan="0" len="24" key="41"/>
          <note vol="100" pos="720" pan="0" len="24" key="43"/>
          <note vol="100" pos="744" pan="0" len="24" key="24"/>
          <note vol="100" pos="768" pan="0" len="24" key="52"/>
          <note vol="100" pos="768" pan="0" len="36" key="24"/>
          <note vol="100" pos="792" pan="0" len="24" key="51"/>
          <note vol="100" pos="816" pan="0" len="24" key="52"/>
          <note vol="100" pos="816" pan="0" len="24" key="24"/>
          <note vol="100" pos="840" pan="0" len="24" key="51"/>
          <note vol="100" pos="840" pan="0" len="24" key="36"/>
          <note vol="100" pos="864" pan="0" len="24" key="52"/>
          <note vol="100" pos="864" pan="0" len="24" key="24"/>
          <note vol="100" pos="888" pan="0" len="24" key="47"/>
          <note vol="100" pos="888" pan="0" len="24" key="31"/>
          <note vol="100" pos="912" pan="0" len="24" key="50"/>
          <note vol="100" pos="936" pan="0" len="24" key="48"/>
          <note vol="100" pos="936" pan="0" len="24" key="21"/>
          <note vol="100" pos="960" pan="0" len="24" key="45"/>
          <note vol="100" pos="960" pan="0" len="36" key="21"/>
          <note vol="100" pos="1008" pan="0" len="24" key="21"/>
          <note vol="100" pos="1032" pan="0" len="24" key="40"/>
          <note vol="100" pos="1032" pan="0" len="24" key="33"/>
          <note vol="100" pos="1056" pan="0" len="24" key="45"/>
          <note vol="100" pos="1056" pan="0" len="24" key="21"/>
          <note vol="100" pos="1080" pan="0" len="24" key="33"/>
          <note vol="100" pos="1104" pan="0" len="24" key="45"/>
          <note vol="100" pos="1128" pan="0" len="24" key="19"/>
          <note vol="100" pos="1152" pan="0" len="24" key="47"/>
          <note vol="100" pos="1152" pan="0" len="36" key="19"/>
          <note vol="100" pos="1200" pan="0" len="24" key="43"/>
          <note vol="100" pos="1200" pan="0" len="24" key="19"/>
          <note vol="100" pos="1224" pan="0" len="24" key="31"/>
          <note vol="100" pos="1248" pan="0" len="24" key="19"/>
          <note vol="100" pos="1272" pan="0" len="24" key="48"/>
          <note vol="100" pos="1272" pan="0" len="24" key="31"/>
          <note vol="100" pos="1296" pan="0" len="24" key="47"/>
          <note vol="100" pos="1320" pan="0" len="24" key="21"/>
          <note vol="100" pos="1344" pan="0" len="24" key="45"/>
          <note vol="100" pos="1344" pan="0" len="36" key="21"/>
          <note vol="100" pos="1392" pan="0" len="24" key="27"/>
          <note vol="100" pos="1416" pan="0" len="24" key="33"/>
          <note vol="100" pos="1440" pan="0" len="24" key="36"/>
          <note vol="100" pos="1464" pan="0" len="24" key="39"/>
          <note vol="100" pos="1488" pan="0" len="24" key="40"/>
          <note vol="100" pos="1512" pan="0" len="24" key="43"/>
          <note vol="100" pos="1512" pan="0" len="24" key="21"/>
          <note vol="100" pos="1536" pan="0" len="24" key="52"/>
          <note vol="100" pos="1536" pan="0" len="36" key="21"/>
          <note vol="100" pos="1560" pan="0" len="24" key="51"/>
          <note vol="100" pos="1584" pan="0" len="24" key="52"/>
          <note vol="100" pos="1584" pan="0" len="24" key="21"/>
          <note vol="100" pos="1608" pan="0" len="24" key="51"/>
          <note vol="100" pos="1608" pan="0" len="24" key="33"/>
          <note vol="100" pos="1632" pan="0" len="24" key="52"/>
          <note vol="100" pos="1632" pan="0" len="24" key="21"/>
          <note vol="100" pos="1656" pan="0" len="24" key="47"/>
          <note vol="100" pos="1656" pan="0" len="24" key="33"/>
          <note vol="100" pos="1680" pan="0" len="24" key="50"/>
          <note vol="100" pos="1704" pan="0" len="24" key="48"/>
          <note vol="100" pos="1704" pan="0" len="24" key="21"/>
          <note vol="100" pos="1728" pan="0" len="24" key="45"/>
          <note vol="100" pos="1728" pan="0" len="36" key="21"/>
          <note vol="100" pos="1776" pan="0" len="24" key="21"/>
          <note vol="100" pos="1800" pan="0" len="24" key="40"/>
          <note vol="100" pos="1800" pan="0" len="24" key="33"/>
          <note vol="100" pos="1824" pan="0" len="24" key="45"/>
          <note vol="100" pos="1824" pan="0" len="24" key="21"/>
          <note vol="100" pos="1848" pan="0" len="24" key="48"/>
          <note vol="100" pos="1848" pan="0" len="24" key="33"/>
          <note vol="100" pos="1872" pan="0" len="24" key="57"/>
          <note vol="100" pos="1872" pan="0" len="24" key="45"/>
          <note vol="100" pos="1896" pan="0" len="24" key="52"/>
          <note vol="100" pos="1896" pan="0" len="24" key="47"/>
          <note vol="100" pos="1896" pan="0" len="24" key="28"/>
          <note vol="100" pos="1920" pan="0" len="24" key="64"/>
          <note vol="100" pos="1920" pan="0" len="36" key="28"/>
          <note vol="100" pos="1944" pan="0" len="24" key="45"/>
          <note vol="100" pos="1968" pan="0" len="24" key="47"/>
          <note vol="100" pos="1968" pan="0" len="24" key="28"/>
          <note vol="100" pos="1992" pan="0" len="24" key="60"/>
          <note vol="100" pos="1992" pan="0" len="24" key="45"/>
          <note vol="100" pos="1992" pan="0" len="24" key="40"/>
          <note vol="100" pos="2016" pan="0" len="24" key="62"/>
          <note vol="100" pos="2016" pan="0" len="24" key="47"/>
          <note vol="100" pos="2016" pan="0" len="24" key="28"/>
          <note vol="100" pos="2040" pan="0" len="24" key="40"/>
          <note vol="100" pos="2064" pan="0" len="24" key="57"/>
          <note vol="100" pos="2064" pan="0" len="24" key="45"/>
          <note vol="100" pos="2088" pan="0" len="24" key="29"/>
          <note vol="100" pos="2112" pan="0" len="24" key="60"/>
          <note vol="100" pos="2112" pan="0" len="24" key="48"/>
          <note vol="100" pos="2112" pan="0" len="36" key="29"/>
          <note vol="100" pos="2136" pan="0" len="24" key="64"/>
          <note vol="100" pos="2160" pan="0" len="24" key="62"/>
          <note vol="100" pos="2160" pan="0" len="24" key="45"/>
          <note vol="100" pos="2160" pan="0" len="24" key="29"/>
          <note vol="100" pos="2184" pan="0" len="24" key="55"/>
          <note vol="100" pos="2184" pan="0" len="24" key="41"/>
          <note vol="100" pos="2208" pan="0" len="24" key="45"/>
          <note vol="100" pos="2208" pan="0" len="24" key="29"/>
          <note vol="100" pos="2232" pan="0" len="24" key="57"/>
          <note vol="100" pos="2232" pan="0" len="24" key="41"/>
          <note vol="100" pos="2256" pan="0" len="24" key="59"/>
          <note vol="100" pos="2256" pan="0" len="24" key="43"/>
          <note vol="100" pos="2280" pan="0" len="24" key="60"/>
          <note vol="100" pos="2280" pan="0" len="24" key="24"/>
          <note vol="100" pos="2304" pan="0" len="24" key="64"/>
          <note vol="100" pos="2304" pan="0" len="24" key="52"/>
          <note vol="100" pos="2304" pan="0" len="36" key="24"/>
          <note vol="100" pos="2328" pan="0" len="24" key="51"/>
          <note vol="100" pos="2352" pan="0" len="24" key="52"/>
          <note vol="100" pos="2352" pan="0" len="24" key="24"/>
          <note vol="100" pos="2376" pan="0" len="24" key="60"/>
          <note vol="100" pos="2376" pan="0" len="24" key="51"/>
          <note vol="100" pos="2376" pan="0" len="24" key="36"/>
          <note vol="100" pos="2400" pan="0" len="24" key="62"/>
          <note vol="100" pos="2400" pan="0" len="24" key="52"/>
          <note vol="100" pos="2400" pan="0" len="24" key="24"/>
          <note vol="100" pos="2424" pan="0" len="24" key="60"/>
          <note vol="100" pos="2424" pan="0" len="24" key="47"/>
          <note vol="100" pos="2424" pan="0" len="24" key="31"/>
          <note vol="100" pos="2448" pan="0" len="24" key="62"/>
          <note vol="100" pos="2448" pan="0" len="24" key="50"/>
          <note vol="100" pos="2472" pan="0" len="24" key="64"/>
          <note vol="100" pos="2472" pan="0" len="24" key="48"/>
          <note vol="100" pos="2472" pan="0" len="24" key="21"/>
          <note vol="100" pos="2496" pan="0" len="24" key="57"/>
          <note vol="100" pos="2496" pan="0" len="24" key="45"/>
          <note vol="100" pos="2496" pan="0" len="36" key="21"/>
          <note vol="100" pos="2544" pan="0" len="24" key="57"/>
          <note vol="100" pos="2544" pan="0" len="24" key="21"/>
          <note vol="100" pos="2568" pan="0" len="24" key="60"/>
          <note vol="100" pos="2568" pan="0" len="24" key="40"/>
          <note vol="100" pos="2568" pan="0" len="24" key="33"/>
          <note vol="100" pos="2592" pan="0" len="24" key="45"/>
          <note vol="100" pos="2592" pan="0" len="24" key="21"/>
          <note vol="100" pos="2616" pan="0" len="24" key="57"/>
          <note vol="100" pos="2616" pan="0" len="24" key="33"/>
          <note vol="100" pos="2640" pan="0" len="24" key="45"/>
          <note vol="100" pos="2664" pan="0" len="24" key="19"/>
          <note vol="100" pos="2688" pan="0" len="24" key="62"/>
          <note vol="100" pos="2688" pan="0" len="24" key="47"/>
          <note vol="100" pos="2688" pan="0" len="36" key="19"/>
          <note vol="100" pos="2736" pan="0" len="24" key="55"/>
          <note vol="100" pos="2736" pan="0" len="24" key="43"/>
          <note vol="100" pos="2736" pan="0" len="24" key="19"/>
          <note vol="100" pos="2760" pan="0" len="24" key="31"/>
          <note vol="100" pos="2784" pan="0" len="24" key="19"/>
          <note vol="100" pos="2808" pan="0" len="24" key="55"/>
          <note vol="100" pos="2808" pan="0" len="24" key="48"/>
          <note vol="100" pos="2808" pan="0" len="24" key="31"/>
          <note vol="100" pos="2832" pan="0" len="24" key="59"/>
          <note vol="100" pos="2832" pan="0" len="24" key="47"/>
          <note vol="100" pos="2856" pan="0" len="24" key="60"/>
          <note vol="100" pos="2856" pan="0" len="24" key="21"/>
          <note vol="100" pos="2880" pan="0" len="24" key="45"/>
          <note vol="100" pos="2880" pan="0" len="36" key="21"/>
          <note vol="100" pos="2928" pan="0" len="24" key="57"/>
          <note vol="100" pos="2928" pan="0" len="24" key="9"/>
          <note vol="100" pos="2952" pan="0" len="24" key="21"/>
          <note vol="100" pos="2976" pan="0" len="24" key="45"/>
          <note vol="100" pos="2976" pan="0" len="24" key="9"/>
          <note vol="100" pos="3000" pan="0" len="24" key="21"/>
          <note vol="100" pos="3048" pan="0" len="24" key="21"/>
        </pattern>
        <pattern name="deep" pos="19200" muted="0" steps="16" type="1">
          <note vol="120" pos="0" pan="0" len="36" key="21"/>
          <note vol="120" pos="48" pan="0" len="24" key="9"/>
          <note vol="120" pos="72" pan="0" len="24" key="21"/>
          <note vol="120" pos="96" pan="0" len="24" key="9"/>
          <note vol="120" pos="120" pan="0" len="24" key="21"/>
          <note vol="120" pos="168" pan="0" len="24" key="21"/>
          <note vol="120" pos="192" pan="0" len="36" key="21"/>
          <note vol="120" pos="240" pan="0" len="24" key="9"/>
          <note vol="120" pos="264" pan="0" len="24" key="21"/>
          <note vol="120" pos="288" pan="0" len="24" key="9"/>
          <note vol="120" pos="312" pan="0" len="24" key="21"/>
          <note vol="120" pos="360" pan="0" len="24" key="21"/>
          <note vol="120" pos="384" pan="0" len="36" key="21"/>
          <note vol="120" pos="432" pan="0" len="24" key="9"/>
          <note vol="120" pos="456" pan="0" len="24" key="21"/>
          <note vol="120" pos="480" pan="0" len="24" key="9"/>
          <note vol="120" pos="504" pan="0" len="24" key="21"/>
          <note vol="120" pos="552" pan="0" len="24" key="21"/>
          <note vol="120" pos="576" pan="0" len="36" key="21"/>
          <note vol="120" pos="624" pan="0" len="24" key="9"/>
          <note vol="120" pos="648" pan="0" len="24" key="21"/>
          <note vol="120" pos="672" pan="0" len="24" key="9"/>
          <note vol="120" pos="696" pan="0" len="24" key="21"/>
          <note vol="120" pos="744" pan="0" len="24" key="21"/>
          <note vol="120" pos="768" pan="0" len="36" key="21"/>
          <note vol="120" pos="816" pan="0" len="24" key="9"/>
          <note vol="120" pos="840" pan="0" len="24" key="21"/>
          <note vol="120" pos="864" pan="0" len="24" key="9"/>
          <note vol="120" pos="888" pan="0" len="24" key="21"/>
          <note vol="120" pos="936" pan="0" len="24" key="21"/>
          <note vol="120" pos="960" pan="0" len="36" key="21"/>
          <note vol="120" pos="1008" pan="0" len="24" key="9"/>
          <note vol="120" pos="1032" pan="0" len="24" key="21"/>
          <note vol="120" pos="1056" pan="0" len="24" key="9"/>
          <note vol="120" pos="1080" pan="0" len="24" key="21"/>
          <note vol="120" pos="1128" pan="0" len="24" key="21"/>
          <note vol="120" pos="1152" pan="0" len="36" key="21"/>
          <note vol="120" pos="1200" pan="0" len="24" key="9"/>
          <note vol="120" pos="1224" pan="0" len="24" key="21"/>
          <note vol="120" pos="1248" pan="0" len="24" key="9"/>
          <note vol="120" pos="1272" pan="0" len="24" key="21"/>
          <note vol="120" pos="1320" pan="0" len="24" key="21"/>
          <note vol="120" pos="1344" pan="0" len="36" key="21"/>
          <note vol="120" pos="1392" pan="0" len="24" key="9"/>
          <note vol="120" pos="1416" pan="0" len="24" key="21"/>
          <note vol="120" pos="1440" pan="0" len="24" key="9"/>
          <note vol="120" pos="1464" pan="0" len="24" key="21"/>
          <note vol="120" pos="1512" pan="0" len="24" key="21"/>
        </pattern>
        <pattern name="fuerelitebegl" pos="23808" muted="0" steps="16" type="1">
          <note vol="100" pos="0" pan="0" len="36" key="21"/>
          <note vol="100" pos="48" pan="0" len="24" key="21"/>
          <note vol="100" pos="72" pan="0" len="24" key="33"/>
          <note vol="100" pos="96" pan="0" len="24" key="21"/>
          <note vol="100" pos="120" pan="0" len="24" key="33"/>
          <note vol="100" pos="168" pan="0" len="24" key="21"/>
          <note vol="100" pos="192" pan="0" len="36" key="21"/>
          <note vol="100" pos="240" pan="0" len="24" key="21"/>
          <note vol="100" pos="264" pan="0" len="24" key="33"/>
          <note vol="100" pos="288" pan="0" len="24" key="21"/>
          <note vol="100" pos="312" pan="0" len="24" key="28"/>
          <note vol="100" pos="360" pan="0" len="24" key="28"/>
          <note vol="100" pos="384" pan="0" len="36" key="28"/>
          <note vol="100" pos="432" pan="0" len="24" key="28"/>
          <note vol="100" pos="456" pan="0" len="24" key="40"/>
          <note vol="100" pos="480" pan="0" len="24" key="28"/>
          <note vol="100" pos="504" pan="0" len="24" key="40"/>
          <note vol="100" pos="552" pan="0" len="24" key="29"/>
          <note vol="100" pos="576" pan="0" len="36" key="29"/>
          <note vol="100" pos="624" pan="0" len="24" key="29"/>
          <note vol="100" pos="648" pan="0" len="24" key="41"/>
          <note vol="100" pos="672" pan="0" len="24" key="29"/>
          <note vol="100" pos="696" pan="0" len="24" key="36"/>
          <note vol="100" pos="744" pan="0" len="24" key="24"/>
          <note vol="100" pos="768" pan="0" len="36" key="24"/>
          <note vol="100" pos="816" pan="0" len="24" key="24"/>
          <note vol="100" pos="840" pan="0" len="24" key="36"/>
          <note vol="100" pos="864" pan="0" len="24" key="24"/>
          <note vol="100" pos="888" pan="0" len="24" key="31"/>
          <note vol="100" pos="936" pan="0" len="24" key="21"/>
          <note vol="100" pos="960" pan="0" len="36" key="21"/>
          <note vol="100" pos="1008" pan="0" len="24" key="21"/>
          <note vol="100" pos="1032" pan="0" len="24" key="33"/>
          <note vol="100" pos="1056" pan="0" len="24" key="21"/>
          <note vol="100" pos="1080" pan="0" len="24" key="33"/>
          <note vol="100" pos="1128" pan="0" len="24" key="19"/>
          <note vol="100" pos="1152" pan="0" len="36" key="19"/>
          <note vol="100" pos="1200" pan="0" len="24" key="19"/>
          <note vol="100" pos="1224" pan="0" len="24" key="31"/>
          <note vol="100" pos="1248" pan="0" len="24" key="19"/>
          <note vol="100" pos="1272" pan="0" len="24" key="31"/>
          <note vol="100" pos="1320" pan="0" len="24" key="21"/>
          <note vol="100" pos="1344" pan="0" len="36" key="21"/>
          <note vol="100" pos="1392" pan="0" len="24" key="9"/>
          <note vol="100" pos="1416" pan="0" len="24" key="21"/>
          <note vol="100" pos="1440" pan="0" len="24" key="9"/>
          <note vol="100" pos="1464" pan="0" len="24" key="21"/>
          <note vol="100" pos="1512" pan="0" len="24" key="21"/>
          <note vol="100" pos="1536" pan="0" len="36" key="21"/>
          <note vol="100" pos="1584" pan="0" len="24" key="21"/>
          <note vol="100" pos="1608" pan="0" len="24" key="33"/>
          <note vol="100" pos="1632" pan="0" len="24" key="21"/>
          <note vol="100" pos="1656" pan="0" len="24" key="33"/>
          <note vol="100" pos="1704" pan="0" len="24" key="21"/>
          <note vol="100" pos="1728" pan="0" len="36" key="21"/>
          <note vol="100" pos="1776" pan="0" len="24" key="21"/>
          <note vol="100" pos="1800" pan="0" len="24" key="33"/>
          <note vol="100" pos="1824" pan="0" len="24" key="21"/>
          <note vol="100" pos="1848" pan="0" len="24" key="33"/>
          <note vol="100" pos="1896" pan="0" len="24" key="28"/>
          <note vol="100" pos="1920" pan="0" len="36" key="28"/>
          <note vol="100" pos="1968" pan="0" len="24" key="28"/>
          <note vol="100" pos="1992" pan="0" len="24" key="40"/>
          <note vol="100" pos="2016" pan="0" len="24" key="28"/>
          <note vol="100" pos="2040" pan="0" len="24" key="40"/>
          <note vol="100" pos="2088" pan="0" len="24" key="29"/>
          <note vol="100" pos="2112" pan="0" len="36" key="29"/>
          <note vol="100" pos="2160" pan="0" len="24" key="29"/>
          <note vol="100" pos="2184" pan="0" len="24" key="41"/>
          <note vol="100" pos="2208" pan="0" len="24" key="29"/>
          <note vol="100" pos="2232" pan="0" len="24" key="36"/>
          <note vol="100" pos="2280" pan="0" len="24" key="24"/>
          <note vol="100" pos="2304" pan="0" len="36" key="24"/>
          <note vol="100" pos="2352" pan="0" len="24" key="24"/>
          <note vol="100" pos="2376" pan="0" len="24" key="36"/>
          <note vol="100" pos="2400" pan="0" len="24" key="24"/>
          <note vol="100" pos="2424" pan="0" len="24" key="31"/>
          <note vol="100" pos="2472" pan="0" len="24" key="21"/>
          <note vol="100" pos="2496" pan="0" len="36" key="21"/>
          <note vol="100" pos="2544" pan="0" len="24" key="21"/>
          <note vol="100" pos="2568" pan="0" len="24" key="33"/>
          <note vol="100" pos="2592" pan="0" len="24" key="21"/>
          <note vol="100" pos="2616" pan="0" len="24" key="33"/>
          <note vol="100" pos="2664" pan="0" len="24" key="19"/>
          <note vol="100" pos="2688" pan="0" len="36" key="19"/>
          <note vol="100" pos="2736" pan="0" len="24" key="19"/>
          <note vol="100" pos="2760" pan="0" len="24" key="31"/>
          <note vol="100" pos="2784" pan="0" len="24" key="19"/>
          <note vol="100" pos="2808" pan="0" len="24" key="31"/>
          <note vol="100" pos="2856" pan="0" len="24" key="21"/>
          <note vol="100" pos="2880" pan="0" len="36" key="21"/>
          <note vol="100" pos="2928" pan="0" len="24" key="9"/>
          <note vol="100" pos="2952" pan="0" len="24" key="21"/>
          <note vol="100" pos="2976" pan="0" len="24" key="9"/>
          <note vol="100" pos="3000" pan="0" len="24" key="21"/>
          <note vol="100" pos="3048" pan="0" len="24" key="21"/>
        </pattern>
        <pattern name="fuerelitebeglow" pos="26880" muted="0" steps="16" type="1">
          <note vol="100" pos="0" pan="0" len="36" key="21"/>
          <note vol="100" pos="48" pan="0" len="24" key="9"/>
          <note vol="100" pos="72" pan="0" len="24" key="21"/>
          <note vol="100" pos="96" pan="0" len="24" key="9"/>
          <note vol="100" pos="120" pan="0" len="24" key="21"/>
          <note vol="100" pos="168" pan="0" len="24" key="21"/>
          <note vol="100" pos="192" pan="0" len="36" key="21"/>
          <note vol="100" pos="240" pan="0" len="24" key="9"/>
          <note vol="100" pos="264" pan="0" len="24" key="21"/>
          <note vol="100" pos="288" pan="0" len="24" key="9"/>
          <note vol="100" pos="312" pan="0" len="24" key="21"/>
          <note vol="100" pos="360" pan="0" len="24" key="28"/>
          <note vol="100" pos="384" pan="0" len="36" key="28"/>
          <note vol="100" pos="426" pan="0" len="24" key="16"/>
          <note vol="100" pos="450" pan="0" len="24" key="28"/>
          <note vol="100" pos="474" pan="0" len="24" key="16"/>
          <note vol="100" pos="498" pan="0" len="24" key="28"/>
          <note vol="100" pos="552" pan="0" len="24" key="29"/>
          <note vol="100" pos="576" pan="0" len="36" key="29"/>
          <note vol="100" pos="624" pan="0" len="24" key="17"/>
          <note vol="100" pos="648" pan="0" len="24" key="29"/>
          <note vol="100" pos="672" pan="0" len="24" key="17"/>
          <note vol="100" pos="696" pan="0" len="24" key="24"/>
          <note vol="100" pos="744" pan="0" len="24" key="24"/>
          <note vol="100" pos="768" pan="0" len="36" key="24"/>
          <note vol="100" pos="816" pan="0" len="24" key="12"/>
          <note vol="100" pos="840" pan="0" len="24" key="24"/>
          <note vol="100" pos="864" pan="0" len="24" key="12"/>
          <note vol="100" pos="888" pan="0" len="24" key="19"/>
          <note vol="100" pos="936" pan="0" len="24" key="21"/>
          <note vol="100" pos="960" pan="0" len="36" key="21"/>
          <note vol="100" pos="1008" pan="0" len="24" key="9"/>
          <note vol="100" pos="1032" pan="0" len="24" key="21"/>
          <note vol="100" pos="1056" pan="0" len="24" key="9"/>
          <note vol="100" pos="1080" pan="0" len="24" key="21"/>
          <note vol="100" pos="1128" pan="0" len="24" key="19"/>
          <note vol="100" pos="1152" pan="0" len="36" key="19"/>
          <note vol="100" pos="1200" pan="0" len="24" key="7"/>
          <note vol="100" pos="1224" pan="0" len="24" key="19"/>
          <note vol="100" pos="1248" pan="0" len="24" key="7"/>
          <note vol="100" pos="1272" pan="0" len="24" key="19"/>
          <note vol="100" pos="1320" pan="0" len="24" key="21"/>
          <note vol="100" pos="1344" pan="0" len="36" key="21"/>
          <note vol="100" pos="1392" pan="0" len="24" key="9"/>
          <note vol="100" pos="1416" pan="0" len="24" key="21"/>
          <note vol="100" pos="1440" pan="0" len="24" key="9"/>
          <note vol="100" pos="1464" pan="0" len="24" key="21"/>
          <note vol="100" pos="1512" pan="0" len="24" key="21"/>
          <note vol="100" pos="1536" pan="0" len="36" key="21"/>
          <note vol="100" pos="1584" pan="0" len="24" key="9"/>
          <note vol="100" pos="1608" pan="0" len="24" key="21"/>
          <note vol="100" pos="1632" pan="0" len="24" key="9"/>
          <note vol="100" pos="1656" pan="0" len="24" key="21"/>
          <note vol="100" pos="1704" pan="0" len="24" key="21"/>
          <note vol="100" pos="1728" pan="0" len="36" key="21"/>
          <note vol="100" pos="1776" pan="0" len="24" key="9"/>
          <note vol="100" pos="1800" pan="0" len="24" key="21"/>
          <note vol="100" pos="1824" pan="0" len="24" key="9"/>
          <note vol="100" pos="1848" pan="0" len="24" key="21"/>
          <note vol="100" pos="1896" pan="0" len="24" key="28"/>
          <note vol="100" pos="1920" pan="0" len="36" key="28"/>
          <note vol="100" pos="1968" pan="0" len="24" key="16"/>
          <note vol="100" pos="1992" pan="0" len="24" key="28"/>
          <note vol="100" pos="2016" pan="0" len="24" key="16"/>
          <note vol="100" pos="2040" pan="0" len="24" key="28"/>
          <note vol="100" pos="2088" pan="0" len="24" key="29"/>
          <note vol="100" pos="2112" pan="0" len="36" key="29"/>
          <note vol="100" pos="2160" pan="0" len="24" key="17"/>
          <note vol="100" pos="2184" pan="0" len="24" key="29"/>
          <note vol="100" pos="2208" pan="0" len="24" key="17"/>
          <note vol="100" pos="2232" pan="0" len="24" key="24"/>
          <note vol="100" pos="2280" pan="0" len="24" key="24"/>
          <note vol="100" pos="2304" pan="0" len="36" key="24"/>
          <note vol="100" pos="2352" pan="0" len="24" key="12"/>
          <note vol="100" pos="2376" pan="0" len="24" key="24"/>
          <note vol="100" pos="2400" pan="0" len="24" key="12"/>
          <note vol="100" pos="2424" pan="0" len="24" key="19"/>
          <note vol="100" pos="2472" pan="0" len="24" key="21"/>
          <note vol="100" pos="2496" pan="0" len="36" key="21"/>
          <note vol="100" pos="2544" pan="0" len="24" key="9"/>
          <note vol="100" pos="2568" pan="0" len="24" key="21"/>
          <note vol="100" pos="2592" pan="0" len="24" key="9"/>
          <note vol="100" pos="2616" pan="0" len="24" key="21"/>
          <note vol="100" pos="2664" pan="0" len="24" key="19"/>
          <note vol="100" pos="2688" pan="0" len="36" key="19"/>
          <note vol="100" pos="2736" pan="0" len="24" key="7"/>
          <note vol="100" pos="2760" pan="0" len="24" key="19"/>
          <note vol="100" pos="2784" pan="0" len="24" key="7"/>
          <note vol="100" pos="2808" pan="0" len="24" key="19"/>
          <note vol="100" pos="2856" pan="0" len="24" key="21"/>
          <note vol="100" pos="2880" pan="0" len="36" key="21"/>
          <note vol="100" pos="2928" pan="0" len="24" key="9"/>
          <note vol="100" pos="2952" pan="0" len="24" key="21"/>
          <note vol="100" pos="2976" pan="0" len="24" key="9"/>
          <note vol="100" pos="3000" pan="0" len="24" key="21"/>
          <note vol="100" pos="3048" pan="0" len="24" key="21"/>
        </pattern>
        <pattern name="elise" pos="18432" muted="0" steps="16" type="1">
          <note vol="100" pos="48" pan="0" len="24" key="52"/>
          <note vol="100" pos="72" pan="0" len="24" key="51"/>
          <note vol="100" pos="96" pan="0" len="24" key="52"/>
          <note vol="100" pos="120" pan="0" len="24" key="51"/>
          <note vol="100" pos="144" pan="0" len="24" key="52"/>
          <note vol="100" pos="168" pan="0" len="24" key="47"/>
          <note vol="100" pos="192" pan="0" len="24" key="50"/>
          <note vol="100" pos="216" pan="0" len="24" key="48"/>
          <note vol="100" pos="240" pan="0" len="24" key="45"/>
        </pattern>
        <pattern name="fuerelitebeglow" pos="32640" muted="0" steps="16" type="1">
          <note vol="100" pos="0" pan="0" len="36" key="21"/>
          <note vol="100" pos="48" pan="0" len="24" key="9"/>
          <note vol="100" pos="72" pan="0" len="24" key="21"/>
          <note vol="100" pos="96" pan="0" len="24" key="9"/>
          <note vol="100" pos="120" pan="0" len="24" key="21"/>
          <note vol="100" pos="168" pan="0" len="24" key="21"/>
          <note vol="100" pos="192" pan="0" len="36" key="21"/>
          <note vol="100" pos="240" pan="0" len="24" key="9"/>
          <note vol="100" pos="264" pan="0" len="24" key="21"/>
          <note vol="100" pos="288" pan="0" len="24" key="9"/>
          <note vol="100" pos="312" pan="0" len="24" key="21"/>
          <note vol="100" pos="360" pan="0" len="24" key="28"/>
          <note vol="100" pos="384" pan="0" len="36" key="28"/>
          <note vol="100" pos="426" pan="0" len="24" key="16"/>
          <note vol="100" pos="450" pan="0" len="24" key="28"/>
          <note vol="100" pos="474" pan="0" len="24" key="16"/>
          <note vol="100" pos="498" pan="0" len="24" key="28"/>
          <note vol="100" pos="552" pan="0" len="24" key="29"/>
          <note vol="100" pos="576" pan="0" len="36" key="29"/>
          <note vol="100" pos="624" pan="0" len="24" key="17"/>
          <note vol="100" pos="648" pan="0" len="24" key="29"/>
          <note vol="100" pos="672" pan="0" len="24" key="17"/>
          <note vol="100" pos="696" pan="0" len="24" key="24"/>
          <note vol="100" pos="744" pan="0" len="24" key="24"/>
          <note vol="100" pos="768" pan="0" len="36" key="24"/>
          <note vol="100" pos="816" pan="0" len="24" key="12"/>
          <note vol="100" pos="840" pan="0" len="24" key="24"/>
          <note vol="100" pos="864" pan="0" len="24" key="12"/>
          <note vol="100" pos="888" pan="0" len="24" key="19"/>
          <note vol="100" pos="936" pan="0" len="24" key="21"/>
          <note vol="100" pos="960" pan="0" len="36" key="21"/>
          <note vol="100" pos="1008" pan="0" len="24" key="9"/>
          <note vol="100" pos="1032" pan="0" len="24" key="21"/>
          <note vol="100" pos="1056" pan="0" len="24" key="9"/>
          <note vol="100" pos="1080" pan="0" len="24" key="21"/>
          <note vol="100" pos="1128" pan="0" len="24" key="19"/>
          <note vol="100" pos="1152" pan="0" len="36" key="19"/>
          <note vol="100" pos="1200" pan="0" len="24" key="7"/>
          <note vol="100" pos="1224" pan="0" len="24" key="19"/>
          <note vol="100" pos="1248" pan="0" len="24" key="7"/>
          <note vol="100" pos="1272" pan="0" len="24" key="19"/>
          <note vol="100" pos="1320" pan="0" len="24" key="21"/>
          <note vol="100" pos="1344" pan="0" len="36" key="21"/>
          <note vol="100" pos="1392" pan="0" len="24" key="9"/>
          <note vol="100" pos="1416" pan="0" len="24" key="21"/>
          <note vol="100" pos="1440" pan="0" len="24" key="9"/>
          <note vol="100" pos="1464" pan="0" len="24" key="21"/>
          <note vol="100" pos="1512" pan="0" len="24" key="21"/>
        </pattern>
        <pattern name="BitInvader" pos="32256" muted="0" steps="16" type="1">
          <note vol="100" pos="0" pan="0" len="36" key="21"/>
          <note vol="100" pos="48" pan="0" len="24" key="9"/>
          <note vol="100" pos="72" pan="0" len="24" key="21"/>
          <note vol="100" pos="96" pan="0" len="24" key="9"/>
          <note vol="100" pos="120" pan="0" len="24" key="21"/>
          <note vol="100" pos="168" pan="0" len="24" key="21"/>
          <note vol="100" pos="192" pan="0" len="36" key="21"/>
          <note vol="100" pos="240" pan="0" len="24" key="9"/>
          <note vol="100" pos="264" pan="0" len="24" key="21"/>
          <note vol="100" pos="288" pan="0" len="24" key="9"/>
          <note vol="100" pos="312" pan="0" len="24" key="21"/>
          <note vol="100" pos="360" pan="0" len="24" key="21"/>
        </pattern>
        <pattern name="fuerelitebeglow" pos="34560" muted="0" steps="16" type="1">
          <note vol="100" pos="0" pan="0" len="36" key="21"/>
          <note vol="100" pos="48" pan="0" len="24" key="9"/>
          <note vol="100" pos="72" pan="0" len="24" key="21"/>
          <note vol="100" pos="96" pan="0" len="24" key="9"/>
          <note vol="100" pos="120" pan="0" len="24" key="21"/>
          <note vol="100" pos="168" pan="0" len="24" key="21"/>
          <note vol="100" pos="192" pan="0" len="36" key="21"/>
          <note vol="100" pos="240" pan="0" len="24" key="9"/>
          <note vol="100" pos="264" pan="0" len="24" key="21"/>
          <note vol="100" pos="288" pan="0" len="24" key="9"/>
          <note vol="100" pos="312" pan="0" len="24" key="21"/>
          <note vol="100" pos="360" pan="0" len="24" key="28"/>
          <note vol="100" pos="384" pan="0" len="36" key="28"/>
          <note vol="100" pos="426" pan="0" len="24" key="16"/>
          <note vol="100" pos="450" pan="0" len="24" key="28"/>
          <note vol="100" pos="474" pan="0" len="24" key="16"/>
          <note vol="100" pos="498" pan="0" len="24" key="28"/>
          <note vol="100" pos="552" pan="0" len="24" key="29"/>
          <note vol="100" pos="576" pan="0" len="36" key="29"/>
          <note vol="100" pos="624" pan="0" len="24" key="17"/>
          <note vol="100" pos="648" pan="0" len="24" key="29"/>
          <note vol="100" pos="672" pan="0" len="24" key="17"/>
          <note vol="100" pos="696" pan="0" len="24" key="24"/>
          <note vol="100" pos="744" pan="0" len="24" key="24"/>
          <note vol="100" pos="768" pan="0" len="36" key="24"/>
          <note vol="100" pos="816" pan="0" len="24" key="12"/>
          <note vol="100" pos="840" pan="0" len="24" key="24"/>
          <note vol="100" pos="864" pan="0" len="24" key="12"/>
          <note vol="100" pos="888" pan="0" len="24" key="19"/>
          <note vol="100" pos="936" pan="0" len="24" key="21"/>
          <note vol="100" pos="960" pan="0" len="36" key="21"/>
          <note vol="100" pos="1008" pan="0" len="24" key="9"/>
          <note vol="100" pos="1032" pan="0" len="24" key="21"/>
          <note vol="100" pos="1056" pan="0" len="24" key="9"/>
          <note vol="100" pos="1080" pan="0" len="24" key="21"/>
          <note vol="100" pos="1128" pan="0" len="24" key="19"/>
          <note vol="100" pos="1152" pan="0" len="36" key="19"/>
          <note vol="100" pos="1200" pan="0" len="24" key="7"/>
          <note vol="100" pos="1224" pan="0" len="24" key="19"/>
          <note vol="100" pos="1248" pan="0" len="24" key="7"/>
          <note vol="100" pos="1272" pan="0" len="24" key="19"/>
          <note vol="100" pos="1320" pan="0" len="24" key="21"/>
          <note vol="100" pos="1344" pan="0" len="36" key="21"/>
          <note vol="100" pos="1392" pan="0" len="24" key="9"/>
          <note vol="100" pos="1416" pan="0" len="24" key="21"/>
          <note vol="100" pos="1440" pan="0" len="24" key="9"/>
          <note vol="100" pos="1464" pan="0" len="24" key="21"/>
          <note vol="100" pos="1512" pan="0" len="24" key="21"/>
        </pattern>
        <pattern name="BitInvader" pos="36096" muted="0" steps="16" type="1">
          <note vol="100" pos="0" pan="0" len="36" key="19"/>
          <note vol="100" pos="48" pan="0" len="24" key="7"/>
          <note vol="100" pos="72" pan="0" len="24" key="19"/>
          <note vol="100" pos="96" pan="0" len="24" key="7"/>
          <note vol="100" pos="120" pan="0" len="24" key="19"/>
          <note vol="100" pos="168" pan="0" len="24" key="21"/>
          <note vol="100" pos="192" pan="0" len="36" key="21"/>
          <note vol="100" pos="240" pan="0" len="24" key="9"/>
          <note vol="100" pos="264" pan="0" len="24" key="21"/>
          <note vol="100" pos="288" pan="0" len="24" key="9"/>
          <note vol="100" pos="312" pan="0" len="24" key="21"/>
          <note vol="100" pos="360" pan="0" len="24" key="19"/>
        </pattern>
        <pattern name="delaydisguise" pos="30720" muted="0" steps="16" type="1">
          <note vol="100" pos="0" pan="0" len="24" key="64"/>
          <note vol="27" pos="36" pan="0" len="24" key="64"/>
          <note vol="11" pos="72" pan="0" len="24" key="64"/>
          <note vol="100" pos="72" pan="0" len="24" key="60"/>
          <note vol="100" pos="96" pan="0" len="24" key="62"/>
          <note vol="27" pos="108" pan="0" len="24" key="60"/>
          <note vol="27" pos="132" pan="0" len="24" key="62"/>
          <note vol="11" pos="144" pan="0" len="24" key="60"/>
          <note vol="100" pos="144" pan="0" len="24" key="57"/>
          <note vol="11" pos="168" pan="0" len="24" key="62"/>
          <note vol="27" pos="180" pan="0" len="24" key="57"/>
          <note vol="100" pos="192" pan="0" len="24" key="60"/>
          <note vol="100" pos="216" pan="0" len="24" key="64"/>
          <note vol="11" pos="216" pan="0" len="24" key="57"/>
          <note vol="27" pos="228" pan="0" len="24" key="60"/>
          <note vol="100" pos="240" pan="0" len="24" key="62"/>
          <note vol="27" pos="252" pan="0" len="24" key="64"/>
          <note vol="11" pos="264" pan="0" len="24" key="60"/>
          <note vol="100" pos="264" pan="0" len="24" key="55"/>
          <note vol="27" pos="276" pan="0" len="24" key="62"/>
          <note vol="11" pos="288" pan="0" len="24" key="64"/>
          <note vol="27" pos="300" pan="0" len="24" key="55"/>
          <note vol="11" pos="312" pan="0" len="24" key="62"/>
          <note vol="100" pos="312" pan="0" len="24" key="57"/>
          <note vol="100" pos="336" pan="0" len="24" key="59"/>
          <note vol="11" pos="336" pan="0" len="24" key="55"/>
          <note vol="27" pos="348" pan="0" len="24" key="57"/>
          <note vol="100" pos="360" pan="0" len="24" key="60"/>
          <note vol="27" pos="372" pan="0" len="24" key="59"/>
          <note vol="100" pos="384" pan="0" len="24" key="64"/>
          <note vol="11" pos="384" pan="0" len="24" key="57"/>
          <note vol="27" pos="396" pan="0" len="24" key="60"/>
          <note vol="11" pos="408" pan="0" len="24" key="59"/>
          <note vol="27" pos="420" pan="0" len="24" key="64"/>
          <note vol="11" pos="432" pan="0" len="24" key="60"/>
          <note vol="11" pos="456" pan="0" len="24" key="64"/>
          <note vol="100" pos="456" pan="0" len="24" key="60"/>
          <note vol="100" pos="480" pan="0" len="24" key="62"/>
          <note vol="27" pos="492" pan="0" len="24" key="60"/>
          <note vol="27" pos="516" pan="0" len="24" key="62"/>
          <note vol="100" pos="528" pan="0" len="24" key="62"/>
          <note vol="11" pos="528" pan="0" len="24" key="60"/>
          <note vol="11" pos="552" pan="0" len="24" key="62"/>
          <note vol="27" pos="564" pan="0" len="24" key="62"/>
          <note vol="100" pos="576" pan="0" len="24" key="57"/>
          <note vol="11" pos="600" pan="0" len="24" key="62"/>
          <note vol="27" pos="612" pan="0" len="24" key="57"/>
          <note vol="100" pos="624" pan="0" len="24" key="57"/>
          <note vol="100" pos="648" pan="0" len="24" key="60"/>
          <note vol="11" pos="648" pan="0" len="24" key="57"/>
          <note vol="27" pos="660" pan="0" len="24" key="57"/>
          <note vol="27" pos="684" pan="0" len="24" key="60"/>
          <note vol="11" pos="696" pan="0" len="24" key="57"/>
          <note vol="100" pos="696" pan="0" len="24" key="57"/>
          <note vol="11" pos="720" pan="0" len="24" key="60"/>
          <note vol="27" pos="732" pan="0" len="24" key="57"/>
          <note vol="100" pos="744" pan="0" len="24" key="52"/>
          <note vol="100" pos="768" pan="0" len="24" key="64"/>
          <note vol="11" pos="768" pan="0" len="24" key="57"/>
          <note vol="27" pos="780" pan="0" len="24" key="52"/>
          <note vol="27" pos="804" pan="0" len="24" key="64"/>
          <note vol="11" pos="816" pan="0" len="24" key="52"/>
          <note vol="11" pos="840" pan="0" len="24" key="64"/>
          <note vol="100" pos="840" pan="0" len="24" key="60"/>
          <note vol="100" pos="864" pan="0" len="24" key="62"/>
          <note vol="27" pos="876" pan="0" len="24" key="60"/>
          <note vol="27" pos="900" pan="0" len="24" key="62"/>
          <note vol="11" pos="912" pan="0" len="24" key="60"/>
          <note vol="100" pos="912" pan="0" len="24" key="57"/>
          <note vol="11" pos="936" pan="0" len="24" key="62"/>
          <note vol="27" pos="948" pan="0" len="24" key="57"/>
          <note vol="100" pos="960" pan="0" len="24" key="60"/>
          <note vol="100" pos="984" pan="0" len="24" key="64"/>
          <note vol="11" pos="984" pan="0" len="24" key="57"/>
          <note vol="27" pos="996" pan="0" len="24" key="60"/>
          <note vol="100" pos="1008" pan="0" len="24" key="62"/>
          <note vol="27" pos="1020" pan="0" len="24" key="64"/>
          <note vol="11" pos="1032" pan="0" len="24" key="60"/>
          <note vol="100" pos="1032" pan="0" len="24" key="55"/>
          <note vol="27" pos="1044" pan="0" len="24" key="62"/>
          <note vol="11" pos="1056" pan="0" len="24" key="64"/>
          <note vol="27" pos="1068" pan="0" len="24" key="55"/>
          <note vol="11" pos="1080" pan="0" len="24" key="62"/>
          <note vol="100" pos="1080" pan="0" len="24" key="57"/>
          <note vol="100" pos="1104" pan="0" len="24" key="59"/>
          <note vol="11" pos="1104" pan="0" len="24" key="55"/>
          <note vol="27" pos="1116" pan="0" len="24" key="57"/>
          <note vol="100" pos="1128" pan="0" len="24" key="60"/>
          <note vol="27" pos="1140" pan="0" len="24" key="59"/>
          <note vol="100" pos="1152" pan="0" len="24" key="64"/>
          <note vol="11" pos="1152" pan="0" len="24" key="57"/>
          <note vol="27" pos="1164" pan="0" len="24" key="60"/>
          <note vol="11" pos="1176" pan="0" len="24" key="59"/>
          <note vol="27" pos="1188" pan="0" len="24" key="64"/>
          <note vol="11" pos="1200" pan="0" len="24" key="60"/>
          <note vol="11" pos="1224" pan="0" len="24" key="64"/>
          <note vol="100" pos="1224" pan="0" len="24" key="60"/>
          <note vol="100" pos="1248" pan="0" len="24" key="62"/>
          <note vol="27" pos="1260" pan="0" len="24" key="60"/>
          <note vol="27" pos="1284" pan="0" len="24" key="62"/>
          <note vol="100" pos="1296" pan="0" len="24" key="62"/>
          <note vol="11" pos="1296" pan="0" len="24" key="60"/>
          <note vol="11" pos="1320" pan="0" len="24" key="62"/>
          <note vol="27" pos="1332" pan="0" len="24" key="62"/>
          <note vol="100" pos="1344" pan="0" len="24" key="57"/>
          <note vol="11" pos="1368" pan="0" len="24" key="62"/>
          <note vol="27" pos="1380" pan="0" len="24" key="57"/>
          <note vol="100" pos="1392" pan="0" len="24" key="57"/>
          <note vol="100" pos="1416" pan="0" len="24" key="60"/>
          <note vol="11" pos="1416" pan="0" len="24" key="57"/>
          <note vol="27" pos="1428" pan="0" len="24" key="57"/>
          <note vol="27" pos="1452" pan="0" len="24" key="60"/>
          <note vol="11" pos="1464" pan="0" len="24" key="57"/>
          <note vol="100" pos="1464" pan="0" len="24" key="57"/>
          <note vol="11" pos="1488" pan="0" len="24" key="60"/>
          <note vol="27" pos="1500" pan="0" len="24" key="57"/>
          <note vol="100" pos="1512" pan="0" len="24" key="52"/>
          <note vol="11" pos="1536" pan="0" len="24" key="57"/>
          <note vol="27" pos="1548" pan="0" len="24" key="52"/>
          <note vol="11" pos="1584" pan="0" len="24" key="52"/>
        </pattern>
        <pattern name="delaydisguisex4" pos="38400" muted="0" steps="16" type="1">
          <note vol="100" pos="0" pan="0" len="24" key="64"/>
          <note vol="27" pos="36" pan="0" len="24" key="64"/>
          <note vol="11" pos="72" pan="0" len="24" key="64"/>
          <note vol="100" pos="72" pan="0" len="24" key="60"/>
          <note vol="100" pos="96" pan="0" len="24" key="62"/>
          <note vol="27" pos="108" pan="0" len="24" key="60"/>
          <note vol="27" pos="132" pan="0" len="24" key="62"/>
          <note vol="11" pos="144" pan="0" len="24" key="60"/>
          <note vol="100" pos="144" pan="0" len="24" key="57"/>
          <note vol="11" pos="168" pan="0" len="24" key="62"/>
          <note vol="27" pos="180" pan="0" len="24" key="57"/>
          <note vol="100" pos="192" pan="0" len="24" key="60"/>
          <note vol="100" pos="216" pan="0" len="24" key="64"/>
          <note vol="11" pos="216" pan="0" len="24" key="57"/>
          <note vol="27" pos="228" pan="0" len="24" key="60"/>
          <note vol="100" pos="240" pan="0" len="24" key="62"/>
          <note vol="27" pos="252" pan="0" len="24" key="64"/>
          <note vol="11" pos="264" pan="0" len="24" key="60"/>
          <note vol="100" pos="264" pan="0" len="24" key="55"/>
          <note vol="27" pos="276" pan="0" len="24" key="62"/>
          <note vol="11" pos="288" pan="0" len="24" key="64"/>
          <note vol="27" pos="300" pan="0" len="24" key="55"/>
          <note vol="11" pos="312" pan="0" len="24" key="62"/>
          <note vol="100" pos="312" pan="0" len="24" key="57"/>
          <note vol="100" pos="336" pan="0" len="24" key="59"/>
          <note vol="11" pos="336" pan="0" len="24" key="55"/>
          <note vol="27" pos="348" pan="0" len="24" key="57"/>
          <note vol="100" pos="360" pan="0" len="24" key="60"/>
          <note vol="27" pos="372" pan="0" len="24" key="59"/>
          <note vol="100" pos="384" pan="0" len="24" key="64"/>
          <note vol="11" pos="384" pan="0" len="24" key="57"/>
          <note vol="27" pos="396" pan="0" len="24" key="60"/>
          <note vol="11" pos="408" pan="0" len="24" key="59"/>
          <note vol="27" pos="420" pan="0" len="24" key="64"/>
          <note vol="11" pos="432" pan="0" len="24" key="60"/>
          <note vol="11" pos="456" pan="0" len="24" key="64"/>
          <note vol="100" pos="456" pan="0" len="24" key="60"/>
          <note vol="100" pos="480" pan="0" len="24" key="62"/>
          <note vol="27" pos="492" pan="0" len="24" key="60"/>
          <note vol="27" pos="516" pan="0" len="24" key="62"/>
          <note vol="100" pos="528" pan="0" len="24" key="62"/>
          <note vol="11" pos="528" pan="0" len="24" key="60"/>
          <note vol="11" pos="552" pan="0" len="24" key="62"/>
          <note vol="27" pos="564" pan="0" len="24" key="62"/>
          <note vol="100" pos="576" pan="0" len="24" key="57"/>
          <note vol="11" pos="600" pan="0" len="24" key="62"/>
          <note vol="27" pos="612" pan="0" len="24" key="57"/>
          <note vol="100" pos="624" pan="0" len="24" key="57"/>
          <note vol="100" pos="648" pan="0" len="24" key="60"/>
          <note vol="11" pos="648" pan="0" len="24" key="57"/>
          <note vol="27" pos="660" pan="0" len="24" key="57"/>
          <note vol="27" pos="684" pan="0" len="24" key="60"/>
          <note vol="11" pos="696" pan="0" len="24" key="57"/>
          <note vol="100" pos="696" pan="0" len="24" key="57"/>
          <note vol="11" pos="720" pan="0" len="24" key="60"/>
          <note vol="27" pos="732" pan="0" len="24" key="57"/>
          <note vol="100" pos="744" pan="0" len="24" key="52"/>
          <note vol="100" pos="768" pan="0" len="24" key="64"/>
          <note vol="11" pos="768" pan="0" len="24" key="57"/>
          <note vol="27" pos="780" pan="0" len="24" key="52"/>
          <note vol="27" pos="804" pan="0" len="24" key="64"/>
          <note vol="11" pos="816" pan="0" len="24" key="52"/>
          <note vol="11" pos="840" pan="0" len="24" key="64"/>
          <note vol="100" pos="840" pan="0" len="24" key="60"/>
          <note vol="100" pos="864" pan="0" len="24" key="62"/>
          <note vol="27" pos="876" pan="0" len="24" key="60"/>
          <note vol="27" pos="900" pan="0" len="24" key="62"/>
          <note vol="11" pos="912" pan="0" len="24" key="60"/>
          <note vol="100" pos="912" pan="0" len="24" key="57"/>
          <note vol="11" pos="936" pan="0" len="24" key="62"/>
          <note vol="27" pos="948" pan="0" len="24" key="57"/>
          <note vol="100" pos="960" pan="0" len="24" key="60"/>
          <note vol="100" pos="984" pan="0" len="24" key="64"/>
          <note vol="11" pos="984" pan="0" len="24" key="57"/>
          <note vol="27" pos="996" pan="0" len="24" key="60"/>
          <note vol="100" pos="1008" pan="0" len="24" key="62"/>
          <note vol="27" pos="1020" pan="0" len="24" key="64"/>
          <note vol="11" pos="1032" pan="0" len="24" key="60"/>
          <note vol="100" pos="1032" pan="0" len="24" key="55"/>
          <note vol="27" pos="1044" pan="0" len="24" key="62"/>
          <note vol="11" pos="1056" pan="0" len="24" key="64"/>
          <note vol="27" pos="1068" pan="0" len="24" key="55"/>
          <note vol="11" pos="1080" pan="0" len="24" key="62"/>
          <note vol="100" pos="1080" pan="0" len="24" key="57"/>
          <note vol="100" pos="1104" pan="0" len="24" key="59"/>
          <note vol="11" pos="1104" pan="0" len="24" key="55"/>
          <note vol="27" pos="1116" pan="0" len="24" key="57"/>
          <note vol="100" pos="1128" pan="0" len="24" key="60"/>
          <note vol="27" pos="1140" pan="0" len="24" key="59"/>
          <note vol="100" pos="1152" pan="0" len="24" key="64"/>
          <note vol="11" pos="1152" pan="0" len="24" key="57"/>
          <note vol="27" pos="1164" pan="0" len="24" key="60"/>
          <note vol="11" pos="1176" pan="0" len="24" key="59"/>
          <note vol="27" pos="1188" pan="0" len="24" key="64"/>
          <note vol="11" pos="1200" pan="0" len="24" key="60"/>
          <note vol="11" pos="1224" pan="0" len="24" key="64"/>
          <note vol="100" pos="1224" pan="0" len="24" key="60"/>
          <note vol="100" pos="1248" pan="0" len="24" key="62"/>
          <note vol="27" pos="1260" pan="0" len="24" key="60"/>
          <note vol="27" pos="1284" pan="0" len="24" key="62"/>
          <note vol="100" pos="1296" pan="0" len="24" key="62"/>
          <note vol="11" pos="1296" pan="0" len="24" key="60"/>
          <note vol="11" pos="1320" pan="0" len="24" key="62"/>
          <note vol="27" pos="1332" pan="0" len="24" key="62"/>
          <note vol="100" pos="1344" pan="0" len="24" key="57"/>
          <note vol="11" pos="1368" pan="0" len="24" key="62"/>
          <note vol="27" pos="1380" pan="0" len="24" key="57"/>
          <note vol="100" pos="1392" pan="0" len="24" key="57"/>
          <note vol="100" pos="1416" pan="0" len="24" key="60"/>
          <note vol="11" pos="1416" pan="0" len="24" key="57"/>
          <note vol="27" pos="1428" pan="0" len="24" key="57"/>
          <note vol="27" pos="1452" pan="0" len="24" key="60"/>
          <note vol="11" pos="1464" pan="0" len="24" key="57"/>
          <note vol="100" pos="1464" pan="0" len="24" key="57"/>
          <note vol="11" pos="1488" pan="0" len="24" key="60"/>
          <note vol="27" pos="1500" pan="0" len="24" key="57"/>
          <note vol="100" pos="1512" pan="0" len="24" key="52"/>
          <note vol="100" pos="1536" pan="0" len="24" key="64"/>
          <note vol="11" pos="1536" pan="0" len="24" key="57"/>
          <note vol="27" pos="1548" pan="0" len="24" key="52"/>
          <note vol="27" pos="1572" pan="0" len="24" key="64"/>
          <note vol="11" pos="1584" pan="0" len="24" key="52"/>
          <note vol="11" pos="1608" pan="0" len="24" key="64"/>
          <note vol="100" pos="1608" pan="0" len="24" key="60"/>
          <note vol="100" pos="1632" pan="0" len="24" key="62"/>
          <note vol="27" pos="1644" pan="0" len="24" key="60"/>
          <note vol="27" pos="1668" pan="0" len="24" key="62"/>
          <note vol="11" pos="1680" pan="0" len="24" key="60"/>
          <note vol="100" pos="1680" pan="0" len="24" key="57"/>
          <note vol="11" pos="1704" pan="0" len="24" key="62"/>
          <note vol="27" pos="1716" pan="0" len="24" key="57"/>
          <note vol="100" pos="1728" pan="0" len="24" key="60"/>
          <note vol="100" pos="1752" pan="0" len="24" key="64"/>
          <note vol="11" pos="1752" pan="0" len="24" key="57"/>
          <note vol="27" pos="1764" pan="0" len="24" key="60"/>
          <note vol="100" pos="1776" pan="0" len="24" key="62"/>
          <note vol="27" pos="1788" pan="0" len="24" key="64"/>
          <note vol="11" pos="1800" pan="0" len="24" key="60"/>
          <note vol="100" pos="1800" pan="0" len="24" key="55"/>
          <note vol="27" pos="1812" pan="0" len="24" key="62"/>
          <note vol="11" pos="1824" pan="0" len="24" key="64"/>
          <note vol="27" pos="1836" pan="0" len="24" key="55"/>
          <note vol="11" pos="1848" pan="0" len="24" key="62"/>
          <note vol="100" pos="1848" pan="0" len="24" key="57"/>
          <note vol="100" pos="1872" pan="0" len="24" key="59"/>
          <note vol="11" pos="1872" pan="0" len="24" key="55"/>
          <note vol="27" pos="1884" pan="0" len="24" key="57"/>
          <note vol="100" pos="1896" pan="0" len="24" key="60"/>
          <note vol="27" pos="1908" pan="0" len="24" key="59"/>
          <note vol="100" pos="1920" pan="0" len="24" key="64"/>
          <note vol="11" pos="1920" pan="0" len="24" key="57"/>
          <note vol="27" pos="1932" pan="0" len="24" key="60"/>
          <note vol="11" pos="1944" pan="0" len="24" key="59"/>
          <note vol="27" pos="1956" pan="0" len="24" key="64"/>
          <note vol="11" pos="1968" pan="0" len="24" key="60"/>
          <note vol="11" pos="1992" pan="0" len="24" key="64"/>
          <note vol="100" pos="1992" pan="0" len="24" key="60"/>
          <note vol="100" pos="2016" pan="0" len="24" key="62"/>
          <note vol="27" pos="2028" pan="0" len="24" key="60"/>
          <note vol="27" pos="2052" pan="0" len="24" key="62"/>
          <note vol="100" pos="2064" pan="0" len="24" key="62"/>
          <note vol="11" pos="2064" pan="0" len="24" key="60"/>
          <note vol="11" pos="2088" pan="0" len="24" key="62"/>
          <note vol="27" pos="2100" pan="0" len="24" key="62"/>
          <note vol="100" pos="2112" pan="0" len="24" key="57"/>
          <note vol="11" pos="2136" pan="0" len="24" key="62"/>
          <note vol="27" pos="2148" pan="0" len="24" key="57"/>
          <note vol="100" pos="2160" pan="0" len="24" key="57"/>
          <note vol="100" pos="2184" pan="0" len="24" key="60"/>
          <note vol="11" pos="2184" pan="0" len="24" key="57"/>
          <note vol="27" pos="2196" pan="0" len="24" key="57"/>
          <note vol="27" pos="2220" pan="0" len="24" key="60"/>
          <note vol="11" pos="2232" pan="0" len="24" key="57"/>
          <note vol="100" pos="2232" pan="0" len="24" key="57"/>
          <note vol="11" pos="2256" pan="0" len="24" key="60"/>
          <note vol="27" pos="2268" pan="0" len="24" key="57"/>
          <note vol="100" pos="2280" pan="0" len="24" key="52"/>
          <note vol="100" pos="2304" pan="0" len="24" key="64"/>
          <note vol="11" pos="2304" pan="0" len="24" key="57"/>
          <note vol="27" pos="2316" pan="0" len="24" key="52"/>
          <note vol="27" pos="2340" pan="0" len="24" key="64"/>
          <note vol="11" pos="2352" pan="0" len="24" key="52"/>
          <note vol="11" pos="2376" pan="0" len="24" key="64"/>
          <note vol="100" pos="2376" pan="0" len="24" key="60"/>
          <note vol="100" pos="2400" pan="0" len="24" key="62"/>
          <note vol="27" pos="2412" pan="0" len="24" key="60"/>
          <note vol="27" pos="2436" pan="0" len="24" key="62"/>
          <note vol="11" pos="2448" pan="0" len="24" key="60"/>
          <note vol="100" pos="2448" pan="0" len="24" key="57"/>
          <note vol="11" pos="2472" pan="0" len="24" key="62"/>
          <note vol="27" pos="2484" pan="0" len="24" key="57"/>
          <note vol="100" pos="2496" pan="0" len="24" key="60"/>
          <note vol="100" pos="2520" pan="0" len="24" key="64"/>
          <note vol="11" pos="2520" pan="0" len="24" key="57"/>
          <note vol="27" pos="2532" pan="0" len="24" key="60"/>
          <note vol="100" pos="2544" pan="0" len="24" key="62"/>
          <note vol="27" pos="2556" pan="0" len="24" key="64"/>
          <note vol="11" pos="2568" pan="0" len="24" key="60"/>
          <note vol="100" pos="2568" pan="0" len="24" key="55"/>
          <note vol="27" pos="2580" pan="0" len="24" key="62"/>
          <note vol="11" pos="2592" pan="0" len="24" key="64"/>
          <note vol="27" pos="2604" pan="0" len="24" key="55"/>
          <note vol="11" pos="2616" pan="0" len="24" key="62"/>
          <note vol="100" pos="2616" pan="0" len="24" key="57"/>
          <note vol="100" pos="2640" pan="0" len="24" key="59"/>
          <note vol="11" pos="2640" pan="0" len="24" key="55"/>
          <note vol="27" pos="2652" pan="0" len="24" key="57"/>
          <note vol="100" pos="2664" pan="0" len="24" key="60"/>
          <note vol="27" pos="2676" pan="0" len="24" key="59"/>
          <note vol="100" pos="2688" pan="0" len="24" key="64"/>
          <note vol="11" pos="2688" pan="0" len="24" key="57"/>
          <note vol="27" pos="2700" pan="0" len="24" key="60"/>
          <note vol="11" pos="2712" pan="0" len="24" key="59"/>
          <note vol="27" pos="2724" pan="0" len="24" key="64"/>
          <note vol="11" pos="2736" pan="0" len="24" key="60"/>
          <note vol="11" pos="2760" pan="0" len="24" key="64"/>
          <note vol="100" pos="2760" pan="0" len="24" key="60"/>
          <note vol="100" pos="2784" pan="0" len="24" key="62"/>
          <note vol="27" pos="2796" pan="0" len="24" key="60"/>
          <note vol="27" pos="2820" pan="0" len="24" key="62"/>
          <note vol="100" pos="2832" pan="0" len="24" key="62"/>
          <note vol="11" pos="2832" pan="0" len="24" key="60"/>
          <note vol="11" pos="2856" pan="0" len="24" key="62"/>
          <note vol="27" pos="2868" pan="0" len="24" key="62"/>
          <note vol="100" pos="2880" pan="0" len="24" key="57"/>
          <note vol="11" pos="2904" pan="0" len="24" key="62"/>
          <note vol="27" pos="2916" pan="0" len="24" key="57"/>
          <note vol="100" pos="2928" pan="0" len="24" key="57"/>
          <note vol="100" pos="2952" pan="0" len="24" key="60"/>
          <note vol="11" pos="2952" pan="0" len="24" key="57"/>
          <note vol="27" pos="2964" pan="0" len="24" key="57"/>
          <note vol="27" pos="2988" pan="0" len="24" key="60"/>
          <note vol="11" pos="3000" pan="0" len="24" key="57"/>
          <note vol="100" pos="3000" pan="0" len="24" key="57"/>
          <note vol="11" pos="3024" pan="0" len="24" key="60"/>
          <note vol="27" pos="3036" pan="0" len="24" key="57"/>
          <note vol="100" pos="3048" pan="0" len="24" key="52"/>
          <note vol="11" pos="3072" pan="0" len="24" key="57"/>
          <note vol="27" pos="3084" pan="0" len="24" key="52"/>
          <note vol="11" pos="3120" pan="0" len="24" key="52"/>
        </pattern>
      </track>
    </trackcontainer>
    <track name="Automation track" solo="0" muted="0" type="6">
      <automationtrack/>
      <automationpattern mute="0" name="Numerator" tens="1" pos="0" prog="0" len="192"/>
      <automationpattern mute="0" name="Denominator" tens="1" pos="0" prog="0" len="192"/>
      <automationpattern mute="0" name="Tempo" tens="1" pos="0" prog="0" len="192"/>
      <automationpattern mute="0" name="Master volume" tens="1" pos="0" prog="0" len="192"/>
      <automationpattern mute="0" name="Master pitch" tens="1" pos="0" prog="0" len="192"/>
    </track>
    <fxmixer visible="1" x="5" y="310" width="543" maximized="0" minimized="0" height="333">
      <fxchannel num="0" volume="1" name="Master" soloed="0" muted="0">
        <fxchain enabled="0" numofeffects="0"/>
      </fxchannel>
    </fxmixer>
    <ControllerRackView visible="1" x="680" y="310" width="350" maximized="0" minimized="0" height="200"/>
    <pianoroll visible="1" x="5" y="5" width="860" maximized="1" minimized="0" height="480"/>
    <automationeditor visible="0" x="1" y="1" width="860" maximized="0" minimized="0" height="400"/>
    <projectnotes visible="0" x="700" y="10" width="753" maximized="0" minimized="0" height="400"><![CDATA[<!DOCTYPE HTML PUBLIC "-//W3C//DTD HTML 4.0//EN" "http://www.w3.org/TR/REC-html40/strict.dtd">
<html><head><meta name="qrichtext" content="1" /><style type="text/css">
p, li { white-space: pre-wrap; }
</style></head><body style=" font-family:'Noto Sans'; font-size:10pt; font-weight:400; font-style:normal;">
<p style="-qt-paragraph-type:empty; margin-top:0px; margin-bottom:0px; margin-left:0px; margin-right:0px; -qt-block-indent:0; text-indent:0px;"><br /></p></body></html>]]></projectnotes>
    <timeline lp1pos="3072" lpstate="0" lp0pos="1536"/>
    <controllers>
      <lfocontroller phase="0" name="Controller 1" base="0.183" speed="7.2504" multiplier="0" speed_denominator="4" wave="0" speed_numerator="4" amount="0.31" type="1" speed_syncmode="0" userwavefile=""/>
    </controllers>
  </song>
</lmms-project>
